<?xml version="1.0" standalone="no"?>
<!DOCTYPE svg PUBLIC "-//W3C//DTD SVG 1.1//EN" "http://www.w3.org/Graphics/SVG/1.1/DTD/svg11.dtd" >
<svg xmlns="http://www.w3.org/2000/svg" xmlns:xlink="http://www.w3.org/1999/xlink" version="1.1">
<metadata>
Created by FontForge 20170731 at Sat May 11 19:58:26 2019
 By Aleksey,,,
Copyright (c) 2018 by Alfredo Marco Pradil. All rights reserved.
</metadata>
<defs>
<font id="HKGrotesk-Medium" horiz-adv-x="0" >
  <font-face 
    font-family="HK Grotesk Medium"
    font-weight="500"
    font-stretch="normal"
    units-per-em="1000"
    panose-1="0 0 6 0 0 0 0 0 0 0"
    ascent="800"
    descent="-200"
    x-height="493"
    cap-height="697"
    bbox="-721 -256 1305 1126"
    underline-thickness="27"
    underline-position="-173"
    unicode-range="U+0020-FB02"
  />
<missing-glyph horiz-adv-x="640" 
d="M115 0v474h410v-474h-410zM138 24h364v427h-364v-427z" />
    <glyph glyph-name="fi" unicode="fi" horiz-adv-x="529" 
d="M448 493v-493h-86v423h-179v-423h-86v423h-84v70h84v38q0 83 53 129t133 46q93 0 166 -49l-41 -60q-54 38 -121 38q-104 0 -104 -105v-37h265z" />
    <glyph glyph-name="fl" unicode="fl" horiz-adv-x="565" 
d="M471 -9q-99 0 -99 118v503q-40 23 -91 23q-100 0 -100 -105v-37h106l-1 -70h-105v-423h-86v423h-82v70h82v38q0 83 52 129t130 46q52 0 90 -10.5t90 -39.5v-538q0 -27 11 -37.5t32 -10.5q18 0 44 8v-73q-46 -14 -73 -14z" />
    <glyph glyph-name="f_f" unicode="ff" horiz-adv-x="605" 
d="M97 0v423h-84v70h84v42q0 77 56 124t138 47q71 0 124 -33q42 33 104 33q38 0 80 -20l-28 -70q-24 13 -45 13q-73 0 -73 -72v-64h143v-70h-143v-423h-85v423h-185v-423h-86zM183 493h185v73q0 26 11 50q-36 19 -84 19q-54 0 -83 -27.5t-29 -74.5v-40z" />
    <glyph glyph-name="f_f_i" unicode="ffi" horiz-adv-x="804" 
d="M97 0v423h-84v70h84v42q0 77 56 124t138 47q79 0 136 -41q50 41 127 41q92 0 165 -49l-41 -60q-50 38 -120 38q-105 0 -105 -105v-37h272v-493h-86v423h-186v-423h-85v423h-185v-423h-86zM183 493h185v38q0 51 18 81q-41 23 -91 23q-54 0 -83 -27.5t-29 -74.5v-40z" />
    <glyph glyph-name="f_f_l" unicode="ffl" horiz-adv-x="832" 
d="M735 -9q-45 0 -70.5 26t-25.5 78v522q-36 18 -81 18q-105 0 -105 -105v-37h106v-70h-106v-423h-85v423h-185v-423h-86v423h-84v70h84v42q0 77 56 124t138 47q78 0 136 -40q51 40 127 40q91 0 171 -51v-537q0 -48 42 -48q17 0 44 8l1 -73q-47 -14 -77 -14zM183 493h185v38
q0 45 17 81q-38 23 -90 23q-54 0 -83 -27.5t-29 -74.5v-40z" />
    <glyph glyph-name="h_d_c_o.liga" unicode="hdco" horiz-adv-x="863" 
d="M431 -30q-158 0 -270 111.5t-112 270.5q0 158 112 269.5t270 111.5t270 -111.5t112 -269.5q0 -159 -112 -270.5t-270 -111.5zM431 5q144 0 245.5 101.5t101.5 245.5q0 143 -101.5 244.5t-245.5 101.5t-245 -101.5t-101 -244.5q0 -144 101 -245.5t245 -101.5zM232 202
q-7 0 -12 5t-5 12v265q0 7 5 12.5t12 5.5q8 0 13 -5t5 -13v-265q0 -17 -18 -17zM431 202q-17 0 -17 17v265q0 18 17 18t17 -18v-265q0 -17 -17 -17zM629 202q-7 0 -11 5l-133 132q-4 5 -4 13t4 12l131 129q7 7 15 7q16 0 16 -16q0 -7 -5 -12l-120 -120l120 -121q5 -5 5 -12
t-5.5 -12t-12.5 -5zM299 334q-17 0 -17 18q0 17 17 17h66q18 0 18 -17q0 -18 -18 -18h-66z" />
    <glyph glyph-name="hyphen_greater.liga" unicode="&#x2d;&#x3e;" horiz-adv-x="1088" 
d="M540 22l-29 57l342 192l-853 -1v66l853 -1l-342 191l29 58l505 -281z" />
    <glyph glyph-name="less_hyphen.liga" unicode="&#x3c;&#x2d;" horiz-adv-x="1089" 
d="M549 22l-506 281l506 281l28 -58l-342 -191l853 1v-66l-853 1l342 -192z" />
    <glyph glyph-name=".notdef" horiz-adv-x="640" 
d="M115 0v474h410v-474h-410zM138 24h364v427h-364v-427z" />
    <glyph glyph-name=".null" 
 />
    <glyph glyph-name="nonmarkingreturn" horiz-adv-x="333" 
 />
    <glyph glyph-name="space" unicode=" " horiz-adv-x="263" 
 />
    <glyph glyph-name="exclam" unicode="!" horiz-adv-x="318" 
d="M126 202l-10 495h86l-10 -495h-66zM108 0v117h103v-117h-103z" />
    <glyph glyph-name="quotedbl" unicode="&#x22;" horiz-adv-x="436" 
d="M100 450v247h73v-247h-73zM263 450v247h73v-247h-73z" />
    <glyph glyph-name="numbersign" unicode="#" horiz-adv-x="696" 
d="M127 0l44 209h-119v61h133l35 168h-127v64h139l45 195h68l-43 -197h155l42 197h69l-44 -197h121v-62h-134l-36 -168h129v-61h-141l-45 -209h-68l44 209h-156l-43 -209h-68zM253 270h156l34 168h-155z" />
    <glyph glyph-name="dollar" unicode="$" horiz-adv-x="610" 
d="M544 196q0 -81 -54 -135.5t-139 -65.5v-110l-79 -1v112q-82 11 -139.5 61t-71.5 133l89 21q9 -68 54.5 -103.5t110.5 -35.5q64 0 102 33t38 83q0 46 -36 77t-87.5 50.5t-103 41t-87.5 63t-36 102.5q0 73 46.5 121.5t118.5 59.5v105h79v-105q107 -14 164 -113l-75 -46
q-44 82 -131 82q-48 0 -80.5 -28t-32.5 -72q0 -31 19.5 -54t50 -38t68 -29t75 -31t68 -38.5t50 -57t19.5 -82.5z" />
    <glyph glyph-name="percent" unicode="%" horiz-adv-x="738" 
d="M196 388q-63 0 -100 46.5t-37 112.5t36.5 112.5t97.5 46.5q59 0 97.5 -45.5t38.5 -114.5q0 -68 -37.5 -113t-95.5 -45zM137 0l402 697h62l-402 -697h-62zM196 447q32 0 53 28t21 71q0 44 -20.5 72.5t-56.5 28.5t-55.5 -29t-19.5 -71q0 -43 20 -71.5t58 -28.5zM546 -9
q-63 0 -100 47t-37 113q0 65 36 111.5t98 46.5q59 0 97.5 -45.5t38.5 -113.5t-37.5 -113.5t-95.5 -45.5zM546 50q32 0 53 28t21 72q0 43 -20.5 71.5t-56.5 28.5t-55.5 -28.5t-19.5 -70.5q0 -43 20 -72t58 -29z" />
    <glyph glyph-name="ampersand" unicode="&#x26;" horiz-adv-x="697" 
d="M645 19l-61 -53l-93 108q-89 -83 -213 -83q-96 0 -157.5 45.5t-61.5 124.5q0 72 44.5 119.5t124.5 92.5q-90 96 -90 170q0 72 55 116.5t130 44.5q73 0 124.5 -46.5t51.5 -113.5q0 -62 -38.5 -104.5t-108.5 -83.5l136 -156q31 64 34 140l84 -8q-8 -113 -63 -196zM221 542
q0 -46 75 -133q61 33 92 63t31 71q0 39 -26 66t-70 27t-73 -25.5t-29 -68.5zM276 64q97 0 165 68l-159 185q-68 -39 -103.5 -73.5t-35.5 -83.5q0 -45 36 -70.5t97 -25.5z" />
    <glyph glyph-name="quotesingle" unicode="'" horiz-adv-x="273" 
d="M100 464v233h73v-233h-73z" />
    <glyph glyph-name="parenleft" unicode="(" horiz-adv-x="285" 
d="M182 -43q-53 59 -85.5 172t-32.5 219q0 123 30.5 224.5t86.5 165.5h79q-128 -158 -128 -392q0 -227 127 -389h-77z" />
    <glyph glyph-name="parenright" unicode=")" horiz-adv-x="285" 
d="M27 -43q126 162 126 389q0 235 -127 392h78q118 -137 118 -390q0 -107 -32.5 -219.5t-86.5 -171.5h-76z" />
    <glyph glyph-name="asterisk" unicode="*" horiz-adv-x="445" 
d="M166 414l-62 44l80 87l-114 17l24 71l105 -45l-16 109h76l-15 -109l105 45l23 -71l-114 -17l80 -87l-63 -44l-54 111z" />
    <glyph glyph-name="plus" unicode="+" horiz-adv-x="622" 
d="M275 55v218h-218v72h218v218h72v-218h217v-72h-217v-218h-72z" />
    <glyph glyph-name="comma" unicode="," horiz-adv-x="323" 
d="M76 -153l82 282h106l-130 -282h-58z" />
    <glyph glyph-name="hyphen" unicode="-" horiz-adv-x="434" 
d="M80 270v66h274v-66h-274z" />
    <glyph glyph-name="period" unicode="." horiz-adv-x="332" 
d="M116 0v117h100v-117h-100z" />
    <glyph glyph-name="slash" unicode="/" horiz-adv-x="440" 
d="M0 -211l359 908h82l-361 -908h-80z" />
    <glyph glyph-name="zero" unicode="0" horiz-adv-x="573" 
d="M291 -9q-229 0 -229 357q0 359 222 359q63 0 109 -29.5t71.5 -81.5t37 -114t11.5 -135t-11.5 -133.5t-36 -112.5t-69 -81t-105.5 -29zM289 74q40 0 67 22t40.5 63t18.5 85.5t5 103.5q0 61 -5.5 106t-19 86t-42 62.5t-69.5 21.5q-42 0 -70 -22.5t-41 -64.5t-18 -86
t-5 -103q0 -58 5 -101t18.5 -85.5t42.5 -65t73 -22.5z" />
    <glyph glyph-name="one" unicode="1" horiz-adv-x="573" 
d="M293 697h84v-697h-86v512h-170v74h108q64 0 64 58v53z" />
    <glyph glyph-name="two" unicode="2" horiz-adv-x="573" 
d="M189 81h339v-81h-484v76q54 33 96.5 62t96 73t89 85t60 93.5t24.5 103.5q0 59 -32 94t-93 35q-72 0 -107 -46.5t-37 -120.5l-85 6q0 104 61 174t168 70q95 0 153.5 -56.5t58.5 -153.5q0 -118 -87.5 -225t-220.5 -189z" />
    <glyph glyph-name="three" unicode="3" horiz-adv-x="573" 
d="M281 -9q-109 0 -179 58.5t-70 162.5l85 5q0 -67 46 -105t120 -38q71 0 116 35.5t45 99.5q0 39 -17.5 65t-49.5 37.5t-61.5 15.5t-67.5 4v70q76 0 117.5 28.5t41.5 84.5q0 53 -34.5 81t-88.5 28q-60 0 -96.5 -32t-37.5 -89l-84 6q0 90 61.5 144t153.5 54q88 0 150 -49.5
t62 -131.5q0 -53 -27.5 -93.5t-69.5 -57.5q60 -14 97 -59.5t37 -114.5q0 -97 -71.5 -153t-177.5 -56z" />
    <glyph glyph-name="four" unicode="4" horiz-adv-x="573" 
d="M444 248h112v-83h-112v-165h-86v165h-342v54l350 478h78v-449zM128 248h230v323z" />
    <glyph glyph-name="five" unicode="5" horiz-adv-x="573" 
d="M300 470q99 0 164.5 -67.5t65.5 -164.5q0 -101 -70.5 -174t-175.5 -73q-94 0 -160.5 58.5t-81.5 146.5l84 14q10 -59 51.5 -97.5t105.5 -38.5q71 0 113.5 48t42.5 116q0 65 -40 108.5t-109 43.5q-90 0 -142 -77l-85 22l65 362h370v-82h-299l-35 -194q58 49 136 49z" />
    <glyph glyph-name="six" unicode="6" horiz-adv-x="573" 
d="M351 451q77 -18 128 -80.5t51 -143.5q0 -97 -71 -166.5t-171 -69.5t-171.5 69t-71.5 166q0 66 37 126l209 345h98l-155 -248q61 16 117 2zM288 74q64 0 109.5 45t45.5 108t-45.5 108t-109.5 45t-110 -45t-46 -108t45.5 -108t110.5 -45z" />
    <glyph glyph-name="seven" unicode="7" horiz-adv-x="573" 
d="M36 697h500v-50l-330 -647h-98l321 615h-393v82z" />
    <glyph glyph-name="eight" unicode="8" horiz-adv-x="573" 
d="M287 -9q-100 0 -171.5 55t-71.5 154q0 63 31.5 109.5t88.5 69.5q-83 46 -83 145q0 82 62 132t145 50q85 0 145 -51t60 -134q0 -47 -22.5 -84.5t-60.5 -57.5q57 -22 88 -69.5t31 -109.5q0 -99 -71 -154t-171 -55zM288 404q53 0 86.5 30.5t33.5 80.5q0 48 -33.5 78
t-86.5 30q-52 0 -86.5 -29t-34.5 -77q0 -52 33 -82.5t88 -30.5zM287 73q67 0 112 35t45 99q0 63 -43.5 100t-113.5 37t-113.5 -37t-43.5 -100q0 -64 45 -99t112 -35z" />
    <glyph glyph-name="nine" unicode="9" horiz-adv-x="573" 
d="M286 706q100 0 171.5 -69t71.5 -166q0 -66 -37 -126l-209 -345h-98l154 247q-62 -15 -116 -1q-77 18 -128 80.5t-51 143.5q0 97 71 166.5t171 69.5zM286 317q64 0 109.5 45t45.5 108t-45 108t-110 45q-64 0 -109.5 -45t-45.5 -108t45.5 -108t109.5 -45z" />
    <glyph glyph-name="colon" unicode=":" horiz-adv-x="338" 
d="M118 354v117h103v-117h-103zM118 0v117h103v-117h-103z" />
    <glyph glyph-name="semicolon" unicode=";" horiz-adv-x="333" 
d="M139 354v117h104v-117h-104zM56 -153l82 282h106l-130 -282h-58z" />
    <glyph glyph-name="less" unicode="&#x3c;" horiz-adv-x="643" 
d="M549 9l-507 289l507 289l33 -57l-407 -232l407 -232z" />
    <glyph glyph-name="equal" unicode="=" horiz-adv-x="645" 
d="M125 398v72h395v-72h-395zM125 194v73h395v-73h-395z" />
    <glyph glyph-name="greater" unicode="&#x3e;" horiz-adv-x="643" 
d="M94 9l-32 57l406 232l-406 232l32 57l507 -289z" />
    <glyph glyph-name="question" unicode="?" horiz-adv-x="515" 
d="M217 200v78q0 42 17.5 70.5t43 43.5t51 29t43 37.5t17.5 59.5q0 57 -36.5 86.5t-100.5 29.5q-65 0 -99 -34.5t-35 -97.5h-76q0 95 56.5 149.5t150.5 54.5t154.5 -50t60.5 -139q0 -49 -18 -84t-43.5 -53t-51 -32t-43.5 -31t-18 -40v-77h-73zM203 0v117h103v-117h-103z" />
    <glyph glyph-name="at" unicode="@" horiz-adv-x="1029" 
d="M510 -173q-187 0 -313.5 117.5t-126.5 311.5q0 193 126 322t324 129q196 0 318.5 -126t122.5 -309q0 -80 -23.5 -147.5t-76.5 -113t-127 -45.5q-101 0 -116 93q-4 28 -4 57q-69 -92 -167 -92q-76 0 -117 53t-41 134q0 69 27 138.5t84 120t131 50.5q104 0 132 -94l15 69
l70 -1q-7 -35 -26 -116.5t-32.5 -149.5t-15.5 -112q-2 -41 10.5 -60.5t46.5 -19.5q81 0 122 70.5t41 166.5q0 156 -103.5 262t-270.5 106q-169 0 -275.5 -109.5t-106.5 -273.5q0 -167 107.5 -264.5t265.5 -97.5q63 0 128 21l24 -64q-71 -26 -153 -26zM453 94
q84 0 134.5 77.5t50.5 166.5q0 112 -97 112q-85 0 -135.5 -76.5t-50.5 -165.5q0 -114 98 -114z" />
    <glyph glyph-name="A" unicode="A" horiz-adv-x="654" 
d="M531 0l-62 173h-284l-62 -173h-98l267 697h70l267 -697h-98zM214 252h226l-113 316z" />
    <glyph glyph-name="B" unicode="B" horiz-adv-x="635" 
d="M105 0v697h224q100 0 156 -46t56 -129q0 -109 -87 -149q124 -35 124 -175q0 -94 -59 -146t-166 -52h-248zM194 402h144q55 0 84.5 27.5t29.5 77.5q0 51 -32.5 79.5t-90.5 28.5h-135v-213zM194 82h153q67 0 104 32t37 91q0 56 -33.5 86.5t-95.5 30.5h-165v-240z" />
    <glyph glyph-name="C" unicode="C" horiz-adv-x="722" 
d="M382 -9q-151 0 -237.5 96t-86.5 263q0 165 87.5 260.5t239.5 95.5q219 0 295 -192l-83 -32q-52 139 -212 139q-113 0 -175.5 -71t-62.5 -200q0 -130 61.5 -202t173.5 -72q160 0 215 142l85 -31q-39 -95 -116 -145.5t-184 -50.5z" />
    <glyph glyph-name="D" unicode="D" horiz-adv-x="714" 
d="M105 0v697h194q171 0 264.5 -92.5t93.5 -261.5q0 -166 -92.5 -254.5t-266.5 -88.5h-193zM194 82h96q141 0 209 65t68 200q0 268 -270 268h-103v-533z" />
    <glyph glyph-name="E" unicode="E" horiz-adv-x="625" 
d="M105 0v697h460v-82h-371v-218h337v-82h-337v-233h371v-82h-460z" />
    <glyph glyph-name="F" unicode="F" horiz-adv-x="620" 
d="M105 0v697h480v-82h-391v-218h343v-82h-343v-315h-89z" />
    <glyph glyph-name="G" unicode="G" horiz-adv-x="762" 
d="M432 366h250v-366h-68l-12 96q-29 -50 -87.5 -77.5t-134.5 -27.5q-148 0 -235 100t-87 259q0 158 86.5 257t241.5 99q107 0 182 -50t111 -142l-82 -32q-53 139 -212 139q-115 0 -176.5 -72t-61.5 -197t61 -200.5t178 -75.5q94 0 152 49.5t58 145.5v18h-164v77z" />
    <glyph glyph-name="H" unicode="H" horiz-adv-x="732" 
d="M105 0v697h89v-299h343v299h90v-697h-90v315h-343v-315h-89z" />
    <glyph glyph-name="I" unicode="I" horiz-adv-x="300" 
d="M105 0v697h89v-697h-89z" />
    <glyph glyph-name="J" unicode="J" horiz-adv-x="576" 
d="M258 -9q-98 0 -159 58t-68 159l88 10q4 -70 40 -106.5t99 -36.5q136 0 136 177v363h-275v82h364v-450q0 -121 -59 -188.5t-166 -67.5z" />
    <glyph glyph-name="K" unicode="K" horiz-adv-x="709" 
d="M682 0h-103l-222 378l-163 -167v-211h-89v697h89v-373l359 373h117l-252 -258z" />
    <glyph glyph-name="L" unicode="L" horiz-adv-x="531" 
d="M105 0v697h89v-615h312v-82h-401z" />
    <glyph glyph-name="M" unicode="M" horiz-adv-x="892" 
d="M658 697h129v-697h-90v576l-207 -517h-87l-209 519v-578h-89v697h129l212 -536z" />
    <glyph glyph-name="N" unicode="N" horiz-adv-x="721" 
d="M527 697h89v-697h-96l-326 545v-545h-89v697h95l327 -543v543z" />
    <glyph glyph-name="O" unicode="O" horiz-adv-x="762" 
d="M381 -9q-145 0 -234.5 98.5t-89.5 258.5t89.5 259t234.5 99t234.5 -98.5t89.5 -259.5q0 -160 -89.5 -258.5t-234.5 -98.5zM381 76q107 0 171 74t64 198q0 125 -64 199t-171 74t-171 -74t-64 -199q0 -124 64 -198t171 -74z" />
    <glyph glyph-name="P" unicode="P" horiz-adv-x="587" 
d="M105 0v697h209q113 0 172.5 -50.5t59.5 -146.5q0 -97 -60 -149t-172 -52h-120v-299h-89zM194 381h111q152 0 152 118q0 116 -152 116h-111v-234z" />
    <glyph glyph-name="Q" unicode="Q" horiz-adv-x="778" 
d="M724 -3l-56 -53l-104 101q-79 -54 -184 -54q-145 0 -234.5 98.5t-89.5 258.5t89.5 259t234.5 99t234.5 -98.5t89.5 -259.5q0 -153 -83 -250zM380 76q67 0 120 31l-104 101l57 55l106 -104q56 73 56 189q0 125 -64 199t-171 74t-171 -74t-64 -199q0 -124 64 -198t171 -74z
" />
    <glyph glyph-name="R" unicode="R" horiz-adv-x="629" 
d="M597 0h-103l-175 302h-45h-80v-302h-89v697h209q115 0 173.5 -50.5t58.5 -145.5q0 -149 -138 -187zM194 385h111q152 0 152 115t-152 115h-111v-230z" />
    <glyph glyph-name="S" unicode="S" horiz-adv-x="568" 
d="M292 -7q-99 0 -168.5 54t-83.5 143l88 21q9 -64 53.5 -101.5t111.5 -37.5q63 0 101.5 32t38.5 84q0 44 -35 75t-122 65q-107 41 -150 84.5t-43 109.5q0 83 56.5 133.5t148.5 50.5q136 0 203 -116l-75 -46q-45 82 -131 82q-48 0 -80.5 -29t-32.5 -71q0 -39 34 -66t118 -60
q112 -43 155.5 -88.5t43.5 -115.5q0 -93 -63.5 -148t-167.5 -55z" />
    <glyph glyph-name="T" unicode="T" horiz-adv-x="608" 
d="M259 0v615h-234v82h558v-82h-234v-615h-90z" />
    <glyph glyph-name="U" unicode="U" horiz-adv-x="692" 
d="M346 -9q-125 0 -190.5 66.5t-65.5 194.5v445h89v-436q0 -95 40.5 -139t126.5 -44t126.5 45t40.5 140v434h89v-440q0 -130 -65.5 -198t-190.5 -68z" />
    <glyph glyph-name="V" unicode="V" horiz-adv-x="674" 
d="M550 697h98l-276 -697h-70l-277 697h99l214 -555z" />
    <glyph glyph-name="W" unicode="W" horiz-adv-x="987" 
d="M236 0l-204 697h92l161 -563l169 525h78l169 -525l160 563h94l-204 -697h-89l-168 518l-170 -518h-88z" />
    <glyph glyph-name="X" unicode="X" horiz-adv-x="661" 
d="M30 0l239 350l-236 347h108l190 -285l191 285h106l-236 -347l240 -350h-107l-195 285l-192 -285h-108z" />
    <glyph glyph-name="Y" unicode="Y" horiz-adv-x="658" 
d="M285 0v269l-266 428h105l204 -342l205 342h106l-265 -428v-269h-89z" />
    <glyph glyph-name="Z" unicode="Z" horiz-adv-x="640" 
d="M594 697v-68l-434 -547h432v-82h-552v65l437 550h-414v82h531z" />
    <glyph glyph-name="bracketleft" unicode="[" horiz-adv-x="326" 
d="M101 -69v833h195v-58h-125v-716h125v-59h-195z" />
    <glyph glyph-name="backslash" unicode="\" horiz-adv-x="457" 
d="M378 -211l-379 957h81l379 -957h-81z" />
    <glyph glyph-name="bracketright" unicode="]" horiz-adv-x="326" 
d="M30 -69v59h125v716h-125v58h195v-833h-195z" />
    <glyph glyph-name="asciicircum" unicode="^" horiz-adv-x="592" 
d="M49 218l246 510l248 -510h-91l-157 346l-154 -346h-92z" />
    <glyph glyph-name="underscore" unicode="_" horiz-adv-x="565" 
d="M80 -66v66h405v-66h-405z" />
    <glyph glyph-name="grave" unicode="`" horiz-adv-x="254" 
d="M156 556l-130 141h92l104 -141h-66z" />
    <glyph glyph-name="a" unicode="a" horiz-adv-x="533" 
d="M262 502q95 0 148 -51.5t53 -142.5v-308h-79l-6 74q-55 -83 -168 -83q-80 0 -126.5 42t-46.5 113q0 80 63 115q51 27 168 27h109v20q0 57 -30.5 87.5t-86.5 30.5q-85 0 -144 -79l-62 52q81 103 208 103zM230 63q65 0 106 42.5t41 110.5v5h-99q-101 0 -130 -22
q-25 -20 -25 -57q0 -36 29 -57.5t78 -21.5z" />
    <glyph glyph-name="b" unicode="b" horiz-adv-x="587" 
d="M326 502q99 0 157.5 -69t58.5 -186q0 -114 -56.5 -185t-159.5 -71t-156 70v-61h-86v697h86v-266q54 71 156 71zM310 69q71 0 108.5 48.5t37.5 129.5q0 82 -38.5 130t-107.5 48q-70 0 -108.5 -48.5t-38.5 -129.5q0 -80 38 -129t109 -49z" />
    <glyph glyph-name="c" unicode="c" horiz-adv-x="503" 
d="M271 -9q-107 0 -168 73.5t-61 180.5q0 105 60 181t168 76q146 0 204 -139l-82 -33q-15 45 -47 70.5t-75 25.5q-69 0 -104.5 -52.5t-35.5 -128.5t35.5 -127t104.5 -51q44 0 75.5 25t44.5 69l79 -30q-25 -67 -77 -103.5t-121 -36.5z" />
    <glyph glyph-name="d" unicode="d" horiz-adv-x="587" 
d="M417 697h86v-697h-86v61q-53 -70 -156 -70t-159.5 71t-56.5 185q0 117 58.5 186t157.5 69q102 0 156 -71v266zM277 69q71 0 109 49t38 129q0 81 -38.5 129.5t-108.5 48.5q-69 0 -107.5 -48t-38.5 -130q0 -81 37.5 -129.5t108.5 -48.5z" />
    <glyph glyph-name="e" unicode="e" horiz-adv-x="528" 
d="M486 265q0 -25 -3 -44h-353q2 -71 40.5 -111t106.5 -40q79 0 134 59l59 -53q-79 -85 -194 -85q-112 0 -172 72t-60 181t58.5 183.5t165.5 74.5q106 0 162 -69.5t56 -167.5zM130 290h274q-1 2 -1 10q-2 58 -38.5 94t-97.5 36q-60 0 -96.5 -40.5t-40.5 -99.5z" />
    <glyph glyph-name="f" unicode="f" horiz-adv-x="343" 
d="M114 0v423h-101v70h102v69q0 78 37 111t95 33q44 0 90 -20l-29 -67q-30 15 -52 15q-28 0 -42 -19t-14 -49v-73h133v-70h-133v-423h-86z" />
    <glyph glyph-name="g" unicode="g" horiz-adv-x="519" 
d="M134 132q0 -26 25.5 -41t64 -19.5t83 -13t83 -19.5t64 -39.5t25.5 -72.5q0 -70 -58.5 -105t-157.5 -35q-106 0 -165 40t-59 114q0 10 2 22l78 59q-63 31 -63 97q0 59 51 96q-42 47 -42 112q0 76 56 125.5t137 49.5q68 0 121 -37l70 60l45 -55l-68 -56q25 -41 25 -91
q0 -76 -55 -124t-136 -48q-56 0 -99 23q-27 -15 -27 -42zM259 430q-47 0 -77.5 -29.5t-30.5 -75.5q0 -45 29 -74.5t79 -29.5q49 0 77.5 29.5t28.5 74.5q0 47 -29 76t-77 29zM267 -144q126 0 126 63q0 19 -11.5 31.5t-35.5 19.5t-46.5 11.5t-58 9.5t-57.5 10l-59 -57
q-1 -4 -1 -8q0 -80 143 -80z" />
    <glyph glyph-name="h" unicode="h" horiz-adv-x="566" 
d="M329 502q80 0 122.5 -50t42.5 -145v-307h-86v286q0 72 -25 106t-77 34q-136 0 -136 -209v-217h-86v697h86v-271q52 76 159 76z" />
    <glyph glyph-name="i" unicode="i" horiz-adv-x="254" 
d="M79 592v105h96v-105h-96zM84 0v493h86v-493h-86z" />
    <glyph glyph-name="j" unicode="j" horiz-adv-x="254" 
d="M79 592v105h96v-105h-96zM68 -213q-31 0 -71 14l1 69q22 -7 43 -7q43 0 43 48v582h86v-588q0 -59 -27.5 -88.5t-74.5 -29.5z" />
    <glyph glyph-name="k" unicode="k" horiz-adv-x="546" 
d="M84 0v697h86v-445l225 241h115l-180 -187l206 -306h-102l-163 253l-101 -108v-145h-86z" />
    <glyph glyph-name="l" unicode="l" horiz-adv-x="273" 
d="M181 -9q-47 0 -74 30.5t-27 89.5v586h86v-581q0 -48 41 -48q16 0 44 8l1 -71q-40 -14 -71 -14z" />
    <glyph glyph-name="m" unicode="m" horiz-adv-x="848" 
d="M607 502q85 0 127 -52.5t42 -139.5v-310h-86v285q0 141 -100 141q-36 0 -60.5 -16t-36 -47t-16 -64t-4.5 -78v-221h-86v283q0 143 -102 143q-35 0 -59 -16t-35.5 -47t-16 -64t-4.5 -78v-221h-86l-1 493h84v-61q43 70 134 70q107 0 145 -96q49 96 161 96z" />
    <glyph glyph-name="n" unicode="n" horiz-adv-x="566" 
d="M328 502q81 0 123.5 -50t42.5 -145v-307h-86v286q0 67 -23 103.5t-80 36.5q-135 0 -135 -213v-213h-86v493h86v-67q52 76 158 76z" />
    <glyph glyph-name="o" unicode="o" horiz-adv-x="561" 
d="M280 -9q-107 0 -173 73t-66 183t66 182.5t173 72.5t174 -73t67 -182t-67 -182.5t-174 -73.5zM280 67q73 0 114 51t41 129q0 79 -40.5 129t-114.5 50q-73 0 -113 -50t-40 -129t40 -129.5t113 -50.5z" />
    <glyph glyph-name="p" unicode="p" horiz-adv-x="587" 
d="M326 502q101 0 158.5 -69.5t57.5 -185.5t-57.5 -186t-158.5 -70q-103 0 -156 71v-266h-86v697h86v-61q54 70 156 70zM310 67q70 0 108 49t38 131q0 83 -38.5 131.5t-107.5 48.5q-70 0 -108.5 -49t-38.5 -131q0 -80 38 -130t109 -50z" />
    <glyph glyph-name="q" unicode="q" horiz-adv-x="587" 
d="M416 493h86v-697h-86v266q-53 -71 -156 -71q-101 0 -158 70t-57 186t57 185.5t158 69.5q104 0 156 -70v61zM277 67q71 0 109 50t38 130q0 82 -38.5 131t-108.5 49t-108 -48t-38 -132q0 -83 37.5 -131.5t108.5 -48.5z" />
    <glyph glyph-name="r" unicode="r" horiz-adv-x="403" 
d="M312 502q47 0 88 -24l-42 -72q-31 15 -64 15q-57 0 -90.5 -40t-33.5 -115v-266h-86v493h86v-77q22 44 60.5 65t81.5 21z" />
    <glyph glyph-name="s" unicode="s" horiz-adv-x="460" 
d="M235 -9q-73 0 -128.5 36.5t-75.5 95.5l71 32q13 -39 46 -64.5t84 -25.5q47 0 73.5 21.5t26.5 54.5q0 31 -28 49t-68.5 27.5t-81 21.5t-68.5 42.5t-28 79.5q0 65 49 103t124 38q128 0 181 -105l-68 -37q-38 69 -115 69q-40 0 -64 -16t-24 -43q0 -28 28.5 -44.5t69 -26.5
t81 -23.5t69 -46t28.5 -83.5q0 -75 -53 -115t-129 -40z" />
    <glyph glyph-name="t" unicode="t" horiz-adv-x="346" 
d="M308 423h-121v-291q0 -65 62 -65q24 0 59 11v-73q-42 -14 -80 -14q-57 0 -92 33t-35 99v300h-81v70h81v130l86 65v-195h121v-70z" />
    <glyph glyph-name="u" unicode="u" horiz-adv-x="566" 
d="M396 493h86v-493h-86v67q-51 -76 -158 -76q-84 0 -125 53.5t-41 144.5v304h86v-283q0 -29 3 -50t12.5 -44.5t31.5 -36t55 -12.5q72 0 104 58.5t32 153.5v214z" />
    <glyph glyph-name="v" unicode="v" horiz-adv-x="498" 
d="M213 0l-201 493h93l143 -382l145 382h94l-202 -493h-72z" />
    <glyph glyph-name="w" unicode="w" horiz-adv-x="733" 
d="M167 0l-147 493h92l99 -362l117 362h77l117 -362l99 362h92l-147 -493h-79l-120 373l-121 -373h-79z" />
    <glyph glyph-name="x" unicode="x" horiz-adv-x="503" 
d="M18 0l177 247l-177 246h105l129 -186l128 186h105l-177 -246l178 -247h-106l-128 189l-128 -189h-106z" />
    <glyph glyph-name="y" unicode="y" horiz-adv-x="508" 
d="M130 -204l84 212l-204 485h95l155 -385l141 385h95l-273 -697h-93z" />
    <glyph glyph-name="z" unicode="z" horiz-adv-x="488" 
d="M451 493v-65l-305 -355h304v-73h-419v60l313 360h-297v73h404z" />
    <glyph glyph-name="braceleft" unicode="{" horiz-adv-x="308" 
d="M209 -72q-51 0 -78 35t-27 95v165q0 32 -15.5 48t-45.5 27v60q30 10 45.5 26.5t15.5 53.5v173q0 62 27.5 95.5t80.5 33.5h62v-57h-33q-63 0 -63 -73v-173q0 -80 -66 -107v-5q66 -27 66 -100v-165q0 -74 59 -74h37v-58h-65z" />
    <glyph glyph-name="bar" unicode="|" horiz-adv-x="318" 
d="M127 -253v1010h64v-1010h-64z" />
    <glyph glyph-name="braceright" unicode="}" horiz-adv-x="308" 
d="M33 -72v58h37q60 0 60 74v165q0 72 65 100v5q-65 26 -65 107v173q0 73 -63 73h-34v57h62q53 0 80.5 -33t27.5 -96v-173q0 -37 16 -54t46 -26v-60q-14 -5 -23 -9.5t-19 -13t-15 -21.5t-5 -31v-165q0 -60 -26.5 -95t-77.5 -35h-66z" />
    <glyph glyph-name="asciitilde" unicode="~" horiz-adv-x="620" 
d="M397 177q-37 0 -63.5 18.5t-38.5 41t-31 41t-43 18.5q-26 0 -41.5 -25.5t-15.5 -69.5h-65q0 70 33.5 112t88.5 42q31 0 54.5 -12.5t37 -30t25 -35t26.5 -30t33 -12.5q26 0 42.5 29t16.5 76h66q0 -73 -34 -118t-91 -45z" />
    <glyph glyph-name="uni00A0" unicode="&#xa0;" horiz-adv-x="278" 
 />
    <glyph glyph-name="exclamdown" unicode="&#xa1;" horiz-adv-x="318" 
d="M210 493v-117h-103v117h103zM191 291l10 -495h-85l10 495h65z" />
    <glyph glyph-name="cent" unicode="&#xa2;" horiz-adv-x="575" 
d="M304 67q44 0 75.5 25t44.5 69l79 -30q-22 -59 -64.5 -94.5t-100.5 -43.5v-105l-79 -1v108q-86 16 -134.5 86t-48.5 164t47.5 165.5t135.5 87.5v103h79v-101q120 -16 170 -137l-82 -33q-15 45 -47 70.5t-75 25.5q-69 0 -104.5 -52.5t-35.5 -128.5t35.5 -127t104.5 -51z
" />
    <glyph glyph-name="sterling" unicode="&#xa3;" horiz-adv-x="622" 
d="M282 221q0 -97 -85 -148h351v-73h-467v79q55 18 92.5 57.5t37.5 85.5q0 26 -25 99h-102v72h84q-19 48 -19 111q0 88 55.5 146t146.5 58q75 0 128 -40t72 -109l-68 -25q-25 101 -130 101q-60 0 -95.5 -35t-35.5 -98q0 -58 21 -109h206v-72h-189q22 -68 22 -100z" />
    <glyph glyph-name="currency" unicode="&#xa4;" horiz-adv-x="691" 
d="M158 78l-46 47l50 51q-46 60 -46 136.5t46 135.5l-49 50l46 48l50 -51q60 46 136.5 46.5t136.5 -46.5l50 50l47 -46l-51 -50q47 -60 47 -137t-47 -136l51 -51l-46 -47l-51 51q-60 -46 -137 -46t-136 46zM228 197q50 -49 117.5 -49t114.5 49q49 49 49.5 116t-48.5 114
q-48 48 -116 48t-116 -48q-47 -47 -47 -115t46 -115z" />
    <glyph glyph-name="yen" unicode="&#xa5;" horiz-adv-x="721" 
d="M314 0v108h-170v70h170v86h-170v70h130l-224 363h109l201 -342l202 342h109l-223 -363h128v-70h-169v-86h169v-70h-169v-108h-93z" />
    <glyph glyph-name="brokenbar" unicode="&#xa6;" horiz-adv-x="324" 
d="M127 361v366h71v-366h-71zM127 -152v359h71v-359h-71z" />
    <glyph glyph-name="section" unicode="&#xa7;" horiz-adv-x="613" 
d="M303 -200q-138 0 -204 116l74 46q45 -82 132 -82q48 0 80.5 28t32.5 71q0 25 -11 44t-36.5 34.5t-45.5 24.5t-58 24q-31 12 -48 19t-44.5 21t-43 28t-32 34t-24 45.5t-7.5 55.5q0 83 55 138q-17 31 -17 75q0 83 59 133.5t145 50.5q138 0 204 -116l-75 -46q-43 82 -131 82
q-48 0 -80.5 -28t-32.5 -72q0 -20 9 -37t20.5 -28t35.5 -23.5t39 -19t47 -18.5q38 -15 58.5 -23.5t51.5 -27.5t47.5 -38t29 -49t12.5 -66q0 -82 -55 -137q17 -32 17 -76q0 -82 -59 -132.5t-145 -50.5zM430 117q26 29 26 71q0 23 -9.5 42t-21.5 32t-36.5 26.5t-41.5 20.5
t-48 19q-87 34 -116 60q-26 -29 -26 -71q0 -23 9.5 -42t21.5 -32t36.5 -26.5t41.5 -20.5t48 -19q87 -33 116 -60z" />
    <glyph glyph-name="dieresis" unicode="&#xa8;" horiz-adv-x="435" 
d="M81 592v105h87v-105h-87zM266 592v105h87v-105h-87z" />
    <glyph glyph-name="copyright" unicode="&#xa9;" horiz-adv-x="876" 
d="M438 -11q-152 0 -259.5 105t-107.5 254t107.5 254.5t259.5 105.5t259 -105.5t107 -254.5t-107 -254t-259 -105zM438 44q129 0 220 89.5t91 214.5q0 126 -91 215.5t-220 89.5q-130 0 -221 -89.5t-91 -215.5t91.5 -215t220.5 -89zM448 124q-93 0 -146 64.5t-53 158.5
q0 92 52 158.5t146 66.5q129 0 179 -122l-68 -26q-14 38 -43.5 60.5t-67.5 22.5q-61 0 -93 -46.5t-32 -113.5q0 -66 32 -111.5t94 -45.5q39 0 68 22t40 59l65 -24q-20 -58 -65.5 -90.5t-107.5 -32.5z" />
    <glyph glyph-name="ordfeminine" unicode="&#xaa;" horiz-adv-x="453" 
d="M188 348q-51 0 -85.5 29t-34.5 76q0 54 38 80t105 26h99q0 4 -2 24q-9 74 -88 74q-58 0 -98 -56l-43 29q29 40 62 58t80 18q66 0 103 -37.5t37 -102.5v-212h-48l-1 57q-46 -63 -124 -63zM197 398q72 0 106 69q6 30 7 44h-96q-89 0 -89 -58q0 -24 21 -39.5t51 -15.5z" />
    <glyph glyph-name="guillemotleft" unicode="&#xab;" horiz-adv-x="500" 
d="M227 82l-201 170l201 170v-75l-112 -95l112 -95v-75zM423 82l-201 170l201 170v-75l-112 -95l112 -95v-75z" />
    <glyph glyph-name="logicalnot" unicode="&#xac;" horiz-adv-x="656" 
d="M448 143v173h-371v77h454v-250h-83z" />
    <glyph glyph-name="uni00AD" unicode="&#xad;" horiz-adv-x="505" 
d="M80 270v66h345v-66h-345z" />
    <glyph glyph-name="registered" unicode="&#xae;" horiz-adv-x="876" 
d="M438 -11q-152 0 -259.5 105t-107.5 254t107.5 254.5t259.5 105.5t259 -105.5t107 -254.5t-107 -254t-259 -105zM438 44q129 0 220 89.5t91 214.5q0 126 -91 215.5t-220 89.5q-130 0 -221 -89.5t-91 -215.5t91.5 -215t220.5 -89zM321 136v425h125q65 0 105 -33.5t40 -88.5
q0 -40 -22.5 -68.5t-62.5 -40.5l116 -194h-66l-107 187q-4 0 -12.5 -0.5t-12.5 -0.5h-45v-186h-58zM379 371h72q39 0 60.5 18t21.5 49q0 34 -22.5 52.5t-63.5 18.5h-68v-138z" />
    <glyph glyph-name="macron" unicode="&#xaf;" horiz-adv-x="430" 
d="M79 588v51h272v-51h-272z" />
    <glyph glyph-name="degree" unicode="&#xb0;" horiz-adv-x="467" 
d="M233 419q-58 0 -100 42.5t-42 101.5t42 101t100 42q59 0 101 -42t42 -101t-42 -101.5t-101 -42.5zM233 478q35 0 60 25t25 60t-25 59.5t-60 24.5q-34 0 -58.5 -24.5t-24.5 -59.5t24.5 -60t58.5 -25z" />
    <glyph glyph-name="plusminus" unicode="&#xb1;" horiz-adv-x="664" 
d="M300 93v223h-231v66h231v222h65v-222h231v-66h-231v-223h-65zM69 -66v66h524v-66h-524z" />
    <glyph glyph-name="acute" unicode="&#xb4;" horiz-adv-x="257" 
d="M31 556l109 141h92l-137 -141h-64z" />
    <glyph glyph-name="uni00B5" unicode="&#xb5;" horiz-adv-x="643" 
d="M127 -168v661h85v-291q0 -61 29 -96t83 -35q60 0 93.5 35.5t33.5 103.5v283h86v-493h-86v74q-50 -83 -151 -83q-70 0 -104 45v-204h-69z" />
    <glyph glyph-name="paragraph" unicode="&#xb6;" horiz-adv-x="635" 
d="M278 -121v428q-92 0 -158 53t-66 142t66 142t158 53h60v-818h-60zM447 -121v818h61v-818h-61z" />
    <glyph glyph-name="periodcentered" unicode="&#xb7;" horiz-adv-x="330" 
d="M164 294q-28 0 -48 20t-20 49t20 48.5t48 19.5q29 0 49 -20t20 -48q0 -29 -20 -49t-49 -20z" />
    <glyph glyph-name="cedilla" unicode="&#xb8;" horiz-adv-x="290" 
d="M137 -256q-31 0 -58 18t-38 46l49 21q14 -34 49 -34q24 0 38.5 13.5t14.5 35.5q0 26 -23.5 42.5t-63.5 18.5h-40l56 94h53l-40 -58q21 -3 30 -6q79 -18 79 -88q0 -45 -29.5 -74t-76.5 -29z" />
    <glyph glyph-name="ordmasculine" unicode="&#xba;" horiz-adv-x="475" 
d="M237 352q-74 0 -122.5 51.5t-48.5 125.5t48.5 125.5t122.5 51.5t123 -51.5t49 -125.5t-49 -125.5t-123 -51.5zM237 405q53 0 82 34.5t29 89.5t-29 89.5t-82 34.5t-82 -34.5t-29 -89.5t29 -89.5t82 -34.5z" />
    <glyph glyph-name="guillemotright" unicode="&#xbb;" horiz-adv-x="500" 
d="M75 82v75l112 95l-112 95v75l201 -170zM271 82v75l112 95l-112 95v75l201 -170z" />
    <glyph glyph-name="questiondown" unicode="&#xbf;" horiz-adv-x="515" 
d="M312 493v-117h-104v117h104zM298 293v-78q0 -42 -17.5 -70.5t-43 -43.5t-51 -29t-43 -37.5t-17.5 -59.5q0 -57 36.5 -86.5t100.5 -29.5q65 0 99 34.5t35 97.5h76q0 -95 -56.5 -149.5t-150.5 -54.5q-95 0 -155.5 50t-60.5 139q0 49 18 84t43.5 53t51 32t43.5 31t18 40v77
h74z" />
    <glyph glyph-name="Agrave" unicode="&#xc0;" horiz-adv-x="654" 
d="M360 760h-66l-130 141h92zM531 0l-62 173h-284l-62 -173h-98l267 697h70l267 -697h-98zM214 252h226l-113 316z" />
    <glyph glyph-name="Aacute" unicode="&#xc1;" horiz-adv-x="654" 
d="M497 901l-137 -141h-64l109 141h92zM531 0l-62 173h-284l-62 -173h-98l267 697h70l267 -697h-98zM214 252h226l-113 316z" />
    <glyph glyph-name="Acircumflex" unicode="&#xc2;" horiz-adv-x="654" 
d="M327 839l-82 -89h-69l151 164l151 -164h-69zM531 0l-62 173h-284l-62 -173h-98l267 697h70l267 -697h-98zM214 252h226l-113 316z" />
    <glyph glyph-name="Atilde" unicode="&#xc3;" horiz-adv-x="654" 
d="M260 851q-20 0 -32 -20t-12 -55h-50q0 61 26 95t71 34q25 0 45 -12.5t30.5 -28t25.5 -28t31 -12.5q18 0 29.5 21t11.5 56h52q0 -62 -25.5 -97t-67.5 -35q-28 0 -49 13t-31.5 28t-24.5 28t-30 13zM531 0l-62 173h-284l-62 -173h-98l267 697h70l267 -697h-98zM214 252h226
l-113 316z" />
    <glyph glyph-name="Adieresis" unicode="&#xc4;" horiz-adv-x="654" 
d="M278 901v-105h-87v105h87zM463 901v-105h-87v105h87zM531 0l-62 173h-284l-62 -173h-98l267 697h70l267 -697h-98zM214 252h226l-113 316z" />
    <glyph glyph-name="Aring" unicode="&#xc5;" horiz-adv-x="654" 
d="M531 0l-62 173h-284l-62 -173h-98l263 688q-28 11 -45.5 37.5t-17.5 57.5q0 43 30 72.5t73 29.5q42 0 72 -30t30 -72q0 -33 -17.5 -59t-46.5 -37l263 -687h-98zM328 838q-24 0 -39.5 -16t-15.5 -39t15.5 -39t39.5 -16q23 0 39 16t16 39q0 24 -15.5 39.5t-39.5 15.5z
M214 252h226l-113 316z" />
    <glyph glyph-name="AE" unicode="&#xc6;" horiz-adv-x="959" 
d="M25 0l266 697h612v-79h-366v-231h319v-76h-319v-230h366v-81h-457v162h-265l-58 -162h-98zM209 238h237v383h-99z" />
    <glyph glyph-name="Ccedilla" unicode="&#xc7;" horiz-adv-x="722" 
d="M682 187q-37 -89 -107 -139t-166 -56l-34 -51q35 -6 59 -17q50 -23 50 -77q0 -45 -30 -74t-77 -29q-52 0 -88 42l30 41q24 -32 61 -32q24 0 38 13.5t14 36.5q0 41 -54 54q-24 6 -72 6l51 87q-140 8 -219.5 103t-79.5 255q0 165 87.5 260.5t239.5 95.5q219 0 295 -192
l-83 -32q-52 139 -212 139q-113 0 -175.5 -71t-62.5 -200q0 -130 61.5 -202t173.5 -72q160 0 215 142z" />
    <glyph glyph-name="Egrave" unicode="&#xc8;" horiz-adv-x="625" 
d="M302 760l-130 141h92l104 -141h-66zM105 0v697h460v-82h-371v-218h337v-82h-337v-233h371v-82h-460z" />
    <glyph glyph-name="Eacute" unicode="&#xc9;" horiz-adv-x="625" 
d="M303 760l109 141h92l-137 -141h-64zM105 0v697h460v-82h-371v-218h337v-82h-337v-233h371v-82h-460z" />
    <glyph glyph-name="Ecircumflex" unicode="&#xca;" horiz-adv-x="625" 
d="M184 750l151 164l151 -164h-69l-82 89l-82 -89h-69zM105 0v697h460v-82h-371v-218h337v-82h-337v-233h371v-82h-460z" />
    <glyph glyph-name="Edieresis" unicode="&#xcb;" horiz-adv-x="625" 
d="M198 796v105h87v-105h-87zM383 796v105h87v-105h-87zM105 0v697h460v-82h-371v-218h337v-82h-337v-233h371v-82h-460z" />
    <glyph glyph-name="Igrave" unicode="&#xcc;" horiz-adv-x="300" 
d="M117 760l-130 141h92l104 -141h-66zM105 0v697h89v-697h-89z" />
    <glyph glyph-name="Iacute" unicode="&#xcd;" horiz-adv-x="300" 
d="M119 760l109 141h92l-137 -141h-64zM105 0v697h89v-697h-89z" />
    <glyph glyph-name="Icircumflex" unicode="&#xce;" horiz-adv-x="300" 
d="M-1 750l151 164l151 -164h-69l-82 89l-82 -89h-69zM105 0v697h89v-697h-89z" />
    <glyph glyph-name="Idieresis" unicode="&#xcf;" horiz-adv-x="300" 
d="M14 796v105h87v-105h-87zM199 796v105h87v-105h-87zM105 0v697h89v-697h-89z" />
    <glyph glyph-name="Eth" unicode="&#xd0;" horiz-adv-x="714" 
d="M299 697q171 0 264.5 -92.5t93.5 -261.5q0 -166 -92.5 -254.5t-266.5 -88.5h-193v320h-75v58h75v319h194zM290 82q141 0 209 65t68 200q0 268 -270 268h-103v-237h124v-58h-124v-238h96z" />
    <glyph glyph-name="Ntilde" unicode="&#xd1;" horiz-adv-x="721" 
d="M293 851q-20 0 -32 -20t-12 -55h-50q0 61 26 95t71 34q25 0 45 -12.5t30.5 -28t25.5 -28t31 -12.5q18 0 29.5 21t11.5 56h52q0 -62 -25.5 -97t-67.5 -35q-28 0 -49 13t-31.5 28t-24.5 28t-30 13zM527 697h89v-697h-96l-326 545v-545h-89v697h95l327 -543v543z" />
    <glyph glyph-name="Ograve" unicode="&#xd2;" horiz-adv-x="762" 
d="M348 760l-130 141h92l104 -141h-66zM381 -9q-145 0 -234.5 98.5t-89.5 258.5t89.5 259t234.5 99t234.5 -98.5t89.5 -259.5q0 -160 -89.5 -258.5t-234.5 -98.5zM381 76q107 0 171 74t64 198q0 125 -64 199t-171 74t-171 -74t-64 -199q0 -124 64 -198t171 -74z" />
    <glyph glyph-name="Oacute" unicode="&#xd3;" horiz-adv-x="762" 
d="M349 760l109 141h92l-137 -141h-64zM381 -9q-145 0 -234.5 98.5t-89.5 258.5t89.5 259t234.5 99t234.5 -98.5t89.5 -259.5q0 -160 -89.5 -258.5t-234.5 -98.5zM381 76q107 0 171 74t64 198q0 125 -64 199t-171 74t-171 -74t-64 -199q0 -124 64 -198t171 -74z" />
    <glyph glyph-name="Ocircumflex" unicode="&#xd4;" horiz-adv-x="762" 
d="M230 750l151 164l151 -164h-69l-82 89l-82 -89h-69zM381 -9q-145 0 -234.5 98.5t-89.5 258.5t89.5 259t234.5 99t234.5 -98.5t89.5 -259.5q0 -160 -89.5 -258.5t-234.5 -98.5zM381 76q107 0 171 74t64 198q0 125 -64 199t-171 74t-171 -74t-64 -199q0 -124 64 -198
t171 -74z" />
    <glyph glyph-name="Otilde" unicode="&#xd5;" horiz-adv-x="762" 
d="M448 769q-28 0 -49 13t-31.5 28t-24.5 28t-30 13q-20 0 -32 -20t-12 -55h-50q0 61 26 95t71 34q25 0 45 -12.5t30.5 -28t25.5 -28t31 -12.5q18 0 29.5 21t11.5 56h52q0 -62 -25.5 -97t-67.5 -35zM381 -9q-145 0 -234.5 98.5t-89.5 258.5t89.5 259t234.5 99t234.5 -98.5
t89.5 -259.5q0 -160 -89.5 -258.5t-234.5 -98.5zM381 76q107 0 171 74t64 198q0 125 -64 199t-171 74t-171 -74t-64 -199q0 -124 64 -198t171 -74z" />
    <glyph glyph-name="Odieresis" unicode="&#xd6;" horiz-adv-x="762" 
d="M245 796v105h87v-105h-87zM430 796v105h87v-105h-87zM381 -9q-145 0 -234.5 98.5t-89.5 258.5t89.5 259t234.5 99t234.5 -98.5t89.5 -259.5q0 -160 -89.5 -258.5t-234.5 -98.5zM381 76q107 0 171 74t64 198q0 125 -64 199t-171 74t-171 -74t-64 -199q0 -124 64 -198
t171 -74z" />
    <glyph glyph-name="multiply" unicode="&#xd7;" horiz-adv-x="548" 
d="M120 101l-51 50l155 155l-155 155l51 50l154 -154l155 154l50 -50l-154 -155l154 -155l-50 -50l-155 154z" />
    <glyph glyph-name="Oslash" unicode="&#xd8;" horiz-adv-x="762" 
d="M595 628q110 -99 110 -280q0 -160 -89.5 -258.5t-234.5 -98.5q-92 0 -162 41l-20 -32h-76l44 69q-110 100 -110 279q0 160 89.5 259t234.5 99q91 0 162 -40l20 31h76zM146 348q0 -129 68 -203l283 447q-50 29 -116 29q-107 0 -171 -74t-64 -199zM381 76q107 0 171 74
t64 198q0 129 -69 204l-282 -447q50 -29 116 -29z" />
    <glyph glyph-name="Ugrave" unicode="&#xd9;" horiz-adv-x="692" 
d="M314 760l-130 141h92l104 -141h-66zM346 -9q-125 0 -190.5 66.5t-65.5 194.5v445h89v-436q0 -95 40.5 -139t126.5 -44t126.5 45t40.5 140v434h89v-440q0 -130 -65.5 -198t-190.5 -68z" />
    <glyph glyph-name="Uacute" unicode="&#xda;" horiz-adv-x="692" 
d="M315 760l109 141h92l-137 -141h-64zM346 -9q-125 0 -190.5 66.5t-65.5 194.5v445h89v-436q0 -95 40.5 -139t126.5 -44t126.5 45t40.5 140v434h89v-440q0 -130 -65.5 -198t-190.5 -68z" />
    <glyph glyph-name="Ucircumflex" unicode="&#xdb;" horiz-adv-x="692" 
d="M196 750l151 164l151 -164h-69l-82 89l-82 -89h-69zM346 -9q-125 0 -190.5 66.5t-65.5 194.5v445h89v-436q0 -95 40.5 -139t126.5 -44t126.5 45t40.5 140v434h89v-440q0 -130 -65.5 -198t-190.5 -68z" />
    <glyph glyph-name="Udieresis" unicode="&#xdc;" horiz-adv-x="692" 
d="M210 796v105h87v-105h-87zM395 796v105h87v-105h-87zM346 -9q-125 0 -190.5 66.5t-65.5 194.5v445h89v-436q0 -95 40.5 -139t126.5 -44t126.5 45t40.5 140v434h89v-440q0 -130 -65.5 -198t-190.5 -68z" />
    <glyph glyph-name="Yacute" unicode="&#xdd;" horiz-adv-x="658" 
d="M298 760l109 141h92l-137 -141h-64zM285 0v269l-266 428h105l204 -342l205 342h106l-265 -428v-269h-89z" />
    <glyph glyph-name="Thorn" unicode="&#xde;" horiz-adv-x="579" 
d="M105 0v697h82v-99h135q102 0 159.5 -51.5t57.5 -142.5q0 -95 -62 -148.5t-173 -53.5h-117v-202h-82zM187 277h117q153 0 153 124q0 61 -39.5 94t-113.5 33h-117v-251z" />
    <glyph glyph-name="germandbls" unicode="&#xdf;" horiz-adv-x="635" 
d="M427 -9q-72 0 -127.5 38t-74.5 95l69 31q15 -39 47 -65.5t82 -26.5q49 0 75.5 22.5t26.5 55.5q0 32 -28 50t-68 28t-80 22t-68 42t-28 79q0 44 21 72.5t51.5 41t61 21.5t51.5 23t21 37q0 31 -38 50.5t-92 19.5q-43 0 -74 -13t-46.5 -30.5t-24 -46t-10 -47t-1.5 -46.5
v-444h-89v444q0 263 242 263q97 0 157 -39.5t60 -105.5q0 -41 -21 -69t-51.5 -41t-61 -23.5t-51.5 -26t-21 -38.5q0 -27 28 -42.5t68 -24.5t80 -22t68 -45t28 -84q0 -75 -52.5 -115t-129.5 -40z" />
    <glyph glyph-name="agrave" unicode="&#xe0;" horiz-adv-x="533" 
d="M295 556h-66l-130 141h92zM262 502q95 0 148 -51.5t53 -142.5v-308h-79l-6 74q-55 -83 -168 -83q-80 0 -126.5 42t-46.5 113q0 80 63 115q51 27 168 27h109v20q0 57 -30.5 87.5t-86.5 30.5q-85 0 -144 -79l-62 52q81 103 208 103zM230 63q65 0 106 42.5t41 110.5v5h-99
q-101 0 -130 -22q-25 -20 -25 -57q0 -36 29 -57.5t78 -21.5z" />
    <glyph glyph-name="aacute" unicode="&#xe1;" horiz-adv-x="533" 
d="M431 697l-137 -141h-64l109 141h92zM262 502q95 0 148 -51.5t53 -142.5v-308h-79l-6 74q-55 -83 -168 -83q-80 0 -126.5 42t-46.5 113q0 80 63 115q51 27 168 27h109v20q0 57 -30.5 87.5t-86.5 30.5q-85 0 -144 -79l-62 52q81 103 208 103zM230 63q65 0 106 42.5
t41 110.5v5h-99q-101 0 -130 -22q-25 -20 -25 -57q0 -36 29 -57.5t78 -21.5z" />
    <glyph glyph-name="acircumflex" unicode="&#xe2;" horiz-adv-x="533" 
d="M262 635l-82 -89h-69l151 164l151 -164h-69zM262 502q95 0 148 -51.5t53 -142.5v-308h-79l-6 74q-55 -83 -168 -83q-80 0 -126.5 42t-46.5 113q0 80 63 115q51 27 168 27h109v20q0 57 -30.5 87.5t-86.5 30.5q-85 0 -144 -79l-62 52q81 103 208 103zM230 63q65 0 106 42.5
t41 110.5v5h-99q-101 0 -130 -22q-25 -20 -25 -57q0 -36 29 -57.5t78 -21.5z" />
    <glyph glyph-name="atilde" unicode="&#xe3;" horiz-adv-x="533" 
d="M194 647q-20 0 -32 -20t-12 -55h-50q0 61 26 95t71 34q25 0 45 -12.5t30.5 -28t25.5 -28t31 -12.5q18 0 29.5 21t11.5 56h52q0 -62 -25.5 -97t-67.5 -35q-28 0 -49 13t-31.5 28t-24.5 28t-30 13zM262 502q95 0 148 -51.5t53 -142.5v-308h-79l-6 74q-55 -83 -168 -83
q-80 0 -126.5 42t-46.5 113q0 80 63 115q51 27 168 27h109v20q0 57 -30.5 87.5t-86.5 30.5q-85 0 -144 -79l-62 52q81 103 208 103zM230 63q65 0 106 42.5t41 110.5v5h-99q-101 0 -130 -22q-25 -20 -25 -57q0 -36 29 -57.5t78 -21.5z" />
    <glyph glyph-name="adieresis" unicode="&#xe4;" horiz-adv-x="533" 
d="M213 697v-105h-87v105h87zM398 697v-105h-87v105h87zM262 502q95 0 148 -51.5t53 -142.5v-308h-79l-6 74q-55 -83 -168 -83q-80 0 -126.5 42t-46.5 113q0 80 63 115q51 27 168 27h109v20q0 57 -30.5 87.5t-86.5 30.5q-85 0 -144 -79l-62 52q81 103 208 103zM230 63
q65 0 106 42.5t41 110.5v5h-99q-101 0 -130 -22q-25 -20 -25 -57q0 -36 29 -57.5t78 -21.5z" />
    <glyph glyph-name="aring" unicode="&#xe5;" horiz-adv-x="533" 
d="M262 535q-43 0 -73 30.5t-30 72.5q0 43 30 72.5t73 29.5q42 0 72 -30t30 -72q0 -43 -29.5 -73t-72.5 -30zM262 693q-24 0 -39.5 -16t-15.5 -39t15.5 -39t39.5 -16q23 0 39 16t16 39q0 24 -15.5 39.5t-39.5 15.5zM262 502q95 0 148 -51.5t53 -142.5v-308h-79l-6 74
q-55 -83 -168 -83q-80 0 -126.5 42t-46.5 113q0 80 63 115q51 27 168 27h109v20q0 57 -30.5 87.5t-86.5 30.5q-85 0 -144 -79l-62 52q81 103 208 103zM230 63q65 0 106 42.5t41 110.5v5h-99q-101 0 -130 -22q-25 -20 -25 -57q0 -36 29 -57.5t78 -21.5z" />
    <glyph glyph-name="ae" unicode="&#xe6;" horiz-adv-x="849" 
d="M214 -9q-84 0 -131 42.5t-47 110.5q0 144 224 144h118v20q0 57 -30.5 87.5t-85.5 30.5q-88 0 -145 -79l-63 52q81 103 213 103q63 0 106.5 -26t59.5 -74q56 96 165 96q106 0 157 -64.5t51 -162.5q0 -27 -3 -50h-345q8 -150 139 -150q79 0 134 58l60 -53q-79 -82 -194 -82
q-141 0 -188 116h-10q-59 -119 -185 -119zM457 284h269q0 23 -8 49q-11 39 -42.5 66t-82.5 27q-62 0 -98 -41t-38 -101zM224 65q63 0 104.5 39.5t49.5 111.5v9h-113q-141 0 -141 -82q0 -36 26.5 -57t73.5 -21z" />
    <glyph glyph-name="ccedilla" unicode="&#xe7;" horiz-adv-x="503" 
d="M270 67q44 0 75.5 25t44.5 69l79 -30q-25 -67 -77 -103.5t-121 -36.5l-33 -50q35 -6 59 -17q50 -23 50 -77q0 -45 -30 -74t-77 -29q-52 0 -88 42l30 41q24 -32 61 -32q24 0 38 13.5t14 36.5q0 41 -54 54q-24 6 -72 6l53 91q-85 17 -132.5 86.5t-47.5 162.5q0 105 60 181
t168 76q146 0 204 -139l-82 -33q-15 45 -47 70.5t-75 25.5q-69 0 -104.5 -52.5t-35.5 -128.5t35.5 -127t104.5 -51z" />
    <glyph glyph-name="egrave" unicode="&#xe8;" horiz-adv-x="528" 
d="M302 556h-66l-130 141h92zM486 265q0 -25 -3 -44h-353q2 -71 40.5 -111t106.5 -40q79 0 134 59l59 -53q-79 -85 -194 -85q-112 0 -172 72t-60 181t58.5 183.5t165.5 74.5q106 0 162 -69.5t56 -167.5zM130 290h274q-1 2 -1 10q-2 58 -38.5 94t-97.5 36q-60 0 -96.5 -40.5
t-40.5 -99.5z" />
    <glyph glyph-name="eacute" unicode="&#xe9;" horiz-adv-x="528" 
d="M438 697l-137 -141h-64l109 141h92zM486 265q0 -25 -3 -44h-353q2 -71 40.5 -111t106.5 -40q79 0 134 59l59 -53q-79 -85 -194 -85q-112 0 -172 72t-60 181t58.5 183.5t165.5 74.5q106 0 162 -69.5t56 -167.5zM130 290h274q-1 2 -1 10q-2 58 -38.5 94t-97.5 36
q-60 0 -96.5 -40.5t-40.5 -99.5z" />
    <glyph glyph-name="ecircumflex" unicode="&#xea;" horiz-adv-x="528" 
d="M269 635l-82 -89h-69l151 164l151 -164h-69zM486 265q0 -25 -3 -44h-353q2 -71 40.5 -111t106.5 -40q79 0 134 59l59 -53q-79 -85 -194 -85q-112 0 -172 72t-60 181t58.5 183.5t165.5 74.5q106 0 162 -69.5t56 -167.5zM130 290h274q-1 2 -1 10q-2 58 -38.5 94t-97.5 36
q-60 0 -96.5 -40.5t-40.5 -99.5z" />
    <glyph glyph-name="edieresis" unicode="&#xeb;" horiz-adv-x="528" 
d="M219 697v-105h-87v105h87zM404 697v-105h-87v105h87zM486 265q0 -25 -3 -44h-353q2 -71 40.5 -111t106.5 -40q79 0 134 59l59 -53q-79 -85 -194 -85q-112 0 -172 72t-60 181t58.5 183.5t165.5 74.5q106 0 162 -69.5t56 -167.5zM130 290h274q-1 2 -1 10q-2 58 -38.5 94
t-97.5 36q-60 0 -96.5 -40.5t-40.5 -99.5z" />
    <glyph glyph-name="igrave" unicode="&#xec;" horiz-adv-x="254" 
d="M94 556l-130 141h92l104 -141h-66zM84 0v493h86v-493h-86z" />
    <glyph glyph-name="iacute" unicode="&#xed;" horiz-adv-x="254" 
d="M95 556l109 141h92l-137 -141h-64zM84 0v493h86v-493h-86z" />
    <glyph glyph-name="icircumflex" unicode="&#xee;" horiz-adv-x="254" 
d="M-24 546l151 164l151 -164h-69l-82 89l-82 -89h-69zM84 0v493h86v-493h-86z" />
    <glyph glyph-name="idieresis" unicode="&#xef;" horiz-adv-x="254" 
d="M-10 592v105h87v-105h-87zM175 592v105h87v-105h-87zM84 0v493h86v-493h-86z" />
    <glyph glyph-name="eth" unicode="&#xf0;" horiz-adv-x="599" 
d="M474 611q75 -90 75 -259q0 -151 -76.5 -254.5t-212.5 -103.5q-101 0 -160.5 62t-59.5 162q0 123 78.5 203t189.5 80q96 0 153 -61q-4 92 -59 150l-160 -47l-13 43l129 39q-68 40 -170 43l6 58q156 -9 243 -78l97 29l13 -44zM459 257q6 66 -30 119.5t-111 53.5
q-91 0 -144.5 -62t-53.5 -149q0 -70 41.5 -110.5t103.5 -40.5q85 0 136.5 57t57.5 132z" />
    <glyph glyph-name="ntilde" unicode="&#xf1;" horiz-adv-x="566" 
d="M219 647q-20 0 -32 -20t-12 -55h-50q0 61 26 95t71 34q25 0 45 -12.5t30.5 -28t25.5 -28t31 -12.5q18 0 29.5 21t11.5 56h52q0 -62 -25.5 -97t-67.5 -35q-28 0 -49 13t-31.5 28t-24.5 28t-30 13zM328 502q81 0 123.5 -50t42.5 -145v-307h-86v286q0 67 -23 103.5t-80 36.5
q-135 0 -135 -213v-213h-86v493h86v-67q52 76 158 76z" />
    <glyph glyph-name="ograve" unicode="&#xf2;" horiz-adv-x="561" 
d="M247 556l-130 141h92l104 -141h-66zM280 -9q-107 0 -173 73t-66 183t66 182.5t173 72.5t174 -73t67 -182t-67 -182.5t-174 -73.5zM280 67q73 0 114 51t41 129q0 79 -40.5 129t-114.5 50q-73 0 -113 -50t-40 -129t40 -129.5t113 -50.5z" />
    <glyph glyph-name="oacute" unicode="&#xf3;" horiz-adv-x="561" 
d="M249 556l109 141h92l-137 -141h-64zM280 -9q-107 0 -173 73t-66 183t66 182.5t173 72.5t174 -73t67 -182t-67 -182.5t-174 -73.5zM280 67q73 0 114 51t41 129q0 79 -40.5 129t-114.5 50q-73 0 -113 -50t-40 -129t40 -129.5t113 -50.5z" />
    <glyph glyph-name="ocircumflex" unicode="&#xf4;" horiz-adv-x="561" 
d="M129 546l151 164l151 -164h-69l-82 89l-82 -89h-69zM280 -9q-107 0 -173 73t-66 183t66 182.5t173 72.5t174 -73t67 -182t-67 -182.5t-174 -73.5zM280 67q73 0 114 51t41 129q0 79 -40.5 129t-114.5 50q-73 0 -113 -50t-40 -129t40 -129.5t113 -50.5z" />
    <glyph glyph-name="otilde" unicode="&#xf5;" horiz-adv-x="561" 
d="M348 565q-28 0 -49 13t-31.5 28t-24.5 28t-30 13q-20 0 -32 -20t-12 -55h-50q0 61 26 95t71 34q25 0 45 -12.5t30.5 -28t25.5 -28t31 -12.5q18 0 29.5 21t11.5 56h52q0 -62 -25.5 -97t-67.5 -35zM280 -9q-107 0 -173 73t-66 183t66 182.5t173 72.5t174 -73t67 -182
t-67 -182.5t-174 -73.5zM280 67q73 0 114 51t41 129q0 79 -40.5 129t-114.5 50q-73 0 -113 -50t-40 -129t40 -129.5t113 -50.5z" />
    <glyph glyph-name="odieresis" unicode="&#xf6;" horiz-adv-x="561" 
d="M144 592v105h87v-105h-87zM329 592v105h87v-105h-87zM280 -9q-107 0 -173 73t-66 183t66 182.5t173 72.5t174 -73t67 -182t-67 -182.5t-174 -73.5zM280 67q73 0 114 51t41 129q0 79 -40.5 129t-114.5 50q-73 0 -113 -50t-40 -129t40 -129.5t113 -50.5z" />
    <glyph glyph-name="divide" unicode="&#xf7;" horiz-adv-x="502" 
d="M204 431v117h93v-117h-93zM59 275v72h383v-72h-383zM204 71v116h93v-116h-93z" />
    <glyph glyph-name="oslash" unicode="&#xf8;" horiz-adv-x="561" 
d="M436 447q85 -74 85 -200q0 -109 -67 -182.5t-174 -73.5q-61 0 -109 25l-39 -63h-66l58 94q-83 74 -83 200q0 110 66 182.5t173 72.5q59 0 109 -25l39 63h65zM127 247q0 -79 40 -130l182 294q-30 15 -69 15q-73 0 -113 -50t-40 -129zM280 67q73 0 114 51t41 129
q0 81 -42 131l-182 -296q30 -15 69 -15z" />
    <glyph glyph-name="ugrave" unicode="&#xf9;" horiz-adv-x="566" 
d="M309 556h-66l-130 141h92zM396 493h86v-493h-86v67q-51 -76 -158 -76q-84 0 -125 53.5t-41 144.5v304h86v-283q0 -29 3 -50t12.5 -44.5t31.5 -36t55 -12.5q72 0 104 58.5t32 153.5v214z" />
    <glyph glyph-name="uacute" unicode="&#xfa;" horiz-adv-x="566" 
d="M446 697l-137 -141h-64l109 141h92zM396 493h86v-493h-86v67q-51 -76 -158 -76q-84 0 -125 53.5t-41 144.5v304h86v-283q0 -29 3 -50t12.5 -44.5t31.5 -36t55 -12.5q72 0 104 58.5t32 153.5v214z" />
    <glyph glyph-name="ucircumflex" unicode="&#xfb;" horiz-adv-x="566" 
d="M276 635l-82 -89h-69l151 164l151 -164h-69zM396 493h86v-493h-86v67q-51 -76 -158 -76q-84 0 -125 53.5t-41 144.5v304h86v-283q0 -29 3 -50t12.5 -44.5t31.5 -36t55 -12.5q72 0 104 58.5t32 153.5v214z" />
    <glyph glyph-name="udieresis" unicode="&#xfc;" horiz-adv-x="566" 
d="M227 697v-105h-87v105h87zM412 697v-105h-87v105h87zM396 493h86v-493h-86v67q-51 -76 -158 -76q-84 0 -125 53.5t-41 144.5v304h86v-283q0 -29 3 -50t12.5 -44.5t31.5 -36t55 -12.5q72 0 104 58.5t32 153.5v214z" />
    <glyph glyph-name="yacute" unicode="&#xfd;" horiz-adv-x="508" 
d="M223 556l109 141h92l-137 -141h-64zM130 -204l84 212l-204 485h95l155 -385l141 385h95l-273 -697h-93z" />
    <glyph glyph-name="thorn" unicode="&#xfe;" horiz-adv-x="588" 
d="M327 502q101 0 158 -69.5t57 -185.5t-57 -186t-158 -70q-103 0 -156 71v-266h-86v901h86v-265q52 70 156 70zM310 67q71 0 108.5 48.5t37.5 131.5q0 84 -38 132t-107 48q-70 0 -109 -49t-39 -131q0 -80 38 -130t109 -50z" />
    <glyph glyph-name="ydieresis" unicode="&#xff;" horiz-adv-x="508" 
d="M118 592v105h87v-105h-87zM303 592v105h87v-105h-87zM130 -204l84 212l-204 485h95l155 -385l141 385h95l-273 -697h-93z" />
    <glyph glyph-name="Amacron" unicode="&#x100;" horiz-adv-x="654" 
d="M463 843v-51h-272v51h272zM531 0l-62 173h-284l-62 -173h-98l267 697h70l267 -697h-98zM214 252h226l-113 316z" />
    <glyph glyph-name="amacron" unicode="&#x101;" horiz-adv-x="533" 
d="M397 639v-51h-272v51h272zM262 502q95 0 148 -51.5t53 -142.5v-308h-79l-6 74q-55 -83 -168 -83q-80 0 -126.5 42t-46.5 113q0 80 63 115q51 27 168 27h109v20q0 57 -30.5 87.5t-86.5 30.5q-85 0 -144 -79l-62 52q81 103 208 103zM230 63q65 0 106 42.5t41 110.5v5h-99
q-101 0 -130 -22q-25 -20 -25 -57q0 -36 29 -57.5t78 -21.5z" />
    <glyph glyph-name="Abreve" unicode="&#x102;" horiz-adv-x="654" 
d="M327 769q-153 0 -153 132h62q0 -39 24.5 -59.5t66.5 -20.5q43 0 67 20.5t24 59.5h62q0 -132 -153 -132zM531 0l-62 173h-284l-62 -173h-98l267 697h70l267 -697h-98zM214 252h226l-113 316z" />
    <glyph glyph-name="abreve" unicode="&#x103;" horiz-adv-x="533" 
d="M262 565q-153 0 -153 132h62q0 -39 24.5 -59.5t66.5 -20.5q43 0 67 20.5t24 59.5h62q0 -132 -153 -132zM262 502q95 0 148 -51.5t53 -142.5v-308h-79l-6 74q-55 -83 -168 -83q-80 0 -126.5 42t-46.5 113q0 80 63 115q51 27 168 27h109v20q0 57 -30.5 87.5t-86.5 30.5
q-85 0 -144 -79l-62 52q81 103 208 103zM230 63q65 0 106 42.5t41 110.5v5h-99q-101 0 -130 -22q-25 -20 -25 -57q0 -36 29 -57.5t78 -21.5z" />
    <glyph glyph-name="Aogonek" unicode="&#x104;" horiz-adv-x="654" 
d="M628 -135l43 -32q-41 -50 -98 -50q-43 0 -70.5 24.5t-27.5 65.5q0 40 25 73t59 54h-28l-62 173h-284l-62 -173h-98l267 697h70l267 -697q-18 -10 -28.5 -17t-31 -23t-31.5 -36.5t-11 -42.5q0 -43 43 -43q31 0 58 27zM214 252h226l-113 316z" />
    <glyph glyph-name="aogonek" unicode="&#x105;" horiz-adv-x="533" 
d="M462 -135l43 -32q-41 -50 -98 -50q-43 0 -70.5 24.5t-27.5 65.5q0 40 25 73t59 54h-9l-6 74q-55 -83 -168 -83q-80 0 -126.5 42t-46.5 113q0 80 63 115q51 27 168 27h109v20q0 57 -30.5 87.5t-86.5 30.5q-85 0 -144 -79l-62 52q81 103 208 103q95 0 148 -51.5t53 -142.5
v-308q-18 -10 -28.5 -17t-31 -23t-31.5 -36.5t-11 -42.5q0 -43 43 -43q31 0 58 27zM230 63q65 0 106 42.5t41 110.5v5h-99q-101 0 -130 -22q-25 -20 -25 -57q0 -36 29 -57.5t78 -21.5z" />
    <glyph glyph-name="Cacute" unicode="&#x106;" horiz-adv-x="722" 
d="M357 760l109 141h92l-137 -141h-64zM382 -9q-151 0 -237.5 96t-86.5 263q0 165 87.5 260.5t239.5 95.5q219 0 295 -192l-83 -32q-52 139 -212 139q-113 0 -175.5 -71t-62.5 -200q0 -130 61.5 -202t173.5 -72q160 0 215 142l85 -31q-39 -95 -116 -145.5t-184 -50.5z" />
    <glyph glyph-name="cacute" unicode="&#x107;" horiz-adv-x="503" 
d="M220 556l109 141h92l-137 -141h-64zM271 -9q-107 0 -168 73.5t-61 180.5q0 105 60 181t168 76q146 0 204 -139l-82 -33q-15 45 -47 70.5t-75 25.5q-69 0 -104.5 -52.5t-35.5 -128.5t35.5 -127t104.5 -51q44 0 75.5 25t44.5 69l79 -30q-25 -67 -77 -103.5t-121 -36.5z" />
    <glyph glyph-name="Cdotaccent" unicode="&#x10a;" horiz-adv-x="722" 
d="M341 796v105h96v-105h-96zM382 -9q-151 0 -237.5 96t-86.5 263q0 165 87.5 260.5t239.5 95.5q219 0 295 -192l-83 -32q-52 139 -212 139q-113 0 -175.5 -71t-62.5 -200q0 -130 61.5 -202t173.5 -72q160 0 215 142l85 -31q-39 -95 -116 -145.5t-184 -50.5z" />
    <glyph glyph-name="cdotaccent" unicode="&#x10b;" horiz-adv-x="503" 
d="M204 592v105h96v-105h-96zM271 -9q-107 0 -168 73.5t-61 180.5q0 105 60 181t168 76q146 0 204 -139l-82 -33q-15 45 -47 70.5t-75 25.5q-69 0 -104.5 -52.5t-35.5 -128.5t35.5 -127t104.5 -51q44 0 75.5 25t44.5 69l79 -30q-25 -67 -77 -103.5t-121 -36.5z" />
    <glyph glyph-name="Ccaron" unicode="&#x10c;" horiz-adv-x="722" 
d="M389 744l-151 157h69l82 -86l82 86h69zM382 -9q-151 0 -237.5 96t-86.5 263q0 165 87.5 260.5t239.5 95.5q219 0 295 -192l-83 -32q-52 139 -212 139q-113 0 -175.5 -71t-62.5 -200q0 -130 61.5 -202t173.5 -72q160 0 215 142l85 -31q-39 -95 -116 -145.5t-184 -50.5z
" />
    <glyph glyph-name="ccaron" unicode="&#x10d;" horiz-adv-x="503" 
d="M252 540l-151 157h69l82 -86l82 86h69zM271 -9q-107 0 -168 73.5t-61 180.5q0 105 60 181t168 76q146 0 204 -139l-82 -33q-15 45 -47 70.5t-75 25.5q-69 0 -104.5 -52.5t-35.5 -128.5t35.5 -127t104.5 -51q44 0 75.5 25t44.5 69l79 -30q-25 -67 -77 -103.5t-121 -36.5z
" />
    <glyph glyph-name="Dcaron" unicode="&#x10e;" horiz-adv-x="714" 
d="M358 744l-151 157h69l82 -86l82 86h69zM105 0v697h194q171 0 264.5 -92.5t93.5 -261.5q0 -166 -92.5 -254.5t-266.5 -88.5h-193zM194 82h96q141 0 209 65t68 200q0 268 -270 268h-103v-533z" />
    <glyph glyph-name="dcaron" unicode="&#x10f;" horiz-adv-x="587" 
d="M417 431v266h86v-697h-86v61q-53 -70 -156 -70t-159.5 71t-56.5 185q0 117 58.5 186t157.5 69q102 0 156 -71zM598 697h90l-96 -213h-51zM277 69q71 0 109 49t38 129q0 81 -38.5 129.5t-108.5 48.5q-69 0 -107.5 -48t-38.5 -130q0 -81 37.5 -129.5t108.5 -48.5z" />
    <glyph glyph-name="Dcroat" unicode="&#x110;" horiz-adv-x="714" 
d="M299 697q171 0 264.5 -92.5t93.5 -261.5q0 -166 -92.5 -254.5t-266.5 -88.5h-193v320h-75v58h75v319h194zM290 82q141 0 209 65t68 200q0 268 -270 268h-103v-237h124v-58h-124v-238h96z" />
    <glyph glyph-name="dcroat" unicode="&#x111;" horiz-adv-x="587" 
d="M562 637v-58h-59v-579h-86v61q-53 -70 -156 -70t-159.5 71t-56.5 185q0 117 58.5 186t157.5 69q102 0 156 -71v148h-143v58h143v60h86v-60h59zM277 69q71 0 109 49t38 129q0 81 -38.5 129.5t-108.5 48.5q-69 0 -107.5 -48t-38.5 -130q0 -81 37.5 -129.5t108.5 -48.5z" />
    <glyph glyph-name="Emacron" unicode="&#x112;" horiz-adv-x="625" 
d="M198 792v51h272v-51h-272zM105 0v697h460v-82h-371v-218h337v-82h-337v-233h371v-82h-460z" />
    <glyph glyph-name="emacron" unicode="&#x113;" horiz-adv-x="528" 
d="M404 639v-51h-272v51h272zM486 265q0 -25 -3 -44h-353q2 -71 40.5 -111t106.5 -40q79 0 134 59l59 -53q-79 -85 -194 -85q-112 0 -172 72t-60 181t58.5 183.5t165.5 74.5q106 0 162 -69.5t56 -167.5zM130 290h274q-1 2 -1 10q-2 58 -38.5 94t-97.5 36q-60 0 -96.5 -40.5
t-40.5 -99.5z" />
    <glyph glyph-name="Edotaccent" unicode="&#x116;" horiz-adv-x="625" 
d="M287 796v105h96v-105h-96zM105 0v697h460v-82h-371v-218h337v-82h-337v-233h371v-82h-460z" />
    <glyph glyph-name="edotaccent" unicode="&#x117;" horiz-adv-x="528" 
d="M317 697v-105h-96v105h96zM486 265q0 -25 -3 -44h-353q2 -71 40.5 -111t106.5 -40q79 0 134 59l59 -53q-79 -85 -194 -85q-112 0 -172 72t-60 181t58.5 183.5t165.5 74.5q106 0 162 -69.5t56 -167.5zM130 290h274q-1 2 -1 10q-2 58 -38.5 94t-97.5 36q-60 0 -96.5 -40.5
t-40.5 -99.5z" />
    <glyph glyph-name="Eogonek" unicode="&#x118;" horiz-adv-x="625" 
d="M564 -135l43 -32q-41 -50 -98 -50q-43 0 -70.5 24.5t-27.5 65.5q0 40 25 73t59 54h-390v697h460v-82h-371v-218h337v-82h-337v-233h371v-82q-18 -10 -28.5 -17t-31 -23t-31.5 -36.5t-11 -42.5q0 -43 43 -43q31 0 58 27z" />
    <glyph glyph-name="eogonek" unicode="&#x119;" horiz-adv-x="528" 
d="M486 265q0 -25 -3 -44h-353q2 -71 40.5 -111t106.5 -40q79 0 134 59l59 -53q-48 -51 -102 -70q-96 -54 -96 -116q0 -43 43 -43q31 0 58 27l43 -32q-41 -50 -98 -50q-43 0 -70.5 24.5t-27.5 65.5q0 61 59 109h-3q-112 0 -172 72t-60 181t58.5 183.5t165.5 74.5
q106 0 162 -69.5t56 -167.5zM130 290h274q-1 2 -1 10q-2 58 -38.5 94t-97.5 36q-60 0 -96.5 -40.5t-40.5 -99.5z" />
    <glyph glyph-name="Ecaron" unicode="&#x11a;" horiz-adv-x="625" 
d="M335 744l-151 157h69l82 -86l82 86h69zM105 0v697h460v-82h-371v-218h337v-82h-337v-233h371v-82h-460z" />
    <glyph glyph-name="ecaron" unicode="&#x11b;" horiz-adv-x="528" 
d="M420 697l-151 -157l-151 157h69l82 -86l82 86h69zM486 265q0 -25 -3 -44h-353q2 -71 40.5 -111t106.5 -40q79 0 134 59l59 -53q-79 -85 -194 -85q-112 0 -172 72t-60 181t58.5 183.5t165.5 74.5q106 0 162 -69.5t56 -167.5zM130 290h274q-1 2 -1 10q-2 58 -38.5 94
t-97.5 36q-60 0 -96.5 -40.5t-40.5 -99.5z" />
    <glyph glyph-name="Gbreve" unicode="&#x11e;" horiz-adv-x="762" 
d="M382 769q-153 0 -153 132h62q0 -39 24.5 -59.5t66.5 -20.5q43 0 67 20.5t24 59.5h62q0 -132 -153 -132zM432 366h250v-366h-68l-12 96q-29 -50 -87.5 -77.5t-134.5 -27.5q-148 0 -235 100t-87 259q0 158 86.5 257t241.5 99q107 0 182 -50t111 -142l-82 -32
q-53 139 -212 139q-115 0 -176.5 -72t-61.5 -197t61 -200.5t178 -75.5q94 0 152 49.5t58 145.5v18h-164v77z" />
    <glyph glyph-name="gbreve" unicode="&#x11f;" horiz-adv-x="519" 
d="M259 565q-153 0 -153 132h62q0 -39 24.5 -59.5t66.5 -20.5q43 0 67 20.5t24 59.5h62q0 -132 -153 -132zM134 132q0 -26 25.5 -41t64 -19.5t83 -13t83 -19.5t64 -39.5t25.5 -72.5q0 -70 -58.5 -105t-157.5 -35q-106 0 -165 40t-59 114q0 10 2 22l78 59q-63 31 -63 97
q0 59 51 96q-42 47 -42 112q0 76 56 125.5t137 49.5q68 0 121 -37l70 60l45 -55l-68 -56q25 -41 25 -91q0 -76 -55 -124t-136 -48q-56 0 -99 23q-27 -15 -27 -42zM259 430q-47 0 -77.5 -29.5t-30.5 -75.5q0 -45 29 -74.5t79 -29.5q49 0 77.5 29.5t28.5 74.5q0 47 -29 76
t-77 29zM267 -144q126 0 126 63q0 19 -11.5 31.5t-35.5 19.5t-46.5 11.5t-58 9.5t-57.5 10l-59 -57q-1 -4 -1 -8q0 -80 143 -80z" />
    <glyph glyph-name="Gdotaccent" unicode="&#x120;" horiz-adv-x="762" 
d="M430 901v-105h-96v105h96zM432 366h250v-366h-68l-12 96q-29 -50 -87.5 -77.5t-134.5 -27.5q-148 0 -235 100t-87 259q0 158 86.5 257t241.5 99q107 0 182 -50t111 -142l-82 -32q-53 139 -212 139q-115 0 -176.5 -72t-61.5 -197t61 -200.5t178 -75.5q94 0 152 49.5
t58 145.5v18h-164v77z" />
    <glyph glyph-name="gdotaccent" unicode="&#x121;" horiz-adv-x="519" 
d="M307 697v-105h-96v105h96zM134 132q0 -26 25.5 -41t64 -19.5t83 -13t83 -19.5t64 -39.5t25.5 -72.5q0 -70 -58.5 -105t-157.5 -35q-106 0 -165 40t-59 114q0 10 2 22l78 59q-63 31 -63 97q0 59 51 96q-42 47 -42 112q0 76 56 125.5t137 49.5q68 0 121 -37l70 60l45 -55
l-68 -56q25 -41 25 -91q0 -76 -55 -124t-136 -48q-56 0 -99 23q-27 -15 -27 -42zM259 430q-47 0 -77.5 -29.5t-30.5 -75.5q0 -45 29 -74.5t79 -29.5q49 0 77.5 29.5t28.5 74.5q0 47 -29 76t-77 29zM267 -144q126 0 126 63q0 19 -11.5 31.5t-35.5 19.5t-46.5 11.5t-58 9.5
t-57.5 10l-59 -57q-1 -4 -1 -8q0 -80 143 -80z" />
    <glyph glyph-name="uni0122" unicode="&#x122;" horiz-adv-x="762" 
d="M432 366h250v-366h-68l-12 96q-29 -50 -87.5 -77.5t-134.5 -27.5q-148 0 -235 100t-87 259q0 158 86.5 257t241.5 99q107 0 182 -50t111 -142l-82 -32q-53 139 -212 139q-115 0 -176.5 -72t-61.5 -197t61 -200.5t178 -75.5q94 0 152 49.5t58 145.5v18h-164v77zM255 -223
l81 168h91l-119 -168h-53z" />
    <glyph glyph-name="uni0123" unicode="&#x123;" horiz-adv-x="519" 
d="M344 704l-81 -150h-91l119 150h53zM134 132q0 -26 25.5 -41t64 -19.5t83 -13t83 -19.5t64 -39.5t25.5 -72.5q0 -70 -58.5 -105t-157.5 -35q-106 0 -165 40t-59 114q0 10 2 22l78 59q-63 31 -63 97q0 59 51 96q-42 47 -42 112q0 76 56 125.5t137 49.5q68 0 121 -37l70 60
l45 -55l-68 -56q25 -41 25 -91q0 -76 -55 -124t-136 -48q-56 0 -99 23q-27 -15 -27 -42zM259 430q-47 0 -77.5 -29.5t-30.5 -75.5q0 -45 29 -74.5t79 -29.5q49 0 77.5 29.5t28.5 74.5q0 47 -29 76t-77 29zM267 -144q126 0 126 63q0 19 -11.5 31.5t-35.5 19.5t-46.5 11.5
t-58 9.5t-57.5 10l-59 -57q-1 -4 -1 -8q0 -80 143 -80z" />
    <glyph glyph-name="Hbar" unicode="&#x126;" horiz-adv-x="732" 
d="M687 573v-52h-60v-521h-90v315h-343v-315h-89v521h-60v52h60v124h89v-124h343v124h90v-124h60zM537 398v123h-343v-123h343z" />
    <glyph glyph-name="hbar" unicode="&#x127;" horiz-adv-x="566" 
d="M329 502q80 0 122.5 -50t42.5 -145v-307h-86v286q0 72 -25 106t-77 34q-136 0 -136 -209v-217h-86v579h-44v58h44v60h86v-60h158v-58h-158v-153q52 76 159 76z" />
    <glyph glyph-name="Itilde" unicode="&#x128;" horiz-adv-x="300" 
d="M218 769q-28 0 -49 13t-31.5 28t-24.5 28t-30 13q-20 0 -32 -20t-12 -55h-50q0 61 26 95t71 34q25 0 45 -12.5t30.5 -28t25.5 -28t31 -12.5q18 0 29.5 21t11.5 56h52q0 -62 -25.5 -97t-67.5 -35zM105 0v697h89v-697h-89z" />
    <glyph glyph-name="itilde" unicode="&#x129;" horiz-adv-x="254" 
d="M194 565q-28 0 -49 13t-31.5 28t-24.5 28t-30 13q-20 0 -32 -20t-12 -55h-50q0 61 26 95t71 34q25 0 45 -12.5t30.5 -28t25.5 -28t31 -12.5q18 0 29.5 21t11.5 56h52q0 -62 -25.5 -97t-67.5 -35zM84 0v493h86v-493h-86z" />
    <glyph glyph-name="Imacron" unicode="&#x12a;" horiz-adv-x="300" 
d="M14 792v51h272v-51h-272zM105 0v697h89v-697h-89z" />
    <glyph glyph-name="imacron" unicode="&#x12b;" horiz-adv-x="254" 
d="M-10 588v51h272v-51h-272zM84 0v493h86v-493h-86z" />
    <glyph glyph-name="Iogonek" unicode="&#x12e;" horiz-adv-x="300" 
d="M193 -135l43 -32q-41 -50 -98 -50q-43 0 -70.5 24.5t-27.5 65.5q0 40 25 73t59 54h-19v697h89v-697q-18 -10 -28.5 -17t-31 -23t-31.5 -36.5t-11 -42.5q0 -43 43 -43q31 0 58 27z" />
    <glyph glyph-name="iogonek" unicode="&#x12f;" horiz-adv-x="254" 
d="M175 697v-105h-96v105h96zM169 -135l43 -32q-41 -50 -98 -50q-43 0 -70.5 24.5t-27.5 65.5q0 40 25 73t59 54h-16v493h86v-493q-18 -10 -28.5 -17t-31 -23t-31.5 -36.5t-11 -42.5q0 -43 43 -43q31 0 58 27z" />
    <glyph glyph-name="Idotaccent" unicode="&#x130;" horiz-adv-x="300" 
d="M102 796v105h96v-105h-96zM105 0v697h89v-697h-89z" />
    <glyph glyph-name="dotlessi" unicode="&#x131;" horiz-adv-x="254" 
d="M84 0v493h86v-493h-86z" />
    <glyph glyph-name="uni0136" unicode="&#x136;" horiz-adv-x="709" 
d="M418 439l264 -439h-103l-222 378l-163 -167v-211h-89v697h89v-373l359 373h117zM228 -223l81 168h91l-119 -168h-53z" />
    <glyph glyph-name="uni0137" unicode="&#x137;" horiz-adv-x="546" 
d="M84 0v697h86v-445l225 241h115l-180 -187l206 -306h-102l-163 253l-101 -108v-145h-86zM175 -223l81 168h91l-119 -168h-53z" />
    <glyph glyph-name="kgreenlandic" unicode="&#x138;" horiz-adv-x="546" 
d="M84 0v493h86v-244l228 244h112l-181 -187l207 -306h-103l-162 253l-101 -108v-145h-86z" />
    <glyph glyph-name="Lacute" unicode="&#x139;" horiz-adv-x="531" 
d="M119 760l109 141h92l-137 -141h-64zM105 0v697h89v-615h312v-82h-401z" />
    <glyph glyph-name="lacute" unicode="&#x13a;" horiz-adv-x="273" 
d="M91 760l109 141h92l-137 -141h-64zM181 -9q-47 0 -74 30.5t-27 89.5v586h86v-581q0 -48 41 -48q16 0 44 8l1 -71q-40 -14 -71 -14z" />
    <glyph glyph-name="uni013B" unicode="&#x13b;" horiz-adv-x="531" 
d="M105 0v697h89v-615h312v-82h-401zM179 -223l81 168h91l-119 -168h-53z" />
    <glyph glyph-name="uni013C" unicode="&#x13c;" horiz-adv-x="273" 
d="M181 -9q-47 0 -74 30.5t-27 89.5v586h86v-581q0 -48 41 -48q16 0 44 8l1 -71q-40 -14 -71 -14zM37 -223l81 168h91l-119 -168h-53z" />
    <glyph glyph-name="Lcaron" unicode="&#x13d;" horiz-adv-x="531" 
d="M105 0v697h89v-615h312v-82h-401zM338 484l57 213h90l-96 -213h-51z" />
    <glyph glyph-name="lcaron" unicode="&#x13e;" horiz-adv-x="273" 
d="M181 -9q-47 0 -74 30.5t-27 89.5v586h86v-581q0 -48 41 -48q16 0 44 8l1 -71q-40 -14 -71 -14zM211 484l57 213h90l-96 -213h-51z" />
    <glyph glyph-name="Lslash" unicode="&#x141;" horiz-adv-x="531" 
d="M194 82h312v-82h-401v235l-55 -44v89l55 43v374h89v-303l150 118v-88l-150 -119v-223z" />
    <glyph glyph-name="lslash" unicode="&#x142;" horiz-adv-x="273" 
d="M251 76l1 -71q-40 -14 -71 -14q-47 0 -74 30.5t-27 89.5v175l-59 -47v89l59 47v322h86v-255l78 62v-87l-78 -62v-239q0 -48 41 -48q16 0 44 8z" />
    <glyph glyph-name="Nacute" unicode="&#x143;" horiz-adv-x="721" 
d="M530 901l-137 -141h-64l109 141h92zM527 697h89v-697h-96l-326 545v-545h-89v697h95l327 -543v543z" />
    <glyph glyph-name="nacute" unicode="&#x144;" horiz-adv-x="566" 
d="M456 697l-137 -141h-64l109 141h92zM328 502q81 0 123.5 -50t42.5 -145v-307h-86v286q0 67 -23 103.5t-80 36.5q-135 0 -135 -213v-213h-86v493h86v-67q52 76 158 76z" />
    <glyph glyph-name="uni0145" unicode="&#x145;" horiz-adv-x="721" 
d="M527 697h89v-697h-96l-326 545v-545h-89v697h95l327 -543v543zM234 -223l81 168h91l-119 -168h-53z" />
    <glyph glyph-name="uni0146" unicode="&#x146;" horiz-adv-x="566" 
d="M328 502q81 0 123.5 -50t42.5 -145v-307h-86v286q0 67 -23 103.5t-80 36.5q-135 0 -135 -213v-213h-86v493h86v-67q52 76 158 76zM160 -223l81 168h91l-119 -168h-53z" />
    <glyph glyph-name="Ncaron" unicode="&#x147;" horiz-adv-x="721" 
d="M512 901l-151 -157l-151 157h69l82 -86l82 86h69zM527 697h89v-697h-96l-326 545v-545h-89v697h95l327 -543v543z" />
    <glyph glyph-name="ncaron" unicode="&#x148;" horiz-adv-x="566" 
d="M438 697l-151 -157l-151 157h69l82 -86l82 86h69zM328 502q81 0 123.5 -50t42.5 -145v-307h-86v286q0 67 -23 103.5t-80 36.5q-135 0 -135 -213v-213h-86v493h86v-67q52 76 158 76z" />
    <glyph glyph-name="napostrophe" unicode="&#x149;" horiz-adv-x="679" 
d="M103 697h99l-130 -282h-58zM445 502q81 0 123.5 -50t42.5 -145v-307h-86v286q0 67 -23 103.5t-80 36.5q-135 0 -135 -213v-213h-86v493h86v-67q52 76 158 76z" />
    <glyph glyph-name="Eng" unicode="&#x14a;" horiz-adv-x="721" 
d="M527 697h89v-706q0 -73 -37.5 -119.5t-117.5 -46.5q-36 0 -70 10l1 57q28 -7 47 -7q46 0 69 22.5t23 55.5q0 20 -11 37l-326 542v-542h-89v697h95l327 -541v541z" />
    <glyph glyph-name="eng" unicode="&#x14b;" horiz-adv-x="567" 
d="M328 502q82 0 124 -51t42 -144v-402q0 -59 -26.5 -88.5t-73.5 -29.5q-33 0 -73 14l1 69q26 -7 43 -7q43 0 43 48v375q0 29 -3.5 50t-13 43.5t-31.5 34.5t-55 12q-135 0 -135 -209v-217h-86v493h86v-67q51 76 158 76z" />
    <glyph glyph-name="Omacron" unicode="&#x14c;" horiz-adv-x="762" 
d="M244 792v51h272v-51h-272zM381 -9q-145 0 -234.5 98.5t-89.5 258.5t89.5 259t234.5 99t234.5 -98.5t89.5 -259.5q0 -160 -89.5 -258.5t-234.5 -98.5zM381 76q107 0 171 74t64 198q0 125 -64 199t-171 74t-171 -74t-64 -199q0 -124 64 -198t171 -74z" />
    <glyph glyph-name="omacron" unicode="&#x14d;" horiz-adv-x="561" 
d="M144 588v51h272v-51h-272zM280 -9q-107 0 -173 73t-66 183t66 182.5t173 72.5t174 -73t67 -182t-67 -182.5t-174 -73.5zM280 67q73 0 114 51t41 129q0 79 -40.5 129t-114.5 50q-73 0 -113 -50t-40 -129t40 -129.5t113 -50.5z" />
    <glyph glyph-name="Ohungarumlaut" unicode="&#x150;" horiz-adv-x="762" 
d="M260 745l109 156h78l-123 -156h-64zM437 745l109 156h92l-136 -156h-65zM381 -9q-145 0 -234.5 98.5t-89.5 258.5t89.5 259t234.5 99t234.5 -98.5t89.5 -259.5q0 -160 -89.5 -258.5t-234.5 -98.5zM381 76q107 0 171 74t64 198q0 125 -64 199t-171 74t-171 -74t-64 -199
q0 -124 64 -198t171 -74z" />
    <glyph glyph-name="ohungarumlaut" unicode="&#x151;" horiz-adv-x="561" 
d="M159 541l109 156h78l-123 -156h-64zM336 541l109 156h92l-136 -156h-65zM280 -9q-107 0 -173 73t-66 183t66 182.5t173 72.5t174 -73t67 -182t-67 -182.5t-174 -73.5zM280 67q73 0 114 51t41 129q0 79 -40.5 129t-114.5 50q-73 0 -113 -50t-40 -129t40 -129.5t113 -50.5z
" />
    <glyph glyph-name="OE" unicode="&#x152;" horiz-adv-x="1141" 
d="M1086 615h-370v-218h336v-82h-336v-233h370v-82h-459v103q-90 -112 -246 -112q-145 0 -234.5 98.5t-89.5 258.5t89.5 259t234.5 99q156 0 246 -112v103h459v-82zM381 76q107 0 171 74t64 198q0 125 -64 199t-171 74t-171 -74t-64 -199q0 -124 64 -198t171 -74z" />
    <glyph glyph-name="oe" unicode="&#x153;" horiz-adv-x="928" 
d="M887 266q0 -33 -3 -45h-354q5 -72 42 -111.5t105 -39.5q80 0 134 59l60 -53q-81 -85 -195 -85q-132 0 -197 100q-70 -100 -196 -100q-107 0 -175 74.5t-68 181.5q0 108 68 181.5t175 73.5q127 0 197 -100q63 100 188 100q59 0 103.5 -22t68.5 -58t35.5 -75.5t11.5 -80.5z
M667 429q-58 0 -93 -37.5t-44 -101.5h272q0 17 -2 24q-7 49 -41.5 82t-91.5 33zM283 66q73 0 114 52t41 129t-41 128.5t-114 51.5q-72 0 -112.5 -51t-40.5 -129q0 -77 40.5 -129t112.5 -52z" />
    <glyph glyph-name="Racute" unicode="&#x154;" horiz-adv-x="629" 
d="M484 901l-137 -141h-64l109 141h92zM597 0h-103l-175 302h-45h-80v-302h-89v697h209q115 0 173.5 -50.5t58.5 -145.5q0 -149 -138 -187zM194 385h111q152 0 152 115t-152 115h-111v-230z" />
    <glyph glyph-name="racute" unicode="&#x155;" horiz-adv-x="403" 
d="M372 697l-137 -141h-64l109 141h92zM312 502q47 0 88 -24l-42 -72q-31 15 -64 15q-57 0 -90.5 -40t-33.5 -115v-266h-86v493h86v-77q22 44 60.5 65t81.5 21z" />
    <glyph glyph-name="uni0156" unicode="&#x156;" horiz-adv-x="629" 
d="M408 314l189 -314h-103l-175 302h-45h-80v-302h-89v697h209q115 0 173.5 -50.5t58.5 -145.5q0 -149 -138 -187zM194 385h111q152 0 152 115t-152 115h-111v-230zM188 -223l81 168h91l-119 -168h-53z" />
    <glyph glyph-name="uni0157" unicode="&#x157;" horiz-adv-x="403" 
d="M312 502q47 0 88 -24l-42 -72q-31 15 -64 15q-57 0 -90.5 -40t-33.5 -115v-266h-86v493h86v-77q22 44 60.5 65t81.5 21zM75 -223l81 168h91l-119 -168h-53z" />
    <glyph glyph-name="Rcaron" unicode="&#x158;" horiz-adv-x="629" 
d="M466 901l-151 -157l-151 157h69l82 -86l82 86h69zM597 0h-103l-175 302h-45h-80v-302h-89v697h209q115 0 173.5 -50.5t58.5 -145.5q0 -149 -138 -187zM194 385h111q152 0 152 115t-152 115h-111v-230z" />
    <glyph glyph-name="rcaron" unicode="&#x159;" horiz-adv-x="403" 
d="M353 697l-151 -157l-151 157h69l82 -86l82 86h69zM312 502q47 0 88 -24l-42 -72q-31 15 -64 15q-57 0 -90.5 -40t-33.5 -115v-266h-86v493h86v-77q22 44 60.5 65t81.5 21z" />
    <glyph glyph-name="Sacute" unicode="&#x15a;" horiz-adv-x="568" 
d="M253 760l109 141h92l-137 -141h-64zM292 -7q-99 0 -168.5 54t-83.5 143l88 21q9 -64 53.5 -101.5t111.5 -37.5q63 0 101.5 32t38.5 84q0 44 -35 75t-122 65q-107 41 -150 84.5t-43 109.5q0 83 56.5 133.5t148.5 50.5q136 0 203 -116l-75 -46q-45 82 -131 82
q-48 0 -80.5 -29t-32.5 -71q0 -39 34 -66t118 -60q112 -43 155.5 -88.5t43.5 -115.5q0 -93 -63.5 -148t-167.5 -55z" />
    <glyph glyph-name="sacute" unicode="&#x15b;" horiz-adv-x="460" 
d="M201 556l109 141h92l-137 -141h-64zM235 -9q-73 0 -128.5 36.5t-75.5 95.5l71 32q13 -39 46 -64.5t84 -25.5q47 0 73.5 21.5t26.5 54.5q0 31 -28 49t-68.5 27.5t-81 21.5t-68.5 42.5t-28 79.5q0 65 49 103t124 38q128 0 181 -105l-68 -37q-38 69 -115 69q-40 0 -64 -16
t-24 -43q0 -28 28.5 -44.5t69 -26.5t81 -23.5t69 -46t28.5 -83.5q0 -75 -53 -115t-129 -40z" />
    <glyph glyph-name="Scedilla" unicode="&#x15e;" horiz-adv-x="568" 
d="M523 196q0 -90 -59.5 -144.5t-157.5 -58.5l-35 -52q35 -6 59 -17q50 -23 50 -77q0 -45 -30 -74t-77 -29q-52 0 -88 42l30 41q24 -32 61 -32q24 0 38 13.5t14 36.5q0 41 -54 54q-24 6 -72 6l53 90q-86 10 -144 62t-71 133l88 21q9 -64 53.5 -101.5t111.5 -37.5
q63 0 101.5 32t38.5 84q0 44 -35 75t-122 65q-107 41 -150 84.5t-43 109.5q0 83 56.5 133.5t148.5 50.5q136 0 203 -116l-75 -46q-45 82 -131 82q-48 0 -80.5 -29t-32.5 -71q0 -39 34 -66t118 -60q112 -43 155.5 -88.5t43.5 -115.5z" />
    <glyph glyph-name="scedilla" unicode="&#x15f;" horiz-adv-x="460" 
d="M417 146q0 -70 -47 -110t-118 -44l-33 -51q35 -6 59 -17q50 -23 50 -77q0 -45 -30 -74t-77 -29q-52 0 -88 42l30 41q24 -32 61 -32q24 0 38 13.5t14 36.5q0 41 -54 54q-24 6 -72 6l52 88q-62 8 -108 43.5t-63 86.5l71 32q13 -39 46 -64.5t84 -25.5q47 0 73.5 21.5
t26.5 54.5q0 31 -28 49t-68.5 27.5t-81 21.5t-68.5 42.5t-28 79.5q0 65 49 103t124 38q128 0 181 -105l-68 -37q-38 69 -115 69q-40 0 -64 -16t-24 -43q0 -28 28.5 -44.5t69 -26.5t81 -23.5t69 -46t28.5 -83.5z" />
    <glyph glyph-name="Scaron" unicode="&#x160;" horiz-adv-x="568" 
d="M284 744l-151 157h69l82 -86l82 86h69zM292 -7q-99 0 -168.5 54t-83.5 143l88 21q9 -64 53.5 -101.5t111.5 -37.5q63 0 101.5 32t38.5 84q0 44 -35 75t-122 65q-107 41 -150 84.5t-43 109.5q0 83 56.5 133.5t148.5 50.5q136 0 203 -116l-75 -46q-45 82 -131 82
q-48 0 -80.5 -29t-32.5 -71q0 -39 34 -66t118 -60q112 -43 155.5 -88.5t43.5 -115.5q0 -93 -63.5 -148t-167.5 -55z" />
    <glyph glyph-name="scaron" unicode="&#x161;" horiz-adv-x="460" 
d="M233 540l-151 157h69l82 -86l82 86h69zM235 -9q-73 0 -128.5 36.5t-75.5 95.5l71 32q13 -39 46 -64.5t84 -25.5q47 0 73.5 21.5t26.5 54.5q0 31 -28 49t-68.5 27.5t-81 21.5t-68.5 42.5t-28 79.5q0 65 49 103t124 38q128 0 181 -105l-68 -37q-38 69 -115 69
q-40 0 -64 -16t-24 -43q0 -28 28.5 -44.5t69 -26.5t81 -23.5t69 -46t28.5 -83.5q0 -75 -53 -115t-129 -40z" />
    <glyph glyph-name="uni0162" unicode="&#x162;" horiz-adv-x="608" 
d="M349 0h-20l-39 -59q35 -6 59 -17q50 -23 50 -77q0 -45 -30 -74t-77 -29q-52 0 -88 42l30 41q24 -32 61 -32q24 0 38 13.5t14 36.5q0 41 -54 54q-24 6 -72 6l56 95h-18v615h-234v82h558v-82h-234v-615z" />
    <glyph glyph-name="uni0163" unicode="&#x163;" horiz-adv-x="346" 
d="M308 423h-121v-291q0 -65 62 -65q24 0 59 11v-73q-42 -14 -80 -14h-4l-33 -50q35 -6 59 -17q50 -23 50 -77q0 -45 -30 -74t-77 -29q-52 0 -88 42l30 41q24 -32 61 -32q24 0 38 13.5t14 36.5q0 41 -54 54q-24 6 -72 6l55 94q-76 25 -76 124v300h-81v70h81v130l86 65v-195
h121v-70z" />
    <glyph glyph-name="Tcaron" unicode="&#x164;" horiz-adv-x="608" 
d="M304 744l-151 157h69l82 -86l82 86h69zM259 0v615h-234v82h558v-82h-234v-615h-90z" />
    <glyph glyph-name="tcaron" unicode="&#x165;" horiz-adv-x="346" 
d="M398 784l-96 -213h-51l57 213h90zM187 688v-195h121v-70h-121v-291q0 -65 62 -65q24 0 59 11v-73q-42 -14 -80 -14q-57 0 -92 33t-35 99v300h-81v70h81v130z" />
    <glyph glyph-name="Tbar" unicode="&#x166;" horiz-adv-x="608" 
d="M583 615h-234v-237h99v-58h-99v-320h-90v320h-99v58h99v237h-234v82h558v-82z" />
    <glyph glyph-name="tbar" unicode="&#x167;" horiz-adv-x="346" 
d="M308 423h-121v-147h119v-58h-119v-86q0 -65 62 -65q24 0 59 11v-73q-42 -14 -80 -14q-57 0 -92 33t-35 99v95h-83v58h83v147h-81v70h81v130l86 65v-195h121v-70z" />
    <glyph glyph-name="Utilde" unicode="&#x168;" horiz-adv-x="692" 
d="M414 769q-28 0 -49 13t-31.5 28t-24.5 28t-30 13q-20 0 -32 -20t-12 -55h-50q0 61 26 95t71 34q25 0 45 -12.5t30.5 -28t25.5 -28t31 -12.5q18 0 29.5 21t11.5 56h52q0 -62 -25.5 -97t-67.5 -35zM346 -9q-125 0 -190.5 66.5t-65.5 194.5v445h89v-436q0 -95 40.5 -139
t126.5 -44t126.5 45t40.5 140v434h89v-440q0 -130 -65.5 -198t-190.5 -68z" />
    <glyph glyph-name="utilde" unicode="&#x169;" horiz-adv-x="566" 
d="M209 647q-20 0 -32 -20t-12 -55h-50q0 61 26 95t71 34q25 0 45 -12.5t30.5 -28t25.5 -28t31 -12.5q18 0 29.5 21t11.5 56h52q0 -62 -25.5 -97t-67.5 -35q-28 0 -49 13t-31.5 28t-24.5 28t-30 13zM396 493h86v-493h-86v67q-51 -76 -158 -76q-84 0 -125 53.5t-41 144.5v304
h86v-283q0 -29 3 -50t12.5 -44.5t31.5 -36t55 -12.5q72 0 104 58.5t32 153.5v214z" />
    <glyph glyph-name="Umacron" unicode="&#x16a;" horiz-adv-x="692" 
d="M210 792v51h272v-51h-272zM346 -9q-125 0 -190.5 66.5t-65.5 194.5v445h89v-436q0 -95 40.5 -139t126.5 -44t126.5 45t40.5 140v434h89v-440q0 -130 -65.5 -198t-190.5 -68z" />
    <glyph glyph-name="umacron" unicode="&#x16b;" horiz-adv-x="566" 
d="M412 639v-51h-272v51h272zM396 493h86v-493h-86v67q-51 -76 -158 -76q-84 0 -125 53.5t-41 144.5v304h86v-283q0 -29 3 -50t12.5 -44.5t31.5 -36t55 -12.5q72 0 104 58.5t32 153.5v214z" />
    <glyph glyph-name="Uring" unicode="&#x16e;" horiz-adv-x="692" 
d="M347 680q-43 0 -73 30.5t-30 72.5q0 43 30 72.5t73 29.5q42 0 72 -30t30 -72q0 -43 -29.5 -73t-72.5 -30zM347 728q23 0 39 16t16 39q0 24 -15.5 39.5t-39.5 15.5t-39.5 -16t-15.5 -39t15.5 -39t39.5 -16zM346 -9q-125 0 -190.5 66.5t-65.5 194.5v445h89v-436
q0 -95 40.5 -139t126.5 -44t126.5 45t40.5 140v434h89v-440q0 -130 -65.5 -198t-190.5 -68z" />
    <glyph glyph-name="uring" unicode="&#x16f;" horiz-adv-x="566" 
d="M277 535q-43 0 -73 30.5t-30 72.5q0 43 30 72.5t73 29.5q42 0 72 -30t30 -72q0 -43 -29.5 -73t-72.5 -30zM277 693q-24 0 -39.5 -16t-15.5 -39t15.5 -39t39.5 -16q23 0 39 16t16 39q0 24 -15.5 39.5t-39.5 15.5zM396 493h86v-493h-86v67q-51 -76 -158 -76
q-84 0 -125 53.5t-41 144.5v304h86v-283q0 -29 3 -50t12.5 -44.5t31.5 -36t55 -12.5q72 0 104 58.5t32 153.5v214z" />
    <glyph glyph-name="Uhungarumlaut" unicode="&#x170;" horiz-adv-x="692" 
d="M226 745l109 156h78l-123 -156h-64zM403 745l109 156h92l-136 -156h-65zM346 -9q-125 0 -190.5 66.5t-65.5 194.5v445h89v-436q0 -95 40.5 -139t126.5 -44t126.5 45t40.5 140v434h89v-440q0 -130 -65.5 -198t-190.5 -68z" />
    <glyph glyph-name="uhungarumlaut" unicode="&#x171;" horiz-adv-x="566" 
d="M342 697l-123 -156h-64l109 156h78zM397 541h-65l109 156h92zM396 279v214h86v-493h-86v67q-51 -76 -158 -76q-84 0 -125 53.5t-41 144.5v304h86v-283q0 -29 3 -50t12.5 -44.5t31.5 -36t55 -12.5q72 0 104 58.5t32 153.5z" />
    <glyph glyph-name="Uogonek" unicode="&#x172;" horiz-adv-x="692" 
d="M513 697h89v-440q0 -223 -185 -260q-97 -52 -97 -116q0 -43 43 -43q31 0 58 27l43 -32q-41 -50 -98 -50q-43 0 -70.5 24.5t-27.5 65.5q0 67 71 118q-122 2 -185.5 68.5t-63.5 192.5v445h89v-436q0 -95 40.5 -139t126.5 -44t126.5 45t40.5 140v434z" />
    <glyph glyph-name="uogonek" unicode="&#x173;" horiz-adv-x="566" 
d="M481 -135l43 -32q-41 -50 -98 -50q-43 0 -70.5 24.5t-27.5 65.5q0 40 25 73t59 54h-16v67q-51 -76 -158 -76q-84 0 -125 53.5t-41 144.5v304h86v-283q0 -29 3 -50t12.5 -44.5t31.5 -36t55 -12.5q72 0 104 58.5t32 153.5v214h86v-493q-18 -10 -28.5 -17t-31 -23
t-31.5 -36.5t-11 -42.5q0 -43 43 -43q31 0 58 27z" />
    <glyph glyph-name="Wcircumflex" unicode="&#x174;" horiz-adv-x="987" 
d="M343 750l151 164l151 -164h-69l-82 89l-82 -89h-69zM236 0l-204 697h92l161 -563l169 525h78l169 -525l160 563h94l-204 -697h-89l-168 518l-170 -518h-88z" />
    <glyph glyph-name="wcircumflex" unicode="&#x175;" horiz-adv-x="733" 
d="M215 546l151 164l151 -164h-69l-82 89l-82 -89h-69zM167 0l-147 493h92l99 -362l117 362h77l117 -362l99 362h92l-147 -493h-79l-120 373l-121 -373h-79z" />
    <glyph glyph-name="Ycircumflex" unicode="&#x176;" horiz-adv-x="658" 
d="M178 750l151 164l151 -164h-69l-82 89l-82 -89h-69zM285 0v269l-266 428h105l204 -342l205 342h106l-265 -428v-269h-89z" />
    <glyph glyph-name="ycircumflex" unicode="&#x177;" horiz-adv-x="508" 
d="M103 546l151 164l151 -164h-69l-82 89l-82 -89h-69zM130 -204l84 212l-204 485h95l155 -385l141 385h95l-273 -697h-93z" />
    <glyph glyph-name="Ydieresis" unicode="&#x178;" horiz-adv-x="658" 
d="M193 796v105h87v-105h-87zM378 796v105h87v-105h-87zM285 0v269l-266 428h105l204 -342l205 342h106l-265 -428v-269h-89z" />
    <glyph glyph-name="Zacute" unicode="&#x179;" horiz-adv-x="640" 
d="M489 901l-137 -141h-64l109 141h92zM594 697v-68l-434 -547h432v-82h-552v65l437 550h-414v82h531z" />
    <glyph glyph-name="zacute" unicode="&#x17a;" horiz-adv-x="488" 
d="M414 697l-137 -141h-64l109 141h92zM451 493v-65l-305 -355h304v-73h-419v60l313 360h-297v73h404z" />
    <glyph glyph-name="Zdotaccent" unicode="&#x17b;" horiz-adv-x="640" 
d="M368 901v-105h-96v105h96zM594 697v-68l-434 -547h432v-82h-552v65l437 550h-414v82h531z" />
    <glyph glyph-name="zdotaccent" unicode="&#x17c;" horiz-adv-x="488" 
d="M292 697v-105h-96v105h96zM451 493v-65l-305 -355h304v-73h-419v60l313 360h-297v73h404z" />
    <glyph glyph-name="Zcaron" unicode="&#x17d;" horiz-adv-x="640" 
d="M471 901l-151 -157l-151 157h69l82 -86l82 86h69zM594 697v-68l-434 -547h432v-82h-552v65l437 550h-414v82h531z" />
    <glyph glyph-name="zcaron" unicode="&#x17e;" horiz-adv-x="488" 
d="M395 697l-151 -157l-151 157h69l82 -86l82 86h69zM451 493v-65l-305 -355h304v-73h-419v60l313 360h-297v73h404z" />
    <glyph glyph-name="florin" unicode="&#x192;" horiz-adv-x="493" 
d="M54 -220v65q79 0 108.5 33.5t29.5 110.5v439h-86v65h86v63q0 68 39 111t98 43q60 0 113 -46l-46 -56q-36 30 -67 30q-28 0 -46 -21t-18 -61v-63h126v-65h-126v-446q0 -202 -211 -202z" />
    <glyph glyph-name="Ohorn" unicode="&#x1a0;" horiz-adv-x="762" 
d="M707 697h65v-45q0 -123 -93 -150q26 -69 26 -154q0 -160 -89.5 -258.5t-234.5 -98.5t-234.5 98.5t-89.5 258.5t89.5 259t234.5 99q90 0 160 -39.5t112 -110.5q54 15 54 89v52zM381 76q107 0 171 74t64 198q0 125 -64 199t-171 74t-171 -74t-64 -199q0 -124 64 -198
t171 -74z" />
    <glyph glyph-name="ohorn" unicode="&#x1a1;" horiz-adv-x="561" 
d="M535 559h65v-45q0 -129 -102 -152q23 -52 23 -115q0 -109 -67 -182.5t-174 -73.5t-173 73t-66 183t66 182.5t173 72.5q117 0 186 -87q69 7 69 92v52zM280 67q73 0 114 51t41 129q0 79 -40.5 129t-114.5 50q-73 0 -113 -50t-40 -129t40 -129.5t113 -50.5z" />
    <glyph glyph-name="Uhorn" unicode="&#x1af;" horiz-adv-x="692" 
d="M674 697h65v-45q0 -70 -33.5 -112t-103.5 -44v-239q0 -130 -65.5 -198t-190.5 -68t-190.5 66.5t-65.5 194.5v445h89v-436q0 -95 40.5 -139t126.5 -44t126.5 45t40.5 140v434h89v-144q72 5 72 92v52z" />
    <glyph glyph-name="uhorn" unicode="&#x1b0;" horiz-adv-x="566" 
d="M502 636h65v-45q0 -117 -85 -147v-444h-86v67q-51 -76 -158 -76q-84 0 -125 53.5t-41 144.5v304h86v-283q0 -29 3 -50t12.5 -44.5t31.5 -36t55 -12.5q72 0 104 58.5t32 153.5v214h42q64 9 64 91v52z" />
    <glyph glyph-name="uni01CD" unicode="&#x1cd;" horiz-adv-x="654" 
d="M478 901l-151 -157l-151 157h69l82 -86l82 86h69zM531 0l-62 173h-284l-62 -173h-98l267 697h70l267 -697h-98zM214 252h226l-113 316z" />
    <glyph glyph-name="uni01CE" unicode="&#x1ce;" horiz-adv-x="533" 
d="M413 697l-151 -157l-151 157h69l82 -86l82 86h69zM262 502q95 0 148 -51.5t53 -142.5v-308h-79l-6 74q-55 -83 -168 -83q-80 0 -126.5 42t-46.5 113q0 80 63 115q51 27 168 27h109v20q0 57 -30.5 87.5t-86.5 30.5q-85 0 -144 -79l-62 52q81 103 208 103zM230 63
q65 0 106 42.5t41 110.5v5h-99q-101 0 -130 -22q-25 -20 -25 -57q0 -36 29 -57.5t78 -21.5z" />
    <glyph glyph-name="uni01CF" unicode="&#x1cf;" horiz-adv-x="300" 
d="M150 744l-151 157h69l82 -86l82 86h69zM105 0v697h89v-697h-89z" />
    <glyph glyph-name="uni01D0" unicode="&#x1d0;" horiz-adv-x="254" 
d="M127 540l-151 157h69l82 -86l82 86h69zM84 0v493h86v-493h-86z" />
    <glyph glyph-name="uni01D1" unicode="&#x1d1;" horiz-adv-x="762" 
d="M381 744l-151 157h69l82 -86l82 86h69zM381 -9q-145 0 -234.5 98.5t-89.5 258.5t89.5 259t234.5 99t234.5 -98.5t89.5 -259.5q0 -160 -89.5 -258.5t-234.5 -98.5zM381 76q107 0 171 74t64 198q0 125 -64 199t-171 74t-171 -74t-64 -199q0 -124 64 -198t171 -74z" />
    <glyph glyph-name="uni01D2" unicode="&#x1d2;" horiz-adv-x="561" 
d="M280 540l-151 157h69l82 -86l82 86h69zM280 -9q-107 0 -173 73t-66 183t66 182.5t173 72.5t174 -73t67 -182t-67 -182.5t-174 -73.5zM280 67q73 0 114 51t41 129q0 79 -40.5 129t-114.5 50q-73 0 -113 -50t-40 -129t40 -129.5t113 -50.5z" />
    <glyph glyph-name="uni01D3" unicode="&#x1d3;" horiz-adv-x="692" 
d="M347 744l-151 157h69l82 -86l82 86h69zM346 -9q-125 0 -190.5 66.5t-65.5 194.5v445h89v-436q0 -95 40.5 -139t126.5 -44t126.5 45t40.5 140v434h89v-440q0 -130 -65.5 -198t-190.5 -68z" />
    <glyph glyph-name="uni01D4" unicode="&#x1d4;" horiz-adv-x="566" 
d="M427 697l-151 -157l-151 157h69l82 -86l82 86h69zM396 493h86v-493h-86v67q-51 -76 -158 -76q-84 0 -125 53.5t-41 144.5v304h86v-283q0 -29 3 -50t12.5 -44.5t31.5 -36t55 -12.5q72 0 104 58.5t32 153.5v214z" />
    <glyph glyph-name="uni01D5" unicode="&#x1d5;" horiz-adv-x="692" 
d="M210 996v51h272v-51h-272zM210 796v105h87v-105h-87zM395 796v105h87v-105h-87zM346 -9q-125 0 -190.5 66.5t-65.5 194.5v445h89v-436q0 -95 40.5 -139t126.5 -44t126.5 45t40.5 140v434h89v-440q0 -130 -65.5 -198t-190.5 -68z" />
    <glyph glyph-name="uni01D6" unicode="&#x1d6;" horiz-adv-x="566" 
d="M412 843v-51h-272v51h272zM227 697v-105h-87v105h87zM412 592h-87v105h87v-105zM396 493h86v-493h-86v67q-51 -76 -158 -76q-84 0 -125 53.5t-41 144.5v304h86v-283q0 -29 3 -50t12.5 -44.5t31.5 -36t55 -12.5q72 0 104 58.5t32 153.5v214z" />
    <glyph glyph-name="uni01D7" unicode="&#x1d7;" horiz-adv-x="692" 
d="M315 964l109 141h92l-137 -141h-64zM210 796v105h87v-105h-87zM395 796v105h87v-105h-87zM346 -9q-125 0 -190.5 66.5t-65.5 194.5v445h89v-436q0 -95 40.5 -139t126.5 -44t126.5 45t40.5 140v434h89v-440q0 -130 -65.5 -198t-190.5 -68z" />
    <glyph glyph-name="uni01D8" unicode="&#x1d8;" horiz-adv-x="566" 
d="M446 901l-137 -141h-64l109 141h92zM227 697v-105h-87v105h87zM412 592h-87v105h87v-105zM396 493h86v-493h-86v67q-51 -76 -158 -76q-84 0 -125 53.5t-41 144.5v304h86v-283q0 -29 3 -50t12.5 -44.5t31.5 -36t55 -12.5q72 0 104 58.5t32 153.5v214z" />
    <glyph glyph-name="uni01D9" unicode="&#x1d9;" horiz-adv-x="692" 
d="M347 948l-151 157h69l82 -86l82 86h69zM210 796v105h87v-105h-87zM395 796v105h87v-105h-87zM346 -9q-125 0 -190.5 66.5t-65.5 194.5v445h89v-436q0 -95 40.5 -139t126.5 -44t126.5 45t40.5 140v434h89v-440q0 -130 -65.5 -198t-190.5 -68z" />
    <glyph glyph-name="uni01DA" unicode="&#x1da;" horiz-adv-x="566" 
d="M427 901l-151 -157l-151 157h69l82 -86l82 86h69zM227 592h-87v105h87v-105zM412 592h-87v105h87v-105zM396 493h86v-493h-86v67q-51 -76 -158 -76q-84 0 -125 53.5t-41 144.5v304h86v-283q0 -29 3 -50t12.5 -44.5t31.5 -36t55 -12.5q72 0 104 58.5t32 153.5v214z" />
    <glyph glyph-name="uni01DB" unicode="&#x1db;" horiz-adv-x="692" 
d="M314 964l-130 141h92l104 -141h-66zM210 796v105h87v-105h-87zM395 796v105h87v-105h-87zM346 -9q-125 0 -190.5 66.5t-65.5 194.5v445h89v-436q0 -95 40.5 -139t126.5 -44t126.5 45t40.5 140v434h89v-440q0 -130 -65.5 -198t-190.5 -68z" />
    <glyph glyph-name="uni01DC" unicode="&#x1dc;" horiz-adv-x="566" 
d="M309 760h-66l-130 141h92zM227 592h-87v105h87v-105zM412 697v-105h-87v105h87zM396 493h86v-493h-86v67q-51 -76 -158 -76q-84 0 -125 53.5t-41 144.5v304h86v-283q0 -29 3 -50t12.5 -44.5t31.5 -36t55 -12.5q72 0 104 58.5t32 153.5v214z" />
    <glyph glyph-name="uni0218" unicode="&#x218;" horiz-adv-x="568" 
d="M292 -7q-99 0 -168.5 54t-83.5 143l88 21q9 -64 53.5 -101.5t111.5 -37.5q63 0 101.5 32t38.5 84q0 44 -35 75t-122 65q-107 41 -150 84.5t-43 109.5q0 83 56.5 133.5t148.5 50.5q136 0 203 -116l-75 -46q-45 82 -131 82q-48 0 -80.5 -29t-32.5 -71q0 -39 34 -66t118 -60
q112 -43 155.5 -88.5t43.5 -115.5q0 -93 -63.5 -148t-167.5 -55zM157 -223l81 168h91l-119 -168h-53z" />
    <glyph glyph-name="uni0219" unicode="&#x219;" horiz-adv-x="460" 
d="M235 -9q-73 0 -128.5 36.5t-75.5 95.5l71 32q13 -39 46 -64.5t84 -25.5q47 0 73.5 21.5t26.5 54.5q0 31 -28 49t-68.5 27.5t-81 21.5t-68.5 42.5t-28 79.5q0 65 49 103t124 38q128 0 181 -105l-68 -37q-38 69 -115 69q-40 0 -64 -16t-24 -43q0 -28 28.5 -44.5t69 -26.5
t81 -23.5t69 -46t28.5 -83.5q0 -75 -53 -115t-129 -40zM106 -223l81 168h91l-119 -168h-53z" />
    <glyph glyph-name="uni021A" unicode="&#x21a;" horiz-adv-x="608" 
d="M259 0v615h-234v82h558v-82h-234v-615h-90zM177 -223l81 168h91l-119 -168h-53z" />
    <glyph glyph-name="uni021B" unicode="&#x21b;" horiz-adv-x="346" 
d="M308 423h-121v-291q0 -65 62 -65q24 0 59 11v-73q-42 -14 -80 -14q-57 0 -92 33t-35 99v300h-81v70h81v130l86 65v-195h121v-70zM78 -223l81 168h91l-119 -168h-53z" />
    <glyph glyph-name="uni0237" unicode="&#x237;" horiz-adv-x="254" 
d="M68 -213q-31 0 -71 14l1 69q22 -7 43 -7q43 0 43 48v582h86v-588q0 -59 -27.5 -88.5t-74.5 -29.5z" />
    <glyph glyph-name="circumflex" unicode="&#x2c6;" horiz-adv-x="344" 
d="M21 546l151 164l151 -164h-69l-82 89l-82 -89h-69z" />
    <glyph glyph-name="caron" unicode="&#x2c7;" horiz-adv-x="348" 
d="M174 540l-151 157h69l82 -86l82 86h69z" />
    <glyph glyph-name="breve" unicode="&#x2d8;" horiz-adv-x="418" 
d="M209 565q-153 0 -153 132h62q0 -39 24.5 -59.5t66.5 -20.5q43 0 67 20.5t24 59.5h62q0 -132 -153 -132z" />
    <glyph glyph-name="dotaccent" unicode="&#x2d9;" horiz-adv-x="258" 
d="M81 592v105h96v-105h-96z" />
    <glyph glyph-name="ring" unicode="&#x2da;" horiz-adv-x="317" 
d="M159 535q-43 0 -73 30.5t-30 72.5q0 43 30 72.5t73 29.5q42 0 72 -30t30 -72q0 -43 -29.5 -73t-72.5 -30zM159 583q23 0 39 16t16 39q0 24 -15.5 39.5t-39.5 15.5t-39.5 -16t-15.5 -39t15.5 -39t39.5 -16z" />
    <glyph glyph-name="ogonek" unicode="&#x2db;" horiz-adv-x="297" 
d="M159 -223q-48 0 -77.5 26t-29.5 70q0 49 36.5 85t65.5 43l68 -1q-39 -11 -78 -43t-39 -73q0 -53 51 -53q39 0 64 35l45 -31q-40 -58 -106 -58z" />
    <glyph glyph-name="tilde" unicode="&#x2dc;" horiz-adv-x="445" 
d="M290 565q-28 0 -49 13t-31.5 28t-24.5 28t-30 13q-20 0 -32 -20t-12 -55h-50q0 61 26 95t71 34q25 0 45 -12.5t30.5 -28t25.5 -28t31 -12.5q18 0 29.5 21t11.5 56h52q0 -62 -25.5 -97t-67.5 -35z" />
    <glyph glyph-name="hungarumlaut" unicode="&#x2dd;" horiz-adv-x="434" 
d="M31 541l109 156h78l-123 -156h-64zM208 541l109 156h92l-136 -156h-65z" />
    <glyph glyph-name="uni02F5" unicode="&#x2f5;" horiz-adv-x="553" 
d="M205 339l-138 154h92l110 -154h-64zM416 339l-140 154h92l113 -154h-65z" />
    <glyph glyph-name="uni02F6" unicode="&#x2f6;" horiz-adv-x="554" 
d="M73 339l112 154h92l-139 -154h-65zM284 339l110 154h93l-139 -154h-64z" />
    <glyph glyph-name="gravecomb" unicode="&#x300;" 
d="M-98 556l-130 141h92l104 -141h-66z" />
    <glyph glyph-name="acutecomb" unicode="&#x301;" 
d="M-226 556l109 141h92l-137 -141h-64z" />
    <glyph glyph-name="uni0302" unicode="&#x302;" 
d="M-323 546l151 164l151 -164h-69l-82 89l-82 -89h-69z" />
    <glyph glyph-name="tildecomb" unicode="&#x303;" 
d="M-155 565q-28 0 -49 13t-31.5 28t-24.5 28t-30 13q-20 0 -32 -20t-12 -55h-50q0 61 26 95t71 34q25 0 45 -12.5t30.5 -28t25.5 -28t31 -12.5q18 0 29.5 21t11.5 56h52q0 -62 -25.5 -97t-67.5 -35z" />
    <glyph glyph-name="uni0304" unicode="&#x304;" 
d="M-351 588v51h272v-51h-272z" />
    <glyph glyph-name="uni0306" unicode="&#x306;" 
d="M-209 565q-153 0 -153 132h62q0 -39 24.5 -59.5t66.5 -20.5q43 0 67 20.5t24 59.5h62q0 -132 -153 -132z" />
    <glyph glyph-name="uni0307" unicode="&#x307;" 
d="M-177 592v105h96v-105h-96z" />
    <glyph glyph-name="uni0308" unicode="&#x308;" 
d="M-354 592v105h87v-105h-87zM-169 592v105h87v-105h-87z" />
    <glyph glyph-name="hookabovecomb" unicode="&#x309;" 
d="M-173 532l-13 42q25 4 37 7t24.5 13.5t12.5 26.5q0 48 -86 48h-15v49h15q64 0 103.5 -25.5t39.5 -72.5q0 -19 -8 -34t-18.5 -23.5t-29.5 -15t-30 -9t-32 -6.5z" />
    <glyph glyph-name="uni030A" unicode="&#x30a;" 
d="M-158 535q-43 0 -73 30.5t-30 72.5q0 43 30 72.5t73 29.5q42 0 72 -30t30 -72q0 -43 -29.5 -73t-72.5 -30zM-158 583q23 0 39 16t16 39q0 24 -15.5 39.5t-39.5 15.5t-39.5 -16t-15.5 -39t15.5 -39t39.5 -16z" />
    <glyph glyph-name="uni030B" unicode="&#x30b;" 
d="M-403 541l109 156h78l-123 -156h-64zM-226 541l109 156h92l-136 -156h-65z" />
    <glyph glyph-name="uni030C" unicode="&#x30c;" 
d="M-174 540l-151 157h69l82 -86l82 86h69z" />
    <glyph glyph-name="uni030F" unicode="&#x30f;" 
d="M-273 541l-136 156h92l109 -156h-65zM-95 541l-123 156h78l109 -156h-64z" />
    <glyph glyph-name="uni0312" unicode="&#x312;" 
d="M-215 554l119 150h53l-81 -150h-91z" />
    <glyph glyph-name="uni031B" unicode="&#x31b;" 
d="M-206 496v57q79 0 79 92v52h65v-45q0 -72 -35.5 -114t-108.5 -42z" />
    <glyph glyph-name="dotbelowcomb" unicode="&#x323;" 
d="M-177 -173v104h96v-104h-96z" />
    <glyph glyph-name="uni0326" unicode="&#x326;" 
d="M-200 -223l81 168h91l-119 -168h-53z" />
    <glyph glyph-name="uni0327" unicode="&#x327;" 
d="M-153 -256q-52 0 -88 42l30 41q24 -32 61 -32q24 0 38 13.5t14 36.5q0 41 -54 54q-24 6 -72 6l56 95h52l-39 -59q35 -6 59 -17q50 -23 50 -77q0 -45 -30 -74t-77 -29z" />
    <glyph glyph-name="uni0328" unicode="&#x328;" 
d="M-129 -217q-43 0 -70.5 24.5t-27.5 65.5t25.5 74t60.5 54l68 -1q-18 -10 -28.5 -17t-31 -23t-31.5 -36.5t-11 -42.5q0 -43 43 -43q31 0 58 27l43 -32q-41 -50 -98 -50z" />
    <glyph glyph-name="uni0335" unicode="&#x335;" 
d="M-368 261v58h288v-58h-288z" />
    <glyph glyph-name="uni0336" unicode="&#x336;" 
d="M-721 255v52h642v-52h-642z" />
    <glyph glyph-name="uni0337" unicode="&#x337;" 
d="M-258 238v89l223 176v-87z" />
    <glyph glyph-name="uni0338" unicode="&#x338;" 
d="M-428 0l362 587h65l-361 -587h-66z" />
    <glyph glyph-name="uni0394" unicode="&#x394;" horiz-adv-x="626" 
d="M31 0l277 697h23l276 -697h-576zM137 73h364l-182 476z" />
    <glyph glyph-name="uni03A9" unicode="&#x3a9;" horiz-adv-x="785" 
d="M63 0v69h197l-17 2q-71 42 -115.5 121t-44.5 166q0 138 89 229.5t227 91.5t226.5 -91.5t88.5 -229.5q0 -89 -44.5 -168.5t-116.5 -119.5l-17 -1h197v-69h-274v86q179 69 179 271q0 111 -65 180t-174 69t-174.5 -69t-65.5 -179q0 -195 178 -273v-85h-274z" />
    <glyph glyph-name="uni03BC" unicode="&#x3bc;" horiz-adv-x="578" 
d="M84 -168v661h85v-291q0 -61 29 -96t83 -35q60 0 94 35.5t34 103.5v283h86v-493h-86v74q-24 -41 -65 -62t-86 -21q-70 0 -104 45v-204h-70z" />
    <glyph glyph-name="pi" unicode="&#x3c0;" horiz-adv-x="517" 
d="M434 -9q-111 0 -111 124v305h-156v-420h-73v420h-47v73h410v-73h-61v-294q0 -70 46 -70q15 0 29 7l24 -57q-27 -15 -61 -15z" />
    <glyph glyph-name="Wgrave" unicode="&#x1e80;" horiz-adv-x="987" 
d="M461 760l-130 141h92l104 -141h-66zM236 0l-204 697h92l161 -563l169 525h78l169 -525l160 563h94l-204 -697h-89l-168 518l-170 -518h-88z" />
    <glyph glyph-name="wgrave" unicode="&#x1e81;" horiz-adv-x="733" 
d="M333 556l-130 141h92l104 -141h-66zM167 0l-147 493h92l99 -362l117 362h77l117 -362l99 362h92l-147 -493h-79l-120 373l-121 -373h-79z" />
    <glyph glyph-name="Wacute" unicode="&#x1e82;" horiz-adv-x="987" 
d="M462 760l109 141h92l-137 -141h-64zM236 0l-204 697h92l161 -563l169 525h78l169 -525l160 563h94l-204 -697h-89l-168 518l-170 -518h-88z" />
    <glyph glyph-name="wacute" unicode="&#x1e83;" horiz-adv-x="733" 
d="M335 556l109 141h92l-137 -141h-64zM167 0l-147 493h92l99 -362l117 362h77l117 -362l99 362h92l-147 -493h-79l-120 373l-121 -373h-79z" />
    <glyph glyph-name="Wdieresis" unicode="&#x1e84;" horiz-adv-x="987" 
d="M357 796v105h87v-105h-87zM542 796v105h87v-105h-87zM236 0l-204 697h92l161 -563l169 525h78l169 -525l160 563h94l-204 -697h-89l-168 518l-170 -518h-88z" />
    <glyph glyph-name="wdieresis" unicode="&#x1e85;" horiz-adv-x="733" 
d="M230 592v105h87v-105h-87zM415 592v105h87v-105h-87zM167 0l-147 493h92l99 -362l117 362h77l117 -362l99 362h92l-147 -493h-79l-120 373l-121 -373h-79z" />
    <glyph glyph-name="uni1E9E" unicode="&#x1e9e;" horiz-adv-x="691" 
d="M463 -9q-76 0 -133 38t-76 95l76 40q39 -89 136 -89q42 0 64.5 17.5t22.5 48.5q0 32 -27 50.5t-66 28.5t-78 22.5t-66 41t-27 74.5q0 9 1 17.5t3 16.5t4 13.5t6.5 13t6 11t8 11.5t8 10t9 10.5t8.5 9.5l122 140h-133q-82 0 -117 -42t-35 -133v-436h-89v436q0 39 3.5 69.5
t18 68.5t39.5 63t71 42.5t109 17.5h269v-50l-196 -228q-26 -30 -26 -54q0 -27 28 -42.5t67.5 -25t79.5 -23t68 -46t28 -82.5q0 -68 -52.5 -111.5t-134.5 -43.5z" />
    <glyph glyph-name="uni1EA0" unicode="&#x1ea0;" horiz-adv-x="654" 
d="M629 0h-98l-62 173h-284l-62 -173h-98l267 697h70zM214 252h226l-113 316zM279 -173v104h96v-104h-96z" />
    <glyph glyph-name="uni1EA1" unicode="&#x1ea1;" horiz-adv-x="533" 
d="M262 502q95 0 148 -51.5t53 -142.5v-308h-79l-6 74q-55 -83 -168 -83q-80 0 -126.5 42t-46.5 113q0 80 63 115q51 27 168 27h109v20q0 57 -30.5 87.5t-86.5 30.5q-85 0 -144 -79l-62 52q81 103 208 103zM230 63q65 0 106 42.5t41 110.5v5h-99q-101 0 -130 -22
q-25 -20 -25 -57q0 -36 29 -57.5t78 -21.5zM214 -173v104h96v-104h-96z" />
    <glyph glyph-name="uni1EA2" unicode="&#x1ea2;" horiz-adv-x="654" 
d="M381 825q0 48 -86 48h-15v49h15q64 0 103.5 -25.5t39.5 -72.5q0 -19 -8 -34t-18.5 -23.5t-29.5 -15t-30 -9t-32 -6.5l-13 42q25 4 37 7t24.5 13.5t12.5 26.5zM531 0l-62 173h-284l-62 -173h-98l267 697h70l267 -697h-98zM214 252h226l-113 316z" />
    <glyph glyph-name="uni1EA3" unicode="&#x1ea3;" horiz-adv-x="533" 
d="M316 621q0 48 -86 48h-15v49h15q64 0 103.5 -25.5t39.5 -72.5q0 -19 -8 -34t-18.5 -23.5t-29.5 -15t-30 -9t-32 -6.5l-13 42q25 4 37 7t24.5 13.5t12.5 26.5zM262 502q95 0 148 -51.5t53 -142.5v-308h-79l-6 74q-55 -83 -168 -83q-80 0 -126.5 42t-46.5 113q0 80 63 115
q51 27 168 27h109v20q0 57 -30.5 87.5t-86.5 30.5q-85 0 -144 -79l-62 52q81 103 208 103zM230 63q65 0 106 42.5t41 110.5v5h-99q-101 0 -130 -22q-25 -20 -25 -57q0 -36 29 -57.5t78 -21.5z" />
    <glyph glyph-name="uni1EA4" unicode="&#x1ea4;" horiz-adv-x="654" 
d="M497 1090l-137 -141h-64l109 141h92zM327 839l-82 -89h-69l151 164l151 -164h-69zM531 0l-62 173h-284l-62 -173h-98l267 697h70l267 -697h-98zM214 252h226l-113 316z" />
    <glyph glyph-name="uni1EA5" unicode="&#x1ea5;" horiz-adv-x="533" 
d="M431 886l-137 -141h-64l109 141h92zM262 635l-82 -89h-69l151 164l151 -164h-69zM262 502q95 0 148 -51.5t53 -142.5v-308h-79l-6 74q-55 -83 -168 -83q-80 0 -126.5 42t-46.5 113q0 80 63 115q51 27 168 27h109v20q0 57 -30.5 87.5t-86.5 30.5q-85 0 -144 -79l-62 52
q81 103 208 103zM230 63q65 0 106 42.5t41 110.5v5h-99q-101 0 -130 -22q-25 -20 -25 -57q0 -36 29 -57.5t78 -21.5z" />
    <glyph glyph-name="uni1EA6" unicode="&#x1ea6;" horiz-adv-x="654" 
d="M360 949h-66l-130 141h92zM176 750l151 164l151 -164h-69l-82 89l-82 -89h-69zM531 0l-62 173h-284l-62 -173h-98l267 697h70l267 -697h-98zM214 252h226l-113 316z" />
    <glyph glyph-name="uni1EA7" unicode="&#x1ea7;" horiz-adv-x="533" 
d="M295 745h-66l-130 141h92zM111 546l151 164l151 -164h-69l-82 89l-82 -89h-69zM262 502q95 0 148 -51.5t53 -142.5v-308h-79l-6 74q-55 -83 -168 -83q-80 0 -126.5 42t-46.5 113q0 80 63 115q51 27 168 27h109v20q0 57 -30.5 87.5t-86.5 30.5q-85 0 -144 -79l-62 52
q81 103 208 103zM230 63q65 0 106 42.5t41 110.5v5h-99q-101 0 -130 -22q-25 -20 -25 -57q0 -36 29 -57.5t78 -21.5z" />
    <glyph glyph-name="uni1EA8" unicode="&#x1ea8;" horiz-adv-x="654" 
d="M381 1014q0 48 -86 48h-15v49h15q64 0 103.5 -25.5t39.5 -72.5q0 -19 -8 -34t-18.5 -23.5t-29.5 -15t-30 -9t-32 -6.5l-13 42q25 4 37 7t24.5 13.5t12.5 26.5zM327 839l-82 -89h-69l151 164l151 -164h-69zM531 0l-62 173h-284l-62 -173h-98l267 697h70l267 -697h-98z
M214 252h226l-113 316z" />
    <glyph glyph-name="uni1EA9" unicode="&#x1ea9;" horiz-adv-x="533" 
d="M316 810q0 48 -86 48h-15v49h15q64 0 103.5 -25.5t39.5 -72.5q0 -19 -8 -34t-18.5 -23.5t-29.5 -15t-30 -9t-32 -6.5l-13 42q25 4 37 7t24.5 13.5t12.5 26.5zM262 635l-82 -89h-69l151 164l151 -164h-69zM262 502q95 0 148 -51.5t53 -142.5v-308h-79l-6 74
q-55 -83 -168 -83q-80 0 -126.5 42t-46.5 113q0 80 63 115q51 27 168 27h109v20q0 57 -30.5 87.5t-86.5 30.5q-85 0 -144 -79l-62 52q81 103 208 103zM230 63q65 0 106 42.5t41 110.5v5h-99q-101 0 -130 -22q-25 -20 -25 -57q0 -36 29 -57.5t78 -21.5z" />
    <glyph glyph-name="uni1EAA" unicode="&#x1eaa;" horiz-adv-x="654" 
d="M260 1040q-20 0 -32 -20t-12 -55h-50q0 61 26 95t71 34q25 0 45 -12.5t30.5 -28t25.5 -28t31 -12.5q18 0 29.5 21t11.5 56h52q0 -62 -25.5 -97t-67.5 -35q-28 0 -49 13t-31.5 28t-24.5 28t-30 13zM176 750l151 164l151 -164h-69l-82 89l-82 -89h-69zM531 0l-62 173h-284
l-62 -173h-98l267 697h70l267 -697h-98zM214 252h226l-113 316z" />
    <glyph glyph-name="uni1EAB" unicode="&#x1eab;" horiz-adv-x="533" 
d="M194 836q-20 0 -32 -20t-12 -55h-50q0 61 26 95t71 34q25 0 45 -12.5t30.5 -28t25.5 -28t31 -12.5q18 0 29.5 21t11.5 56h52q0 -62 -25.5 -97t-67.5 -35q-28 0 -49 13t-31.5 28t-24.5 28t-30 13zM111 546l151 164l151 -164h-69l-82 89l-82 -89h-69zM262 502
q95 0 148 -51.5t53 -142.5v-308h-79l-6 74q-55 -83 -168 -83q-80 0 -126.5 42t-46.5 113q0 80 63 115q51 27 168 27h109v20q0 57 -30.5 87.5t-86.5 30.5q-85 0 -144 -79l-62 52q81 103 208 103zM230 63q65 0 106 42.5t41 110.5v5h-99q-101 0 -130 -22q-25 -20 -25 -57
q0 -36 29 -57.5t78 -21.5z" />
    <glyph glyph-name="uni1EAC" unicode="&#x1eac;" horiz-adv-x="654" 
d="M327 839l-82 -89h-69l151 164l151 -164h-69zM629 0h-98l-62 173h-284l-62 -173h-98l267 697h70zM214 252h226l-113 316zM279 -173v104h96v-104h-96z" />
    <glyph glyph-name="uni1EAD" unicode="&#x1ead;" horiz-adv-x="533" 
d="M262 635l-82 -89h-69l151 164l151 -164h-69zM262 502q95 0 148 -51.5t53 -142.5v-308h-79l-6 74q-55 -83 -168 -83q-80 0 -126.5 42t-46.5 113q0 80 63 115q51 27 168 27h109v20q0 57 -30.5 87.5t-86.5 30.5q-85 0 -144 -79l-62 52q81 103 208 103zM230 63q65 0 106 42.5
t41 110.5v5h-99q-101 0 -130 -22q-25 -20 -25 -57q0 -36 29 -57.5t78 -21.5zM214 -173v104h96v-104h-96z" />
    <glyph glyph-name="uni1EAE" unicode="&#x1eae;" horiz-adv-x="654" 
d="M497 1105l-137 -141h-64l109 141h92zM327 769q-153 0 -153 132h62q0 -39 24.5 -59.5t66.5 -20.5q43 0 67 20.5t24 59.5h62q0 -132 -153 -132zM531 0l-62 173h-284l-62 -173h-98l267 697h70l267 -697h-98zM214 252h226l-113 316z" />
    <glyph glyph-name="uni1EAF" unicode="&#x1eaf;" horiz-adv-x="533" 
d="M431 901l-137 -141h-64l109 141h92zM262 565q-153 0 -153 132h62q0 -39 24.5 -59.5t66.5 -20.5q43 0 67 20.5t24 59.5h62q0 -132 -153 -132zM262 502q95 0 148 -51.5t53 -142.5v-308h-79l-6 74q-55 -83 -168 -83q-80 0 -126.5 42t-46.5 113q0 80 63 115q51 27 168 27h109
v20q0 57 -30.5 87.5t-86.5 30.5q-85 0 -144 -79l-62 52q81 103 208 103zM230 63q65 0 106 42.5t41 110.5v5h-99q-101 0 -130 -22q-25 -20 -25 -57q0 -36 29 -57.5t78 -21.5z" />
    <glyph glyph-name="uni1EB0" unicode="&#x1eb0;" horiz-adv-x="654" 
d="M360 964h-66l-130 141h92zM236 901q0 -39 24.5 -59.5t66.5 -20.5q43 0 67 20.5t24 59.5h62q0 -132 -153 -132t-153 132h62zM531 0l-62 173h-284l-62 -173h-98l267 697h70l267 -697h-98zM214 252h226l-113 316z" />
    <glyph glyph-name="uni1EB1" unicode="&#x1eb1;" horiz-adv-x="533" 
d="M295 760h-66l-130 141h92zM171 697q0 -39 24.5 -59.5t66.5 -20.5q43 0 67 20.5t24 59.5h62q0 -132 -153 -132t-153 132h62zM262 502q95 0 148 -51.5t53 -142.5v-308h-79l-6 74q-55 -83 -168 -83q-80 0 -126.5 42t-46.5 113q0 80 63 115q51 27 168 27h109v20
q0 57 -30.5 87.5t-86.5 30.5q-85 0 -144 -79l-62 52q81 103 208 103zM230 63q65 0 106 42.5t41 110.5v5h-99q-101 0 -130 -22q-25 -20 -25 -57q0 -36 29 -57.5t78 -21.5z" />
    <glyph glyph-name="uni1EB2" unicode="&#x1eb2;" horiz-adv-x="654" 
d="M381 1029q0 48 -86 48h-15v49h15q64 0 103.5 -25.5t39.5 -72.5q0 -19 -8 -34t-18.5 -23.5t-29.5 -15t-30 -9t-32 -6.5l-13 42q25 4 37 7t24.5 13.5t12.5 26.5zM327 769q-153 0 -153 132h62q0 -39 24.5 -59.5t66.5 -20.5q43 0 67 20.5t24 59.5h62q0 -132 -153 -132zM531 0
l-62 173h-284l-62 -173h-98l267 697h70l267 -697h-98zM214 252h226l-113 316z" />
    <glyph glyph-name="uni1EB3" unicode="&#x1eb3;" horiz-adv-x="533" 
d="M316 825q0 48 -86 48h-15v49h15q64 0 103.5 -25.5t39.5 -72.5q0 -19 -8 -34t-18.5 -23.5t-29.5 -15t-30 -9t-32 -6.5l-13 42q25 4 37 7t24.5 13.5t12.5 26.5zM262 565q-153 0 -153 132h62q0 -39 24.5 -59.5t66.5 -20.5q43 0 67 20.5t24 59.5h62q0 -132 -153 -132z
M262 502q95 0 148 -51.5t53 -142.5v-308h-79l-6 74q-55 -83 -168 -83q-80 0 -126.5 42t-46.5 113q0 80 63 115q51 27 168 27h109v20q0 57 -30.5 87.5t-86.5 30.5q-85 0 -144 -79l-62 52q81 103 208 103zM230 63q65 0 106 42.5t41 110.5v5h-99q-101 0 -130 -22
q-25 -20 -25 -57q0 -36 29 -57.5t78 -21.5z" />
    <glyph glyph-name="uni1EB4" unicode="&#x1eb4;" horiz-adv-x="654" 
d="M260 1055q-20 0 -32 -20t-12 -55h-50q0 61 26 95t71 34q25 0 45 -12.5t30.5 -28t25.5 -28t31 -12.5q18 0 29.5 21t11.5 56h52q0 -62 -25.5 -97t-67.5 -35q-28 0 -49 13t-31.5 28t-24.5 28t-30 13zM327 821q43 0 67 20.5t24 59.5h62q0 -132 -153 -132t-153 132h62
q0 -39 24.5 -59.5t66.5 -20.5zM531 0l-62 173h-284l-62 -173h-98l267 697h70l267 -697h-98zM214 252h226l-113 316z" />
    <glyph glyph-name="uni1EB5" unicode="&#x1eb5;" horiz-adv-x="533" 
d="M194 851q-20 0 -32 -20t-12 -55h-50q0 61 26 95t71 34q25 0 45 -12.5t30.5 -28t25.5 -28t31 -12.5q18 0 29.5 21t11.5 56h52q0 -62 -25.5 -97t-67.5 -35q-28 0 -49 13t-31.5 28t-24.5 28t-30 13zM262 617q43 0 67 20.5t24 59.5h62q0 -132 -153 -132t-153 132h62
q0 -39 24.5 -59.5t66.5 -20.5zM262 502q95 0 148 -51.5t53 -142.5v-308h-79l-6 74q-55 -83 -168 -83q-80 0 -126.5 42t-46.5 113q0 80 63 115q51 27 168 27h109v20q0 57 -30.5 87.5t-86.5 30.5q-85 0 -144 -79l-62 52q81 103 208 103zM230 63q65 0 106 42.5t41 110.5v5h-99
q-101 0 -130 -22q-25 -20 -25 -57q0 -36 29 -57.5t78 -21.5z" />
    <glyph glyph-name="uni1EB6" unicode="&#x1eb6;" horiz-adv-x="654" 
d="M327 769q-153 0 -153 132h62q0 -39 24.5 -59.5t66.5 -20.5q43 0 67 20.5t24 59.5h62q0 -132 -153 -132zM629 0h-98l-62 173h-284l-62 -173h-98l267 697h70zM214 252h226l-113 316zM279 -173v104h96v-104h-96z" />
    <glyph glyph-name="uni1EB7" unicode="&#x1eb7;" horiz-adv-x="533" 
d="M262 565q-153 0 -153 132h62q0 -39 24.5 -59.5t66.5 -20.5q43 0 67 20.5t24 59.5h62q0 -132 -153 -132zM262 502q95 0 148 -51.5t53 -142.5v-308h-79l-6 74q-55 -83 -168 -83q-80 0 -126.5 42t-46.5 113q0 80 63 115q51 27 168 27h109v20q0 57 -30.5 87.5t-86.5 30.5
q-85 0 -144 -79l-62 52q81 103 208 103zM230 63q65 0 106 42.5t41 110.5v5h-99q-101 0 -130 -22q-25 -20 -25 -57q0 -36 29 -57.5t78 -21.5zM214 -173v104h96v-104h-96z" />
    <glyph glyph-name="uni1EB8" unicode="&#x1eb8;" horiz-adv-x="625" 
d="M105 0v697h460v-82h-371v-218h337v-82h-337v-233h371v-82h-460zM287 -173v104h96v-104h-96z" />
    <glyph glyph-name="uni1EB9" unicode="&#x1eb9;" horiz-adv-x="528" 
d="M486 265q0 -25 -3 -44h-353q2 -71 40.5 -111t106.5 -40q79 0 134 59l59 -53q-79 -85 -194 -85q-112 0 -172 72t-60 181t58.5 183.5t165.5 74.5q106 0 162 -69.5t56 -167.5zM130 290h274q-1 2 -1 10q-2 58 -38.5 94t-97.5 36q-60 0 -96.5 -40.5t-40.5 -99.5zM228 -173v104
h96v-104h-96z" />
    <glyph glyph-name="uni1EBA" unicode="&#x1eba;" horiz-adv-x="625" 
d="M327 736l-13 42q25 4 37 7t24.5 13.5t12.5 26.5q0 48 -86 48h-15v49h15q64 0 103.5 -25.5t39.5 -72.5q0 -19 -8 -34t-18.5 -23.5t-29.5 -15t-30 -9t-32 -6.5zM105 0v697h460v-82h-371v-218h337v-82h-337v-233h371v-82h-460z" />
    <glyph glyph-name="uni1EBB" unicode="&#x1ebb;" horiz-adv-x="528" 
d="M322 621q0 48 -86 48h-15v49h15q64 0 103.5 -25.5t39.5 -72.5q0 -19 -8 -34t-18.5 -23.5t-29.5 -15t-30 -9t-32 -6.5l-13 42q25 4 37 7t24.5 13.5t12.5 26.5zM486 265q0 -25 -3 -44h-353q2 -71 40.5 -111t106.5 -40q79 0 134 59l59 -53q-79 -85 -194 -85q-112 0 -172 72
t-60 181t58.5 183.5t165.5 74.5q106 0 162 -69.5t56 -167.5zM130 290h274q-1 2 -1 10q-2 58 -38.5 94t-97.5 36q-60 0 -96.5 -40.5t-40.5 -99.5z" />
    <glyph glyph-name="uni1EBC" unicode="&#x1ebc;" horiz-adv-x="625" 
d="M402 769q-28 0 -49 13t-31.5 28t-24.5 28t-30 13q-20 0 -32 -20t-12 -55h-50q0 61 26 95t71 34q25 0 45 -12.5t30.5 -28t25.5 -28t31 -12.5q18 0 29.5 21t11.5 56h52q0 -62 -25.5 -97t-67.5 -35zM105 0v697h460v-82h-371v-218h337v-82h-337v-233h371v-82h-460z" />
    <glyph glyph-name="uni1EBD" unicode="&#x1ebd;" horiz-adv-x="528" 
d="M201 647q-20 0 -32 -20t-12 -55h-50q0 61 26 95t71 34q25 0 45 -12.5t30.5 -28t25.5 -28t31 -12.5q18 0 29.5 21t11.5 56h52q0 -62 -25.5 -97t-67.5 -35q-28 0 -49 13t-31.5 28t-24.5 28t-30 13zM486 265q0 -25 -3 -44h-353q2 -71 40.5 -111t106.5 -40q79 0 134 59
l59 -53q-79 -85 -194 -85q-112 0 -172 72t-60 181t58.5 183.5t165.5 74.5q106 0 162 -69.5t56 -167.5zM130 290h274q-1 2 -1 10q-2 58 -38.5 94t-97.5 36q-60 0 -96.5 -40.5t-40.5 -99.5z" />
    <glyph glyph-name="uni1EBE" unicode="&#x1ebe;" horiz-adv-x="625" 
d="M303 949l109 141h92l-137 -141h-64zM184 750l151 164l151 -164h-69l-82 89l-82 -89h-69zM105 0v697h460v-82h-371v-218h337v-82h-337v-233h371v-82h-460z" />
    <glyph glyph-name="uni1EBF" unicode="&#x1ebf;" horiz-adv-x="528" 
d="M438 886l-137 -141h-64l109 141h92zM269 635l-82 -89h-69l151 164l151 -164h-69zM486 265q0 -25 -3 -44h-353q2 -71 40.5 -111t106.5 -40q79 0 134 59l59 -53q-79 -85 -194 -85q-112 0 -172 72t-60 181t58.5 183.5t165.5 74.5q106 0 162 -69.5t56 -167.5zM130 290h274
q-1 2 -1 10q-2 58 -38.5 94t-97.5 36q-60 0 -96.5 -40.5t-40.5 -99.5z" />
    <glyph glyph-name="uni1EC0" unicode="&#x1ec0;" horiz-adv-x="625" 
d="M302 949l-130 141h92l104 -141h-66zM184 750l151 164l151 -164h-69l-82 89l-82 -89h-69zM105 0v697h460v-82h-371v-218h337v-82h-337v-233h371v-82h-460z" />
    <glyph glyph-name="uni1EC1" unicode="&#x1ec1;" horiz-adv-x="528" 
d="M302 745h-66l-130 141h92zM118 546l151 164l151 -164h-69l-82 89l-82 -89h-69zM486 265q0 -25 -3 -44h-353q2 -71 40.5 -111t106.5 -40q79 0 134 59l59 -53q-79 -85 -194 -85q-112 0 -172 72t-60 181t58.5 183.5t165.5 74.5q106 0 162 -69.5t56 -167.5zM130 290h274
q-1 2 -1 10q-2 58 -38.5 94t-97.5 36q-60 0 -96.5 -40.5t-40.5 -99.5z" />
    <glyph glyph-name="uni1EC2" unicode="&#x1ec2;" horiz-adv-x="625" 
d="M327 925l-13 42q25 4 37 7t24.5 13.5t12.5 26.5q0 48 -86 48h-15v49h15q64 0 103.5 -25.5t39.5 -72.5q0 -19 -8 -34t-18.5 -23.5t-29.5 -15t-30 -9t-32 -6.5zM184 750l151 164l151 -164h-69l-82 89l-82 -89h-69zM105 0v697h460v-82h-371v-218h337v-82h-337v-233h371v-82
h-460z" />
    <glyph glyph-name="uni1EC3" unicode="&#x1ec3;" horiz-adv-x="528" 
d="M322 810q0 48 -86 48h-15v49h15q64 0 103.5 -25.5t39.5 -72.5q0 -19 -8 -34t-18.5 -23.5t-29.5 -15t-30 -9t-32 -6.5l-13 42q25 4 37 7t24.5 13.5t12.5 26.5zM269 635l-82 -89h-69l151 164l151 -164h-69zM486 265q0 -25 -3 -44h-353q2 -71 40.5 -111t106.5 -40
q79 0 134 59l59 -53q-79 -85 -194 -85q-112 0 -172 72t-60 181t58.5 183.5t165.5 74.5q106 0 162 -69.5t56 -167.5zM130 290h274q-1 2 -1 10q-2 58 -38.5 94t-97.5 36q-60 0 -96.5 -40.5t-40.5 -99.5z" />
    <glyph glyph-name="uni1EC4" unicode="&#x1ec4;" horiz-adv-x="625" 
d="M402 958q-28 0 -49 13t-31.5 28t-24.5 28t-30 13q-20 0 -32 -20t-12 -55h-50q0 61 26 95t71 34q25 0 45 -12.5t30.5 -28t25.5 -28t31 -12.5q18 0 29.5 21t11.5 56h52q0 -62 -25.5 -97t-67.5 -35zM184 750l151 164l151 -164h-69l-82 89l-82 -89h-69zM105 0v697h460v-82
h-371v-218h337v-82h-337v-233h371v-82h-460z" />
    <glyph glyph-name="uni1EC5" unicode="&#x1ec5;" horiz-adv-x="528" 
d="M201 836q-20 0 -32 -20t-12 -55h-50q0 61 26 95t71 34q25 0 45 -12.5t30.5 -28t25.5 -28t31 -12.5q18 0 29.5 21t11.5 56h52q0 -62 -25.5 -97t-67.5 -35q-28 0 -49 13t-31.5 28t-24.5 28t-30 13zM118 546l151 164l151 -164h-69l-82 89l-82 -89h-69zM486 265q0 -25 -3 -44
h-353q2 -71 40.5 -111t106.5 -40q79 0 134 59l59 -53q-79 -85 -194 -85q-112 0 -172 72t-60 181t58.5 183.5t165.5 74.5q106 0 162 -69.5t56 -167.5zM130 290h274q-1 2 -1 10q-2 58 -38.5 94t-97.5 36q-60 0 -96.5 -40.5t-40.5 -99.5z" />
    <glyph glyph-name="uni1EC6" unicode="&#x1ec6;" horiz-adv-x="625" 
d="M184 750l151 164l151 -164h-69l-82 89l-82 -89h-69zM105 0v697h460v-82h-371v-218h337v-82h-337v-233h371v-82h-460zM287 -173v104h96v-104h-96z" />
    <glyph glyph-name="uni1EC7" unicode="&#x1ec7;" horiz-adv-x="528" 
d="M269 635l-82 -89h-69l151 164l151 -164h-69zM486 265q0 -25 -3 -44h-353q2 -71 40.5 -111t106.5 -40q79 0 134 59l59 -53q-79 -85 -194 -85q-112 0 -172 72t-60 181t58.5 183.5t165.5 74.5q106 0 162 -69.5t56 -167.5zM130 290h274q-1 2 -1 10q-2 58 -38.5 94t-97.5 36
q-60 0 -96.5 -40.5t-40.5 -99.5zM228 -173v104h96v-104h-96z" />
    <glyph glyph-name="uni1EC8" unicode="&#x1ec8;" horiz-adv-x="300" 
d="M143 736l-13 42q25 4 37 7t24.5 13.5t12.5 26.5q0 48 -86 48h-15v49h15q64 0 103.5 -25.5t39.5 -72.5q0 -19 -8 -34t-18.5 -23.5t-29.5 -15t-30 -9t-32 -6.5zM105 0v697h89v-697h-89z" />
    <glyph glyph-name="uni1EC9" unicode="&#x1ec9;" horiz-adv-x="254" 
d="M119 532l-13 42q25 4 37 7t24.5 13.5t12.5 26.5q0 48 -86 48h-15v49h15q64 0 103.5 -25.5t39.5 -72.5q0 -19 -8 -34t-18.5 -23.5t-29.5 -15t-30 -9t-32 -6.5zM84 0v493h86v-493h-86z" />
    <glyph glyph-name="uni1ECA" unicode="&#x1eca;" horiz-adv-x="300" 
d="M105 0v697h89v-697h-89zM102 -173v104h96v-104h-96z" />
    <glyph glyph-name="uni1ECB" unicode="&#x1ecb;" horiz-adv-x="254" 
d="M79 592v105h96v-105h-96zM84 0v493h86v-493h-86zM79 -173v104h96v-104h-96z" />
    <glyph glyph-name="uni1ECC" unicode="&#x1ecc;" horiz-adv-x="762" 
d="M381 -9q-145 0 -234.5 98.5t-89.5 258.5t89.5 259t234.5 99t234.5 -98.5t89.5 -259.5q0 -160 -89.5 -258.5t-234.5 -98.5zM381 76q107 0 171 74t64 198q0 125 -64 199t-171 74t-171 -74t-64 -199q0 -124 64 -198t171 -74zM333 -173v104h96v-104h-96z" />
    <glyph glyph-name="uni1ECD" unicode="&#x1ecd;" horiz-adv-x="561" 
d="M280 -9q-107 0 -173 73t-66 183t66 182.5t173 72.5t174 -73t67 -182t-67 -182.5t-174 -73.5zM280 67q73 0 114 51t41 129q0 79 -40.5 129t-114.5 50q-73 0 -113 -50t-40 -129t40 -129.5t113 -50.5zM232 -173v104h96v-104h-96z" />
    <glyph glyph-name="uni1ECE" unicode="&#x1ece;" horiz-adv-x="762" 
d="M374 736l-13 42q25 4 37 7t24.5 13.5t12.5 26.5q0 48 -86 48h-15v49h15q64 0 103.5 -25.5t39.5 -72.5q0 -19 -8 -34t-18.5 -23.5t-29.5 -15t-30 -9t-32 -6.5zM381 -9q-145 0 -234.5 98.5t-89.5 258.5t89.5 259t234.5 99t234.5 -98.5t89.5 -259.5q0 -160 -89.5 -258.5
t-234.5 -98.5zM381 76q107 0 171 74t64 198q0 125 -64 199t-171 74t-171 -74t-64 -199q0 -124 64 -198t171 -74z" />
    <glyph glyph-name="uni1ECF" unicode="&#x1ecf;" horiz-adv-x="561" 
d="M273 532l-13 42q25 4 37 7t24.5 13.5t12.5 26.5q0 48 -86 48h-15v49h15q64 0 103.5 -25.5t39.5 -72.5q0 -19 -8 -34t-18.5 -23.5t-29.5 -15t-30 -9t-32 -6.5zM280 -9q-107 0 -173 73t-66 183t66 182.5t173 72.5t174 -73t67 -182t-67 -182.5t-174 -73.5zM280 67
q73 0 114 51t41 129q0 79 -40.5 129t-114.5 50q-73 0 -113 -50t-40 -129t40 -129.5t113 -50.5z" />
    <glyph glyph-name="uni1ED0" unicode="&#x1ed0;" horiz-adv-x="762" 
d="M349 949l109 141h92l-137 -141h-64zM230 750l151 164l151 -164h-69l-82 89l-82 -89h-69zM381 -9q-145 0 -234.5 98.5t-89.5 258.5t89.5 259t234.5 99t234.5 -98.5t89.5 -259.5q0 -160 -89.5 -258.5t-234.5 -98.5zM381 76q107 0 171 74t64 198q0 125 -64 199t-171 74
t-171 -74t-64 -199q0 -124 64 -198t171 -74z" />
    <glyph glyph-name="uni1ED1" unicode="&#x1ed1;" horiz-adv-x="561" 
d="M249 745l109 141h92l-137 -141h-64zM129 546l151 164l151 -164h-69l-82 89l-82 -89h-69zM280 -9q-107 0 -173 73t-66 183t66 182.5t173 72.5t174 -73t67 -182t-67 -182.5t-174 -73.5zM280 67q73 0 114 51t41 129q0 79 -40.5 129t-114.5 50q-73 0 -113 -50t-40 -129
t40 -129.5t113 -50.5z" />
    <glyph glyph-name="uni1ED2" unicode="&#x1ed2;" horiz-adv-x="762" 
d="M348 949l-130 141h92l104 -141h-66zM230 750l151 164l151 -164h-69l-82 89l-82 -89h-69zM381 -9q-145 0 -234.5 98.5t-89.5 258.5t89.5 259t234.5 99t234.5 -98.5t89.5 -259.5q0 -160 -89.5 -258.5t-234.5 -98.5zM381 76q107 0 171 74t64 198q0 125 -64 199t-171 74
t-171 -74t-64 -199q0 -124 64 -198t171 -74z" />
    <glyph glyph-name="uni1ED3" unicode="&#x1ed3;" horiz-adv-x="561" 
d="M247 745l-130 141h92l104 -141h-66zM129 546l151 164l151 -164h-69l-82 89l-82 -89h-69zM280 -9q-107 0 -173 73t-66 183t66 182.5t173 72.5t174 -73t67 -182t-67 -182.5t-174 -73.5zM280 67q73 0 114 51t41 129q0 79 -40.5 129t-114.5 50q-73 0 -113 -50t-40 -129
t40 -129.5t113 -50.5z" />
    <glyph glyph-name="uni1ED4" unicode="&#x1ed4;" horiz-adv-x="762" 
d="M374 925l-13 42q25 4 37 7t24.5 13.5t12.5 26.5q0 48 -86 48h-15v49h15q64 0 103.5 -25.5t39.5 -72.5q0 -19 -8 -34t-18.5 -23.5t-29.5 -15t-30 -9t-32 -6.5zM230 750l151 164l151 -164h-69l-82 89l-82 -89h-69zM381 -9q-145 0 -234.5 98.5t-89.5 258.5t89.5 259
t234.5 99t234.5 -98.5t89.5 -259.5q0 -160 -89.5 -258.5t-234.5 -98.5zM381 76q107 0 171 74t64 198q0 125 -64 199t-171 74t-171 -74t-64 -199q0 -124 64 -198t171 -74z" />
    <glyph glyph-name="uni1ED5" unicode="&#x1ed5;" horiz-adv-x="561" 
d="M273 721l-13 42q25 4 37 7t24.5 13.5t12.5 26.5q0 48 -86 48h-15v49h15q64 0 103.5 -25.5t39.5 -72.5q0 -19 -8 -34t-18.5 -23.5t-29.5 -15t-30 -9t-32 -6.5zM129 546l151 164l151 -164h-69l-82 89l-82 -89h-69zM280 -9q-107 0 -173 73t-66 183t66 182.5t173 72.5
t174 -73t67 -182t-67 -182.5t-174 -73.5zM280 67q73 0 114 51t41 129q0 79 -40.5 129t-114.5 50q-73 0 -113 -50t-40 -129t40 -129.5t113 -50.5z" />
    <glyph glyph-name="uni1ED6" unicode="&#x1ed6;" horiz-adv-x="762" 
d="M448 958q-28 0 -49 13t-31.5 28t-24.5 28t-30 13q-20 0 -32 -20t-12 -55h-50q0 61 26 95t71 34q25 0 45 -12.5t30.5 -28t25.5 -28t31 -12.5q18 0 29.5 21t11.5 56h52q0 -62 -25.5 -97t-67.5 -35zM230 750l151 164l151 -164h-69l-82 89l-82 -89h-69zM381 -9
q-145 0 -234.5 98.5t-89.5 258.5t89.5 259t234.5 99t234.5 -98.5t89.5 -259.5q0 -160 -89.5 -258.5t-234.5 -98.5zM381 76q107 0 171 74t64 198q0 125 -64 199t-171 74t-171 -74t-64 -199q0 -124 64 -198t171 -74z" />
    <glyph glyph-name="uni1ED7" unicode="&#x1ed7;" horiz-adv-x="561" 
d="M348 754q-28 0 -49 13t-31.5 28t-24.5 28t-30 13q-20 0 -32 -20t-12 -55h-50q0 61 26 95t71 34q25 0 45 -12.5t30.5 -28t25.5 -28t31 -12.5q18 0 29.5 21t11.5 56h52q0 -62 -25.5 -97t-67.5 -35zM129 546l151 164l151 -164h-69l-82 89l-82 -89h-69zM280 -9
q-107 0 -173 73t-66 183t66 182.5t173 72.5t174 -73t67 -182t-67 -182.5t-174 -73.5zM280 67q73 0 114 51t41 129q0 79 -40.5 129t-114.5 50q-73 0 -113 -50t-40 -129t40 -129.5t113 -50.5z" />
    <glyph glyph-name="uni1ED8" unicode="&#x1ed8;" horiz-adv-x="762" 
d="M230 750l151 164l151 -164h-69l-82 89l-82 -89h-69zM381 -9q-145 0 -234.5 98.5t-89.5 258.5t89.5 259t234.5 99t234.5 -98.5t89.5 -259.5q0 -160 -89.5 -258.5t-234.5 -98.5zM381 76q107 0 171 74t64 198q0 125 -64 199t-171 74t-171 -74t-64 -199q0 -124 64 -198
t171 -74zM333 -173v104h96v-104h-96z" />
    <glyph glyph-name="uni1ED9" unicode="&#x1ed9;" horiz-adv-x="561" 
d="M129 546l151 164l151 -164h-69l-82 89l-82 -89h-69zM280 -9q-107 0 -173 73t-66 183t66 182.5t173 72.5t174 -73t67 -182t-67 -182.5t-174 -73.5zM280 67q73 0 114 51t41 129q0 79 -40.5 129t-114.5 50q-73 0 -113 -50t-40 -129t40 -129.5t113 -50.5zM232 -173v104h96
v-104h-96z" />
    <glyph glyph-name="uni1EDA" unicode="&#x1eda;" horiz-adv-x="762" 
d="M550 901l-137 -141h-64l109 141h92zM707 697h65v-45q0 -123 -93 -150q26 -69 26 -154q0 -160 -89.5 -258.5t-234.5 -98.5t-234.5 98.5t-89.5 258.5t89.5 259t234.5 99q90 0 160 -39.5t112 -110.5q54 15 54 89v52zM381 76q107 0 171 74t64 198q0 125 -64 199t-171 74
t-171 -74t-64 -199q0 -124 64 -198t171 -74z" />
    <glyph glyph-name="uni1EDB" unicode="&#x1edb;" horiz-adv-x="561" 
d="M450 697l-137 -141h-64l109 141h92zM535 559h65v-45q0 -129 -102 -152q23 -52 23 -115q0 -109 -67 -182.5t-174 -73.5t-173 73t-66 183t66 182.5t173 72.5q117 0 186 -87q69 7 69 92v52zM280 67q73 0 114 51t41 129q0 79 -40.5 129t-114.5 50q-73 0 -113 -50t-40 -129
t40 -129.5t113 -50.5z" />
    <glyph glyph-name="uni1EDC" unicode="&#x1edc;" horiz-adv-x="762" 
d="M414 760h-66l-130 141h92zM707 697h65v-45q0 -123 -93 -150q26 -69 26 -154q0 -160 -89.5 -258.5t-234.5 -98.5t-234.5 98.5t-89.5 258.5t89.5 259t234.5 99q90 0 160 -39.5t112 -110.5q54 15 54 89v52zM381 76q107 0 171 74t64 198q0 125 -64 199t-171 74t-171 -74
t-64 -199q0 -124 64 -198t171 -74z" />
    <glyph glyph-name="uni1EDD" unicode="&#x1edd;" horiz-adv-x="561" 
d="M313 556h-66l-130 141h92zM535 559h65v-45q0 -129 -102 -152q23 -52 23 -115q0 -109 -67 -182.5t-174 -73.5t-173 73t-66 183t66 182.5t173 72.5q117 0 186 -87q69 7 69 92v52zM280 67q73 0 114 51t41 129q0 79 -40.5 129t-114.5 50q-73 0 -113 -50t-40 -129t40 -129.5
t113 -50.5z" />
    <glyph glyph-name="uni1EDE" unicode="&#x1ede;" horiz-adv-x="762" 
d="M435 825q0 48 -86 48h-15v49h15q64 0 103.5 -25.5t39.5 -72.5q0 -19 -8 -34t-18.5 -23.5t-29.5 -15t-30 -9t-32 -6.5l-13 42q25 4 37 7t24.5 13.5t12.5 26.5zM707 697h65v-45q0 -123 -93 -150q26 -69 26 -154q0 -160 -89.5 -258.5t-234.5 -98.5t-234.5 98.5t-89.5 258.5
t89.5 259t234.5 99q90 0 160 -39.5t112 -110.5q54 15 54 89v52zM381 76q107 0 171 74t64 198q0 125 -64 199t-171 74t-171 -74t-64 -199q0 -124 64 -198t171 -74z" />
    <glyph glyph-name="uni1EDF" unicode="&#x1edf;" horiz-adv-x="561" 
d="M334 621q0 48 -86 48h-15v49h15q64 0 103.5 -25.5t39.5 -72.5q0 -19 -8 -34t-18.5 -23.5t-29.5 -15t-30 -9t-32 -6.5l-13 42q25 4 37 7t24.5 13.5t12.5 26.5zM535 559h65v-45q0 -129 -102 -152q23 -52 23 -115q0 -109 -67 -182.5t-174 -73.5t-173 73t-66 183t66 182.5
t173 72.5q117 0 186 -87q69 7 69 92v52zM280 67q73 0 114 51t41 129q0 79 -40.5 129t-114.5 50q-73 0 -113 -50t-40 -129t40 -129.5t113 -50.5z" />
    <glyph glyph-name="uni1EE0" unicode="&#x1ee0;" horiz-adv-x="762" 
d="M313 851q-20 0 -32 -20t-12 -55h-50q0 61 26 95t71 34q25 0 45 -12.5t30.5 -28t25.5 -28t31 -12.5q18 0 29.5 21t11.5 56h52q0 -62 -25.5 -97t-67.5 -35q-28 0 -49 13t-31.5 28t-24.5 28t-30 13zM707 697h65v-45q0 -123 -93 -150q26 -69 26 -154q0 -160 -89.5 -258.5
t-234.5 -98.5t-234.5 98.5t-89.5 258.5t89.5 259t234.5 99q90 0 160 -39.5t112 -110.5q54 15 54 89v52zM381 76q107 0 171 74t64 198q0 125 -64 199t-171 74t-171 -74t-64 -199q0 -124 64 -198t171 -74z" />
    <glyph glyph-name="uni1EE1" unicode="&#x1ee1;" horiz-adv-x="561" 
d="M213 647q-20 0 -32 -20t-12 -55h-50q0 61 26 95t71 34q25 0 45 -12.5t30.5 -28t25.5 -28t31 -12.5q18 0 29.5 21t11.5 56h52q0 -62 -25.5 -97t-67.5 -35q-28 0 -49 13t-31.5 28t-24.5 28t-30 13zM535 559h65v-45q0 -129 -102 -152q23 -52 23 -115q0 -109 -67 -182.5
t-174 -73.5t-173 73t-66 183t66 182.5t173 72.5q117 0 186 -87q69 7 69 92v52zM280 67q73 0 114 51t41 129q0 79 -40.5 129t-114.5 50q-73 0 -113 -50t-40 -129t40 -129.5t113 -50.5z" />
    <glyph glyph-name="uni1EE2" unicode="&#x1ee2;" horiz-adv-x="762" 
d="M707 697h65v-45q0 -123 -93 -150q26 -69 26 -154q0 -160 -89.5 -258.5t-234.5 -98.5t-234.5 98.5t-89.5 258.5t89.5 259t234.5 99q90 0 160 -39.5t112 -110.5q54 15 54 89v52zM381 76q107 0 171 74t64 198q0 125 -64 199t-171 74t-171 -74t-64 -199q0 -124 64 -198
t171 -74zM333 -173v104h96v-104h-96z" />
    <glyph glyph-name="uni1EE3" unicode="&#x1ee3;" horiz-adv-x="561" 
d="M535 559h65v-45q0 -129 -102 -152q23 -52 23 -115q0 -109 -67 -182.5t-174 -73.5t-173 73t-66 183t66 182.5t173 72.5q117 0 186 -87q69 7 69 92v52zM280 67q73 0 114 51t41 129q0 79 -40.5 129t-114.5 50q-73 0 -113 -50t-40 -129t40 -129.5t113 -50.5zM232 -173v104h96
v-104h-96z" />
    <glyph glyph-name="uni1EE4" unicode="&#x1ee4;" horiz-adv-x="692" 
d="M346 -9q-125 0 -190.5 66.5t-65.5 194.5v445h89v-436q0 -95 40.5 -139t126.5 -44t126.5 45t40.5 140v434h89v-440q0 -130 -65.5 -198t-190.5 -68zM299 -173v104h96v-104h-96z" />
    <glyph glyph-name="uni1EE5" unicode="&#x1ee5;" horiz-adv-x="566" 
d="M396 493h86v-493h-86v67q-51 -76 -158 -76q-84 0 -125 53.5t-41 144.5v304h86v-283q0 -29 3 -50t12.5 -44.5t31.5 -36t55 -12.5q72 0 104 58.5t32 153.5v214zM234 -173v104h96v-104h-96z" />
    <glyph glyph-name="uni1EE6" unicode="&#x1ee6;" horiz-adv-x="692" 
d="M339 736l-13 42q25 4 37 7t24.5 13.5t12.5 26.5q0 48 -86 48h-15v49h15q64 0 103.5 -25.5t39.5 -72.5q0 -19 -8 -34t-18.5 -23.5t-29.5 -15t-30 -9t-32 -6.5zM346 -9q-125 0 -190.5 66.5t-65.5 194.5v445h89v-436q0 -95 40.5 -139t126.5 -44t126.5 45t40.5 140v434h89
v-440q0 -130 -65.5 -198t-190.5 -68z" />
    <glyph glyph-name="uni1EE7" unicode="&#x1ee7;" horiz-adv-x="566" 
d="M330 621q0 48 -86 48h-15v49h15q64 0 103.5 -25.5t39.5 -72.5q0 -19 -8 -34t-18.5 -23.5t-29.5 -15t-30 -9t-32 -6.5l-13 42q25 4 37 7t24.5 13.5t12.5 26.5zM396 493h86v-493h-86v67q-51 -76 -158 -76q-84 0 -125 53.5t-41 144.5v304h86v-283q0 -29 3 -50t12.5 -44.5
t31.5 -36t55 -12.5q72 0 104 58.5t32 153.5v214z" />
    <glyph glyph-name="uni1EE8" unicode="&#x1ee8;" horiz-adv-x="692" 
d="M516 901l-137 -141h-64l109 141h92zM674 697h65v-45q0 -70 -33.5 -112t-103.5 -44v-239q0 -130 -65.5 -198t-190.5 -68t-190.5 66.5t-65.5 194.5v445h89v-436q0 -95 40.5 -139t126.5 -44t126.5 45t40.5 140v434h89v-144q72 5 72 92v52z" />
    <glyph glyph-name="uni1EE9" unicode="&#x1ee9;" horiz-adv-x="566" 
d="M446 697l-137 -141h-64l109 141h92zM502 636h65v-45q0 -117 -85 -147v-444h-86v67q-51 -76 -158 -76q-84 0 -125 53.5t-41 144.5v304h86v-283q0 -29 3 -50t12.5 -44.5t31.5 -36t55 -12.5q72 0 104 58.5t32 153.5v214h42q64 9 64 91v52z" />
    <glyph glyph-name="uni1EEA" unicode="&#x1eea;" horiz-adv-x="692" 
d="M380 760h-66l-130 141h92zM674 697h65v-45q0 -70 -33.5 -112t-103.5 -44v-239q0 -130 -65.5 -198t-190.5 -68t-190.5 66.5t-65.5 194.5v445h89v-436q0 -95 40.5 -139t126.5 -44t126.5 45t40.5 140v434h89v-144q72 5 72 92v52z" />
    <glyph glyph-name="uni1EEB" unicode="&#x1eeb;" horiz-adv-x="566" 
d="M309 556h-66l-130 141h92zM502 636h65v-45q0 -117 -85 -147v-444h-86v67q-51 -76 -158 -76q-84 0 -125 53.5t-41 144.5v304h86v-283q0 -29 3 -50t12.5 -44.5t31.5 -36t55 -12.5q72 0 104 58.5t32 153.5v214h42q64 9 64 91v52z" />
    <glyph glyph-name="uni1EEC" unicode="&#x1eec;" horiz-adv-x="692" 
d="M400 825q0 48 -86 48h-15v49h15q64 0 103.5 -25.5t39.5 -72.5q0 -19 -8 -34t-18.5 -23.5t-29.5 -15t-30 -9t-32 -6.5l-13 42q25 4 37 7t24.5 13.5t12.5 26.5zM674 697h65v-45q0 -70 -33.5 -112t-103.5 -44v-239q0 -130 -65.5 -198t-190.5 -68t-190.5 66.5t-65.5 194.5
v445h89v-436q0 -95 40.5 -139t126.5 -44t126.5 45t40.5 140v434h89v-144q72 5 72 92v52z" />
    <glyph glyph-name="uni1EED" unicode="&#x1eed;" horiz-adv-x="566" 
d="M330 621q0 48 -86 48h-15v49h15q64 0 103.5 -25.5t39.5 -72.5q0 -19 -8 -34t-18.5 -23.5t-29.5 -15t-30 -9t-32 -6.5l-13 42q25 4 37 7t24.5 13.5t12.5 26.5zM502 636h65v-45q0 -117 -85 -147v-444h-86v67q-51 -76 -158 -76q-84 0 -125 53.5t-41 144.5v304h86v-283
q0 -29 3 -50t12.5 -44.5t31.5 -36t55 -12.5q72 0 104 58.5t32 153.5v214h42q64 9 64 91v52z" />
    <glyph glyph-name="uni1EEE" unicode="&#x1eee;" horiz-adv-x="692" 
d="M279 851q-20 0 -32 -20t-12 -55h-50q0 61 26 95t71 34q25 0 45 -12.5t30.5 -28t25.5 -28t31 -12.5q18 0 29.5 21t11.5 56h52q0 -62 -25.5 -97t-67.5 -35q-28 0 -49 13t-31.5 28t-24.5 28t-30 13zM674 697h65v-45q0 -70 -33.5 -112t-103.5 -44v-239q0 -130 -65.5 -198
t-190.5 -68t-190.5 66.5t-65.5 194.5v445h89v-436q0 -95 40.5 -139t126.5 -44t126.5 45t40.5 140v434h89v-144q72 5 72 92v52z" />
    <glyph glyph-name="uni1EEF" unicode="&#x1eef;" horiz-adv-x="566" 
d="M209 647q-20 0 -32 -20t-12 -55h-50q0 61 26 95t71 34q25 0 45 -12.5t30.5 -28t25.5 -28t31 -12.5q18 0 29.5 21t11.5 56h52q0 -62 -25.5 -97t-67.5 -35q-28 0 -49 13t-31.5 28t-24.5 28t-30 13zM502 636h65v-45q0 -117 -85 -147v-444h-86v67q-51 -76 -158 -76
q-84 0 -125 53.5t-41 144.5v304h86v-283q0 -29 3 -50t12.5 -44.5t31.5 -36t55 -12.5q72 0 104 58.5t32 153.5v214h42q64 9 64 91v52z" />
    <glyph glyph-name="uni1EF0" unicode="&#x1ef0;" horiz-adv-x="692" 
d="M674 697h65v-45q0 -70 -33.5 -112t-103.5 -44v-239q0 -130 -65.5 -198t-190.5 -68t-190.5 66.5t-65.5 194.5v445h89v-436q0 -95 40.5 -139t126.5 -44t126.5 45t40.5 140v434h89v-144q72 5 72 92v52zM299 -173v104h96v-104h-96z" />
    <glyph glyph-name="uni1EF1" unicode="&#x1ef1;" horiz-adv-x="566" 
d="M502 636h65v-45q0 -117 -85 -147v-444h-86v67q-51 -76 -158 -76q-84 0 -125 53.5t-41 144.5v304h86v-283q0 -29 3 -50t12.5 -44.5t31.5 -36t55 -12.5q72 0 104 58.5t32 153.5v214h42q64 9 64 91v52zM234 -173v104h96v-104h-96z" />
    <glyph glyph-name="Ygrave" unicode="&#x1ef2;" horiz-adv-x="658" 
d="M296 760l-130 141h92l104 -141h-66zM285 0v269l-266 428h105l204 -342l205 342h106l-265 -428v-269h-89z" />
    <glyph glyph-name="ygrave" unicode="&#x1ef3;" horiz-adv-x="508" 
d="M221 556l-130 141h92l104 -141h-66zM130 -204l84 212l-204 485h95l155 -385l141 385h95l-273 -697h-93z" />
    <glyph glyph-name="uni1EF4" unicode="&#x1ef4;" horiz-adv-x="658" 
d="M285 0v269l-266 428h105l204 -342l205 342h106l-265 -428v-269h-89zM281 -173v104h96v-104h-96z" />
    <glyph glyph-name="uni1EF5" unicode="&#x1ef5;" horiz-adv-x="508" 
d="M130 -204l84 212l-204 485h95l155 -385l141 385h95l-273 -697h-93zM361 -204v104h96v-104h-96z" />
    <glyph glyph-name="uni1EF6" unicode="&#x1ef6;" horiz-adv-x="658" 
d="M322 736l-13 42q25 4 37 7t24.5 13.5t12.5 26.5q0 48 -86 48h-15v49h15q64 0 103.5 -25.5t39.5 -72.5q0 -19 -8 -34t-18.5 -23.5t-29.5 -15t-30 -9t-32 -6.5zM285 0v269l-266 428h105l204 -342l205 342h106l-265 -428v-269h-89z" />
    <glyph glyph-name="uni1EF7" unicode="&#x1ef7;" horiz-adv-x="508" 
d="M247 532l-13 42q25 4 37 7t24.5 13.5t12.5 26.5q0 48 -86 48h-15v49h15q64 0 103.5 -25.5t39.5 -72.5q0 -19 -8 -34t-18.5 -23.5t-29.5 -15t-30 -9t-32 -6.5zM130 -204l84 212l-204 485h95l155 -385l141 385h95l-273 -697h-93z" />
    <glyph glyph-name="uni1EF8" unicode="&#x1ef8;" horiz-adv-x="658" 
d="M397 769q-28 0 -49 13t-31.5 28t-24.5 28t-30 13q-20 0 -32 -20t-12 -55h-50q0 61 26 95t71 34q25 0 45 -12.5t30.5 -28t25.5 -28t31 -12.5q18 0 29.5 21t11.5 56h52q0 -62 -25.5 -97t-67.5 -35zM285 0v269l-266 428h105l204 -342l205 342h106l-265 -428v-269h-89z" />
    <glyph glyph-name="uni1EF9" unicode="&#x1ef9;" horiz-adv-x="508" 
d="M322 565q-28 0 -49 13t-31.5 28t-24.5 28t-30 13q-20 0 -32 -20t-12 -55h-50q0 61 26 95t71 34q25 0 45 -12.5t30.5 -28t25.5 -28t31 -12.5q18 0 29.5 21t11.5 56h52q0 -62 -25.5 -97t-67.5 -35zM130 -204l84 212l-204 485h95l155 -385l141 385h95l-273 -697h-93z" />
    <glyph glyph-name="endash" unicode="&#x2013;" horiz-adv-x="525" 
d="M80 270v66h365v-66h-365z" />
    <glyph glyph-name="emdash" unicode="&#x2014;" horiz-adv-x="1010" 
d="M0 270v66h1010v-66h-1010z" />
    <glyph glyph-name="uni2015" unicode="&#x2015;" horiz-adv-x="768" 
d="M80 270v66h608v-66h-608z" />
    <glyph glyph-name="quoteleft" unicode="&#x2018;" horiz-adv-x="287" 
d="M42 414l130 283h57l-88 -283h-99z" />
    <glyph glyph-name="quoteright" unicode="&#x2019;" horiz-adv-x="287" 
d="M57 415l89 282h99l-130 -282h-58z" />
    <glyph glyph-name="quotesinglbase" unicode="&#x201a;" horiz-adv-x="287" 
d="M57 -153l89 282h99l-130 -282h-58z" />
    <glyph glyph-name="quotedblleft" unicode="&#x201c;" horiz-adv-x="463" 
d="M42 414l130 283h57l-88 -283h-99zM218 414l129 283h59l-89 -283h-99z" />
    <glyph glyph-name="quotedblright" unicode="&#x201d;" horiz-adv-x="464" 
d="M57 415l89 282h99l-130 -282h-58zM233 415l89 282h99l-130 -282h-58z" />
    <glyph glyph-name="quotedblbase" unicode="&#x201e;" horiz-adv-x="471" 
d="M57 -153l89 282h99l-130 -282h-58zM240 -153l89 282h99l-130 -282h-58z" />
    <glyph glyph-name="dagger" unicode="&#x2020;" horiz-adv-x="407" 
d="M164 -101v524h-117v78h117v196h79v-196h118v-78h-118v-524h-79z" />
    <glyph glyph-name="daggerdbl" unicode="&#x2021;" horiz-adv-x="451" 
d="M186 -101v196h-117v78h117v250h-117v78h117v196h79v-196h117v-78h-117v-250h117v-78h-117v-196h-79z" />
    <glyph glyph-name="bullet" unicode="&#x2022;" horiz-adv-x="409" 
d="M204 120q-49 0 -83 34.5t-34 82.5q0 49 34 83.5t83 34.5t83 -34.5t34 -83.5q0 -48 -34 -82.5t-83 -34.5z" />
    <glyph glyph-name="uni2023" unicode="&#x2023;" horiz-adv-x="449" 
d="M117 89v331l286 -166z" />
    <glyph glyph-name="twodotenleader" unicode="&#x2025;" horiz-adv-x="522" 
d="M116 0v117h87v-117h-87zM320 0v117h87v-117h-87z" />
    <glyph glyph-name="ellipsis" unicode="&#x2026;" horiz-adv-x="740" 
d="M116 0v117h100v-117h-100zM320 0v117h100v-117h-100zM524 0v117h100v-117h-100z" />
    <glyph glyph-name="perthousand" unicode="&#x2030;" horiz-adv-x="1050" 
d="M196 388q-63 0 -100 46.5t-37 112.5t36.5 112.5t97.5 46.5q59 0 97.5 -45.5t38.5 -114.5q0 -68 -37.5 -113t-95.5 -45zM137 0l402 697h62l-403 -697h-61zM196 447q32 0 53 28t21 71q0 44 -20.5 72.5t-56.5 28.5t-55.5 -29t-19.5 -71q0 -43 20 -71.5t58 -28.5zM546 -9
q-63 0 -100 47t-37 113q0 65 36 111.5t98 46.5q59 0 97.5 -45.5t38.5 -113.5t-37.5 -113.5t-95.5 -45.5zM859 -9q-63 0 -100 47t-37 113q0 65 36.5 111.5t97.5 46.5q59 0 97.5 -45.5t38.5 -113.5t-38 -113.5t-95 -45.5zM546 50q32 0 53 28t21 72q0 43 -20.5 71.5t-56.5 28.5
t-55.5 -28.5t-19.5 -70.5q0 -43 20 -72t58 -29zM859 50q32 0 53 28t21 72q0 43 -20.5 71.5t-56.5 28.5t-55.5 -29t-19.5 -70q0 -43 20 -72t58 -29z" />
    <glyph glyph-name="uni2031" unicode="&#x2031;" horiz-adv-x="1363" 
d="M196 388q-63 0 -100 46.5t-37 112.5t36.5 112.5t97.5 46.5q59 0 97.5 -45.5t38.5 -114.5q0 -68 -37.5 -113t-95.5 -45zM137 0l402 697h62l-402 -697h-62zM196 447q32 0 53 28t21 71q0 44 -20.5 72.5t-56.5 28.5t-55.5 -29t-19.5 -71q0 -43 20 -71.5t58 -28.5zM546 -9
q-63 0 -100 47t-37 113q0 65 36 111.5t98 46.5q59 0 97.5 -45.5t38.5 -113.5t-37.5 -113.5t-95.5 -45.5zM859 -9q-63 0 -100 47t-37 113q0 65 36.5 111.5t97.5 46.5q59 0 97.5 -45.5t38.5 -113.5t-38 -113.5t-95 -45.5zM1172 -9q-63 0 -100 47t-37 113q0 65 36.5 111.5
t97.5 46.5q58 0 97 -45.5t39 -113.5t-38 -113.5t-95 -45.5zM546 50q32 0 53 28t21 72q0 43 -20.5 71.5t-56.5 28.5t-55.5 -28.5t-19.5 -70.5q0 -43 20 -72t58 -29zM859 50q32 0 53 28t21 72q0 43 -20.5 71.5t-56.5 28.5t-55.5 -29t-19.5 -70q0 -43 20 -72t58 -29zM1172 50
q32 0 53 28t21 72q0 42 -21 71t-56 29q-36 0 -55.5 -29t-19.5 -70q0 -43 20 -72t58 -29z" />
    <glyph glyph-name="guilsinglleft" unicode="&#x2039;" horiz-adv-x="304" 
d="M227 82l-201 170l201 170v-75l-112 -95l112 -95v-75z" />
    <glyph glyph-name="guilsinglright" unicode="&#x203a;" horiz-adv-x="304" 
d="M75 82v75l112 95l-112 95v75l201 -170z" />
    <glyph glyph-name="fraction" unicode="&#x2044;" horiz-adv-x="149" 
d="M-158 0l402 697h62l-402 -697h-62z" />
    <glyph glyph-name="Euro" unicode="&#x20ac;" horiz-adv-x="720" 
d="M607 130l47 -73q-80 -66 -204 -66q-126 0 -207.5 69.5t-106.5 188.5h-64l1 58h55q-2 30 -2 46q0 17 2 49h-55v58h65q27 113 108.5 179.5t206.5 66.5q123 0 199 -60l-47 -74q-62 49 -152 49q-85 0 -142.5 -43t-81.5 -118h307l-1 -58h-319q-3 -24 -3 -50q0 -15 2 -45h320
l-2 -58h-307q22 -81 79.5 -127t144.5 -46q95 0 157 54z" />
    <glyph glyph-name="uni20B1" unicode="&#x20b1;" horiz-adv-x="689" 
d="M634 523v-49h-49q-8 -81 -68.5 -128t-163.5 -47h-120v-299h-88v474h-63v49h63v174h208q109 0 166.5 -46t65.5 -128h49zM233 613v-90h262q-14 90 -142 90h-120zM353 383q128 0 142 91h-262v-91h120z" />
    <glyph glyph-name="uni20B3" unicode="&#x20b3;" horiz-adv-x="805" 
d="M101 0l53 141h-68v77h99l32 87h-131v77h162l120 315h71l119 -315h161v-77h-131l33 -87h98v-77h-67l52 -141h-97l-49 141h-309l-50 -141h-98zM338 382h131l-65 186zM278 218h251l-31 87h-189z" />
    <glyph glyph-name="uni20B4" unicode="&#x20b4;" horiz-adv-x="730" 
d="M540 462h109v-63h-569v63h372q29 27 29 64q0 44 -32 72t-80 28q-86 0 -132 -82l-74 46q33 58 88 87t122 29q82 0 137 -47.5t55 -116.5q0 -42 -25 -80zM80 267v61h569v-61h-384q-43 -37 -43 -85t38 -79t101 -31q62 0 105 31t56 90l87 -26q-22 -83 -90.5 -128.5
t-156.5 -45.5q-99 0 -162 52t-63 130q0 49 27 92h-84z" />
    <glyph glyph-name="uni20B8" unicode="&#x20b8;" horiz-adv-x="709" 
d="M76 623v74h557v-74h-557zM310 0v460h-234v74h557v-74h-234v-460h-89z" />
    <glyph glyph-name="uni20BD" unicode="&#x20bd;" horiz-adv-x="679" 
d="M171 0v148h-89v65h89v93h-89v77h89v314h201q108 0 173.5 -53.5t65.5 -147.5q0 -92 -64.5 -141t-174.5 -49h-112v-93h160v-65h-160v-148h-89zM260 383h112q150 0 150 113q0 56 -38 86.5t-112 30.5h-112v-230z" />
    <glyph glyph-name="uni2116" unicode="&#x2116;" horiz-adv-x="1216" 
d="M544 148v549h86v-697h-91l-326 551v-551h-86v697h91zM935 159q-89 0 -146 61.5t-57 152.5q0 89 57.5 150.5t145.5 61.5q89 0 146.5 -61.5t57.5 -150.5t-57.5 -151.5t-146.5 -62.5zM935 523q-61 0 -95 -43t-34 -107q0 -66 34 -109.5t95 -43.5t95.5 44t34.5 109
q0 64 -34.5 107t-95.5 43zM738 0v66h383v-66h-383z" />
    <glyph glyph-name="trademark" unicode="&#x2122;" horiz-adv-x="748" 
d="M153 432v215h-75v50h204v-50h-74v-215h-55zM339 432v265h88l55 -174l54 174h86v-265h-54v207l-69 -196h-35l-71 198v-209h-54z" />
    <glyph glyph-name="uni2126" unicode="&#x2126;" horiz-adv-x="829" 
d="M79 0v69h197l-17 2q-71 42 -115.5 121t-44.5 166q0 138 89 229.5t227 91.5t226.5 -91.5t88.5 -229.5q0 -89 -44.5 -168.5t-116.5 -119.5l-17 -1h197v-69h-274v86q179 69 179 271q0 111 -65 180t-174 69t-174.5 -69t-65.5 -179q0 -195 178 -273v-85h-274z" />
    <glyph glyph-name="arrowleft" unicode="&#x2190;" horiz-adv-x="1141" 
d="M549 33l-506 282l506 280l28 -58l-340 -189l851 -1v-65l-852 1l341 -192z" />
    <glyph glyph-name="arrowright" unicode="&#x2192;" horiz-adv-x="1088" 
d="M540 22l-29 57l342 192l-853 -1v66l853 -1l-342 191l29 58l505 -281z" />
    <glyph glyph-name="partialdiff" unicode="&#x2202;" horiz-adv-x="662" 
d="M290 -6q-101 0 -161 62t-60 162q0 123 79 203t189 80q94 0 153 -99q2 27 -4 71q-22 167 -154 167q-104 0 -139 -90l-64 20q25 64 80 99t130 35q120 0 179.5 -89t59.5 -243q0 -165 -75.5 -271.5t-212.5 -106.5zM295 68q83 0 135 57t59 134q5 66 -31.5 118.5t-110.5 52.5
q-91 0 -144.5 -62t-53.5 -149q0 -70 41.5 -110.5t104.5 -40.5z" />
    <glyph glyph-name="uni2206" unicode="&#x2206;" horiz-adv-x="667" 
d="M46 0l277 697h22l277 -697h-576zM152 73h364l-182 476z" />
    <glyph glyph-name="product" unicode="&#x220f;" horiz-adv-x="669" 
d="M134 0v624h-48v73h498v-73h-49v-624h-72v624h-257v-624h-72z" />
    <glyph glyph-name="summation" unicode="&#x2211;" horiz-adv-x="652" 
d="M585 697v-81h-388l260 -268l-260 -267h388v-81h-526v49l281 299l-281 300v49h526z" />
    <glyph glyph-name="minus" unicode="&#x2212;" horiz-adv-x="619" 
d="M123 275v72h374v-72h-374z" />
    <glyph glyph-name="radical" unicode="&#x221a;" horiz-adv-x="621" 
d="M257 -86l-135 358h-75v73h127l87 -244l239 596h78z" />
    <glyph glyph-name="infinity" unicode="&#x221e;" horiz-adv-x="981" 
d="M278 176q-86 0 -138.5 52t-52.5 134q0 81 52 132.5t139 51.5q57 0 112.5 -34t98.5 -92q46 59 102 92.5t112 33.5q86 0 139 -52t53 -132q0 -81 -53 -133.5t-139 -52.5q-117 0 -214 126q-45 -60 -100 -93t-111 -33zM288 245q40 0 83.5 30t78.5 87q-35 56 -78.5 85.5
t-83.5 29.5q-55 0 -89.5 -32t-34.5 -83q0 -52 34.5 -84.5t89.5 -32.5zM692 245q55 0 90.5 32.5t35.5 84.5q0 51 -35.5 83t-90.5 32q-41 0 -85 -30.5t-80 -84.5q37 -55 80.5 -86t84.5 -31z" />
    <glyph glyph-name="integral" unicode="&#x222b;" horiz-adv-x="483" 
d="M40 -230v72q89 0 123 34t34 107v577q0 64 41.5 107t101.5 43t107 -41l-46 -55q-31 24 -61 24t-50 -21.5t-20 -59.5v-575q0 -104 -60 -158t-170 -54z" />
    <glyph glyph-name="approxequal" unicode="&#x2248;" horiz-adv-x="620" 
d="M396 349q-37 0 -63 18.5t-38.5 41.5t-31.5 41.5t-43 18.5q-26 0 -41 -25.5t-15 -68.5h-66q0 69 33.5 110.5t88.5 41.5q38 0 65.5 -18.5t40 -41t30.5 -41t40 -18.5q26 0 42.5 29.5t16.5 76.5h66q0 -73 -34 -119t-91 -46zM396 122q-37 0 -63 18.5t-38.5 41t-31.5 41
t-43 18.5q-26 0 -41 -25t-15 -69h-66q0 69 33.5 111t88.5 42q38 0 65.5 -18.5t40 -41t30.5 -41t40 -18.5q26 0 42.5 29t16.5 76h66q0 -73 -34 -118.5t-91 -45.5z" />
    <glyph glyph-name="notequal" unicode="&#x2260;" horiz-adv-x="595" 
d="M64 0l112 194h-77v73h119l76 131h-195v72h239l129 227h62l-130 -227h96v-72h-139l-76 -131h215v-73h-258l-111 -194h-62z" />
    <glyph glyph-name="lessequal" unicode="&#x2264;" horiz-adv-x="672" 
d="M559 100l-507 289l507 289l32 -57l-406 -232l406 -232zM79 -66v66h523v-66h-523z" />
    <glyph glyph-name="greaterequal" unicode="&#x2265;" horiz-adv-x="671" 
d="M113 100l-33 57l406 232l-406 232l33 57l506 -289zM69 -66v66h523v-66h-523z" />
    <glyph glyph-name="lozenge" unicode="&#x25ca;" horiz-adv-x="597" 
d="M238 0l-186 348l186 349h120l186 -349l-186 -348h-120zM291 46h14l154 302l-154 303h-14l-153 -303z" />
    <glyph glyph-name="uniF8FF" unicode="&#xf8ff;" horiz-adv-x="905" 
d="M453 -30q-158 0 -270 111.5t-112 270.5q0 158 112 269.5t270 111.5t270 -111.5t112 -269.5q0 -159 -112 -270.5t-270 -111.5zM453 5q144 0 245 101.5t101 245.5q0 143 -101 244.5t-245 101.5t-245.5 -101.5t-101.5 -244.5q0 -144 101.5 -245.5t245.5 -101.5zM254 202
q-7 0 -12 5t-5 12v265q0 7 5 12.5t12 5.5q8 0 13 -5t5 -13v-265q0 -17 -18 -17zM453 202q-17 0 -17 17v265q0 18 17 18t17 -18v-265q0 -17 -17 -17zM651 202q-7 0 -11 5l-134 132q-4 5 -4 13t4 12l134 132q4 6 11 6t12.5 -5.5t5.5 -12.5t-5 -12l-120 -120l120 -121
q5 -5 5 -12t-5.5 -12t-12.5 -5zM320 334q-17 0 -17 18q0 17 17 17h66q18 0 18 -17q0 -18 -18 -18h-66z" />
    <glyph glyph-name="i.loclTRK" horiz-adv-x="254" 
d="M79 592v105h96v-105h-96zM84 0v493h86v-493h-86z" />
    <glyph glyph-name="s.001" horiz-adv-x="460" 
d="M235 -9q-74 0 -129 36.5t-75 95.5l71 32q13 -38 46.5 -64t83.5 -26q46 0 73 21.5t27 54.5q0 27 -20.5 44.5t-50.5 25.5t-66 19t-66 23.5t-50.5 41t-20.5 69.5q0 65 49 101.5t124 36.5q128 0 181 -105l-68 -37q-38 69 -115 69q-40 0 -64 -16t-24 -44t28.5 -44t69 -26
t81 -23.5t69 -46t28.5 -83.5q0 -72 -51.5 -113.5t-130.5 -41.5z" />
    <glyph glyph-name="g.ss01" horiz-adv-x="586" 
d="M415 493h86v-467q0 -113 -60 -176.5t-168 -63.5q-152 0 -220 117l66 54q18 -39 59 -67t98 -28q66 0 102.5 38.5t36.5 106.5v65q-54 -71 -155 -71q-103 0 -160 71t-57 180q0 110 58 180t158 70q102 0 156 -70v61zM277 79q70 0 107.5 48t37.5 125t-38.5 125t-106.5 48
q-69 0 -108 -48t-39 -125q0 -76 38 -124.5t109 -48.5z" />
    <glyph glyph-name="gbreve.ss01" horiz-adv-x="586" 
d="M292 565q-153 0 -153 132h62q0 -39 24.5 -59.5t66.5 -20.5q43 0 67 20.5t24 59.5h62q0 -132 -153 -132zM415 493h86v-467q0 -113 -60 -176.5t-168 -63.5q-152 0 -220 117l66 54q18 -39 59 -67t98 -28q66 0 102.5 38.5t36.5 106.5v65q-54 -71 -155 -71q-103 0 -160 71
t-57 180q0 110 58 180t158 70q102 0 156 -70v61zM277 79q70 0 107.5 48t37.5 125t-38.5 125t-106.5 48q-69 0 -108 -48t-39 -125q0 -76 38 -124.5t109 -48.5z" />
    <glyph glyph-name="uni0123.ss01" horiz-adv-x="586" 
d="M377 704l-81 -150h-91l119 150h53zM415 493h86v-467q0 -113 -60 -176.5t-168 -63.5q-152 0 -220 117l66 54q18 -39 59 -67t98 -28q66 0 102.5 38.5t36.5 106.5v65q-54 -71 -155 -71q-103 0 -160 71t-57 180q0 110 58 180t158 70q102 0 156 -70v61zM277 79q70 0 107.5 48
t37.5 125t-38.5 125t-106.5 48q-69 0 -108 -48t-39 -125q0 -76 38 -124.5t109 -48.5z" />
    <glyph glyph-name="gdotaccent.ss01" horiz-adv-x="586" 
d="M340 697v-105h-96v105h96zM415 493h86v-467q0 -113 -60 -176.5t-168 -63.5q-152 0 -220 117l66 54q18 -39 59 -67t98 -28q66 0 102.5 38.5t36.5 106.5v65q-54 -71 -155 -71q-103 0 -160 71t-57 180q0 110 58 180t158 70q102 0 156 -70v61zM277 79q70 0 107.5 48t37.5 125
t-38.5 125t-106.5 48q-69 0 -108 -48t-39 -125q0 -76 38 -124.5t109 -48.5z" />
    <glyph glyph-name="g.ss02" horiz-adv-x="530" 
d="M335 76q68 0 113 -35.5t45 -100.5q0 -71 -55.5 -112t-159.5 -41q-108 0 -174.5 37.5t-66.5 114.5q0 18 6 38l74 42q-65 34 -66 101q0 63 57 103q-34 43 -34 104q0 77 54 126t136 49q72 0 122 -39l75 65l44 -54l-74 -63q22 -41 22 -87q0 -77 -54 -124t-135 -47
q-59 0 -105 26q-29 -21 -27 -52q1 -51 102 -51h101zM266 433q-49 0 -78 -30t-29 -77q0 -45 29 -74.5t78 -29.5q47 0 75 29t28 74q0 47 -28 77.5t-75 30.5zM273 -146q137 0 137 81q0 68 -94 68h-138h-7l-54 -49v-13q0 -37 35.5 -62t120.5 -25z" />
    <glyph glyph-name="gbreve.ss02" horiz-adv-x="530" 
d="M265 565q-153 0 -153 132h62q0 -39 24.5 -59.5t66.5 -20.5q43 0 67 20.5t24 59.5h62q0 -132 -153 -132zM335 76q68 0 113 -35.5t45 -100.5q0 -71 -55.5 -112t-159.5 -41q-108 0 -174.5 37.5t-66.5 114.5q0 18 6 38l74 42q-65 34 -66 101q0 63 57 103q-34 43 -34 104
q0 77 54 126t136 49q72 0 122 -39l75 65l44 -54l-74 -63q22 -41 22 -87q0 -77 -54 -124t-135 -47q-59 0 -105 26q-29 -21 -27 -52q1 -51 102 -51h101zM266 433q-49 0 -78 -30t-29 -77q0 -45 29 -74.5t78 -29.5q47 0 75 29t28 74q0 47 -28 77.5t-75 30.5zM273 -146
q137 0 137 81q0 68 -94 68h-138h-7l-54 -49v-13q0 -37 35.5 -62t120.5 -25z" />
    <glyph glyph-name="uni0123.ss02" horiz-adv-x="530" 
d="M351 704l-81 -150h-91l119 150h53zM335 76q68 0 113 -35.5t45 -100.5q0 -71 -55.5 -112t-159.5 -41q-108 0 -174.5 37.5t-66.5 114.5q0 18 6 38l74 42q-65 34 -66 101q0 63 57 103q-34 43 -34 104q0 77 54 126t136 49q72 0 122 -39l75 65l44 -54l-74 -63q22 -41 22 -87
q0 -77 -54 -124t-135 -47q-59 0 -105 26q-29 -21 -27 -52q1 -51 102 -51h101zM266 433q-49 0 -78 -30t-29 -77q0 -45 29 -74.5t78 -29.5q47 0 75 29t28 74q0 47 -28 77.5t-75 30.5zM273 -146q137 0 137 81q0 68 -94 68h-138h-7l-54 -49v-13q0 -37 35.5 -62t120.5 -25z" />
    <glyph glyph-name="gdotaccent.ss02" horiz-adv-x="530" 
d="M313 697v-105h-96v105h96zM335 76q68 0 113 -35.5t45 -100.5q0 -71 -55.5 -112t-159.5 -41q-108 0 -174.5 37.5t-66.5 114.5q0 18 6 38l74 42q-65 34 -66 101q0 63 57 103q-34 43 -34 104q0 77 54 126t136 49q72 0 122 -39l75 65l44 -54l-74 -63q22 -41 22 -87
q0 -77 -54 -124t-135 -47q-59 0 -105 26q-29 -21 -27 -52q1 -51 102 -51h101zM266 433q-49 0 -78 -30t-29 -77q0 -45 29 -74.5t78 -29.5q47 0 75 29t28 74q0 47 -28 77.5t-75 30.5zM273 -146q137 0 137 81q0 68 -94 68h-138h-7l-54 -49v-13q0 -37 35.5 -62t120.5 -25z" />
    <glyph glyph-name="T_h" horiz-adv-x="1046" 
d="M259 0v615h-234v82h625v-271q53 76 156 76q85 0 126.5 -55t41.5 -147v-300h-87v284q0 65 -21 103t-80 38q-66 0 -101 -51.5t-35 -139.5v-234h-87v615h-214v-615h-90z" />
    <glyph glyph-name="zero.lf" horiz-adv-x="581" 
d="M296 -9q-230 0 -230 357q0 359 223 359q63 0 108.5 -29.5t71 -82t37 -114t11.5 -134.5t-11.5 -133.5t-36 -112.5t-68.5 -81t-105 -29zM293 74q40 0 67 22t40.5 63t19 85.5t5.5 103.5q0 60 -5.5 105.5t-19.5 86.5t-42 62.5t-69 21.5q-42 0 -70 -22.5t-41.5 -65t-18 -85.5
t-4.5 -103q0 -46 2.5 -81t11 -73t23 -63t40.5 -41t61 -16z" />
    <glyph glyph-name="one.lf" horiz-adv-x="381" 
d="M196 697h84v-697h-86v512h-170v74h108q64 0 64 58v53z" />
    <glyph glyph-name="two.lf" horiz-adv-x="571" 
d="M188 81h339v-81h-484v76q70 43 122.5 81t114 93.5t95.5 117.5t34 125q0 59 -32 94t-93 35q-72 0 -107.5 -46.5t-36.5 -120.5l-85 6q0 104 61 174t168 70q95 0 153.5 -56.5t58.5 -153.5q0 -118 -87.5 -225t-220.5 -189z" />
    <glyph glyph-name="three.lf" horiz-adv-x="586" 
d="M287 -9q-109 0 -179 58.5t-70 162.5l85 5q0 -67 46 -105t120 -38q71 0 116 35.5t45 99.5q0 39 -17.5 65t-49.5 37.5t-61.5 15.5t-67.5 4v70q76 0 117.5 28.5t41.5 84.5q0 53 -34.5 81t-88.5 28q-60 0 -96.5 -32t-37.5 -89l-84 6q0 90 61.5 144t153.5 54q88 0 150 -49.5
t62 -131.5q0 -53 -27.5 -93.5t-69.5 -57.5q60 -14 97 -59.5t37 -114.5q0 -97 -71.5 -153t-177.5 -56z" />
    <glyph glyph-name="four.lf" horiz-adv-x="589" 
d="M452 248h112v-83h-112v-165h-86v165h-342v54l350 478h78v-449zM136 248h230v323z" />
    <glyph glyph-name="five.lf" horiz-adv-x="588" 
d="M307 470q99 0 164.5 -67.5t65.5 -164.5q0 -101 -70.5 -174t-175.5 -73q-94 0 -160.5 58.5t-81.5 146.5l84 14q10 -59 51.5 -97.5t105.5 -38.5q71 0 113.5 48t42.5 116q0 65 -40 108.5t-109 43.5q-90 0 -142 -77l-85 22l65 362h370v-82h-299l-35 -194q58 49 136 49z" />
    <glyph glyph-name="six.lf" horiz-adv-x="562" 
d="M345 451q77 -18 128 -80.5t51 -143.5q0 -97 -71 -166.5t-171 -69.5t-171.5 69t-71.5 166q0 66 37 126l209 345h98l-155 -248q61 16 117 2zM282 74q64 0 109.5 45t45.5 108t-45.5 108t-109.5 45t-110 -45t-46 -108t45.5 -108t110.5 -45z" />
    <glyph glyph-name="seven.lf" horiz-adv-x="548" 
d="M23 697h501v-50l-330 -647h-98l321 615h-394v82z" />
    <glyph glyph-name="eight.lf" horiz-adv-x="589" 
d="M295 -9q-100 0 -172 55t-72 154q0 63 31.5 109.5t89.5 69.5q-83 46 -83 145q0 82 61.5 132t144.5 50q86 0 146 -51t60 -134q0 -47 -22.5 -84.5t-60.5 -57.5q56 -23 87.5 -70t31.5 -109q0 -99 -71 -154t-171 -55zM295 404q54 0 87 30t33 81q0 48 -33.5 78t-86.5 30
q-51 0 -85.5 -29t-34.5 -77q0 -52 33 -82.5t87 -30.5zM295 73q67 0 111.5 35t44.5 99q0 63 -43.5 100t-112.5 37q-71 0 -114.5 -37t-43.5 -100q0 -64 45 -99t113 -35z" />
    <glyph glyph-name="nine.lf" horiz-adv-x="561" 
d="M280 706q100 0 171.5 -69t71.5 -166q0 -66 -37 -126l-210 -345h-98l154 247q-60 -15 -115 -1q-77 18 -128.5 80.5t-51.5 143.5q0 97 71.5 166.5t171.5 69.5zM280 317q64 0 109.5 45t45.5 108t-45.5 108t-109.5 45t-109.5 -45t-45.5 -108t45.5 -108t109.5 -45z" />
    <glyph glyph-name="notequal.001" horiz-adv-x="595" 
d="M64 0l112 194h-77v73h119l76 131h-195v72h239l129 227h62l-130 -227h96v-72h-139l-76 -131h215v-73h-258l-111 -194h-62z" />
    <glyph glyph-name="uni030C.alt" 
d="M-185 484l57 213h90l-96 -213h-51z" />
    <glyph glyph-name="uni030A.case" 
d="M-158 535q-43 0 -73 30.5t-30 72.5q0 43 30 72.5t73 29.5q42 0 72 -30t30 -72q0 -43 -29.5 -73t-72.5 -30zM-158 583q23 0 39 16t16 39q0 24 -15.5 39.5t-39.5 15.5t-39.5 -16t-15.5 -39t15.5 -39t39.5 -16z" />
    <glyph glyph-name="uni0337.case" 
d="M-321 162v89l294 232v-88z" />
    <glyph glyph-name="uni0338.case" 
d="M-514 0l440 697h76l-440 -697h-76z" />
    <glyph glyph-name="uni03060301" 
d="M-237 760l109 141h92l-136 -141h-65zM-205 565q-153 0 -153 132h62q0 -39 24.5 -59.5t66.5 -20.5q43 0 67 20.5t24 59.5h62q0 -132 -153 -132z" />
    <glyph glyph-name="uni03060300" 
d="M-210 760l-130 141h92l104 -141h-66zM-177 565q-153 0 -153 132h62q0 -39 24.5 -59.5t66.5 -20.5q43 0 67 20.5t24 59.5h62q0 -132 -153 -132z" />
    <glyph glyph-name="uni03060309" 
d="M-198 736l-13 42q25 4 37 7t24.5 13.5t12.5 26.5q0 48 -86 48h-15v49h15q64 0 103.5 -25.5t39.5 -72.5q0 -19 -8 -34t-18.5 -23.5t-29.5 -15t-30 -9t-32 -6.5zM-191 565q-152 0 -152 132h61q0 -39 25 -59.5t66 -20.5q43 0 67 20.5t24 59.5h62q0 -132 -153 -132z" />
    <glyph glyph-name="uni03060303" 
d="M-150 769q-27 0 -48 13t-31.5 28t-25 28t-29.5 13q-44 0 -44 -75h-51q0 61 26.5 95t71.5 34q25 0 45 -12.5t30.5 -28t25.5 -28t30 -12.5q18 0 29.5 21t11.5 56h53q0 -61 -25.5 -96.5t-68.5 -35.5zM-217 565q-153 0 -153 132h62q0 -39 24.5 -59.5t66.5 -20.5q43 0 67 20.5
t24 59.5h62q0 -132 -153 -132z" />
    <glyph glyph-name="uni03020301" 
d="M-221 744l109 142h93l-137 -142h-65zM-340 546l151 164l152 -164h-69l-83 89l-81 -89h-70z" />
    <glyph glyph-name="uni03020300" 
d="M-188 744l-130 142h92l104 -142h-66zM-306 546l151 164l151 -164h-69l-82 89l-82 -89h-69z" />
    <glyph glyph-name="uni03020309" 
d="M-180 721l-12 42q22 3 35.5 6.5t25.5 14t12 26.5q0 48 -86 48h-15v49h15q64 0 103.5 -25.5t39.5 -72.5q0 -19 -8.5 -34t-18 -23.5t-29 -15.5t-30 -9t-32.5 -6zM-324 546l152 164l151 -164h-69l-82 89l-82 -89h-70z" />
    <glyph glyph-name="uni03020303" 
d="M-131 754q-28 0 -49 12.5t-31.5 28t-24.5 28t-30 12.5q-20 0 -32 -19.5t-12 -54.5h-50q0 60 26 94t71 34q25 0 45 -12.5t30.5 -27.5t25.5 -27.5t31 -12.5q18 0 29.5 20.5t11.5 56.5h52q0 -62 -25.5 -97t-67.5 -35zM-350 546l152 164l151 -164h-69l-82 89l-82 -89h-70z
" />
    </font>
</defs>
</svg>
